<svg width="676" height="538" viewBox="0 0 676 538" fill="none" xmlns="http://www.w3.org/2000/svg">
<path d="M591.842 450.2L71.8423 435.3C60.1505 434.975 48.9781 430.399 40.4183 422.428C31.8584 414.457 26.4984 403.639 25.3423 392L0.242277 144C-0.425973 137.362 0.291823 130.657 2.35017 124.31C4.40852 117.964 7.76257 112.114 12.1998 107.132C16.6371 102.149 22.0608 98.1425 28.1274 95.3656C34.1939 92.5888 40.7711 91.1022 47.4423 91L626.242 83C633.125 82.907 639.948 84.2889 646.253 87.053C652.557 89.817 658.196 93.8991 662.791 99.0245C667.386 104.15 670.83 110.2 672.891 116.768C674.953 123.335 675.584 130.268 674.742 137.1L641.042 408C639.577 419.901 633.72 430.825 624.618 438.632C615.517 446.438 603.828 450.564 591.842 450.2Z" fill="#C7F7FF"/>
<mask id="mask0_21_178" style="mask-type:luminance" maskUnits="userSpaceOnUse" x="0" y="82" width="676" height="369">
<path d="M591.842 450.2L71.8423 435.3C60.1505 434.975 48.9781 430.399 40.4183 422.428C31.8584 414.457 26.4984 403.639 25.3423 392L0.242277 144C-0.425973 137.362 0.291823 130.657 2.35017 124.31C4.40852 117.964 7.76257 112.114 12.1998 107.132C16.6371 102.149 22.0608 98.1425 28.1274 95.3656C34.1939 92.5888 40.7711 91.1022 47.4423 91L626.242 83C633.125 82.907 639.948 84.2889 646.253 87.053C652.557 89.817 658.196 93.8991 662.791 99.0245C667.386 104.15 670.83 110.2 672.891 116.768C674.953 123.335 675.584 130.268 674.742 137.1L641.042 408C639.577 419.901 633.72 430.825 624.618 438.632C615.517 446.438 603.828 450.564 591.842 450.2Z" fill="white"/>
</mask>
<g mask="url(#mask0_21_178)">
<path d="M516.942 517.5H932.442C936.421 517.5 940.236 515.92 943.049 513.107C945.862 510.294 947.442 506.478 947.442 502.5V266.9C947.442 262.922 945.862 259.106 943.049 256.293C940.236 253.48 936.421 251.9 932.442 251.9H516.942C512.964 251.9 509.149 253.48 506.336 256.293C503.523 259.106 501.942 262.922 501.942 266.9V502.5C501.942 506.478 503.523 510.294 506.336 513.107C509.149 515.92 512.964 517.5 516.942 517.5Z" stroke="#A6BCB1" stroke-width="1.8" stroke-linecap="round" stroke-linejoin="round"/>
<path d="M-32.1577 501.7H386.942C390.921 501.7 394.736 500.12 397.549 497.307C400.362 494.494 401.942 490.678 401.942 486.7V142.4C401.942 138.422 400.362 134.606 397.549 131.793C394.736 128.98 390.921 127.4 386.942 127.4H-32.1577C-36.136 127.4 -39.9513 128.98 -42.7643 131.793C-45.5774 134.606 -47.1577 138.422 -47.1577 142.4V486.7C-47.1577 490.678 -45.5774 494.494 -42.7643 497.307C-39.9513 500.12 -36.136 501.7 -32.1577 501.7Z" stroke="#A6BCB1" stroke-width="1.8" stroke-linecap="round" stroke-linejoin="round"/>
<path d="M539.542 251.8H559.842C560.9 251.803 561.922 251.418 562.714 250.717C563.507 250.017 564.015 249.05 564.142 248L565.742 233.6C565.808 232.996 565.746 232.384 565.56 231.806C565.374 231.227 565.069 230.694 564.663 230.241C564.257 229.788 563.761 229.426 563.206 229.178C562.651 228.929 562.05 228.801 561.442 228.8H537.942C537.335 228.802 536.735 228.932 536.18 229.181C535.626 229.429 535.131 229.792 534.725 230.244C534.32 230.697 534.014 231.229 533.828 231.807C533.641 232.385 533.578 232.996 533.642 233.6L535.242 248C535.37 249.05 535.878 250.017 536.67 250.717C537.463 251.418 538.485 251.803 539.542 251.8Z" stroke="#A6BCB1" stroke-width="1.8" stroke-linecap="round" stroke-linejoin="round"/>
<path d="M552.042 228.9C552.042 228.9 560.042 228.1 561.642 217.3C561.642 217.3 554.442 219.4 552.142 224.5C552.142 224.5 551.142 213.1 545.742 212C545.742 212 543.342 220.5 547.142 224.7C547.142 224.7 544.242 219.9 536.842 220C537.541 222.106 538.745 224.009 540.349 225.543C541.953 227.077 543.907 228.195 546.042 228.8" fill="#B8D8C7"/>
<path d="M53.8423 232.1H74.1423C75.2 232.103 76.2219 231.718 77.0144 231.017C77.8069 230.317 78.315 229.35 78.4423 228.3L80.0423 213.9C80.1083 213.296 80.0463 212.684 79.8603 212.106C79.6744 211.527 79.3686 210.994 78.963 210.541C78.5574 210.088 78.061 209.726 77.5061 209.478C76.9512 209.229 76.3502 209.101 75.7423 209.1H52.2423C51.6349 209.102 51.0347 209.232 50.4805 209.481C49.9263 209.729 49.4306 210.092 49.0253 210.544C48.62 210.997 48.3141 211.529 48.1276 212.107C47.941 212.685 47.8779 213.296 47.9423 213.9L49.5423 228.3C49.6717 229.349 50.1804 230.315 50.9724 231.015C51.7645 231.715 52.7853 232.101 53.8423 232.1Z" stroke="#A6BCB1" stroke-width="1.8" stroke-linecap="round" stroke-linejoin="round"/>
<path d="M66.3423 209.1C66.3423 209.1 74.3423 208.3 75.9423 197.5C75.9423 197.5 68.7423 199.6 66.4423 204.7C66.4423 204.7 65.4423 193.3 60.0423 192.2C60.0423 192.2 57.6423 200.7 61.4423 204.9C61.4423 204.9 58.5423 200.1 51.1423 200.2C51.8414 202.306 53.0454 204.209 54.649 205.743C56.2526 207.277 58.2072 208.395 60.3423 209" fill="#B8D8C7"/>
<path d="M520.142 301.6H610.342C611.454 301.592 612.518 301.147 613.303 300.361C614.089 299.575 614.534 298.511 614.542 297.4V269.9C614.534 268.788 614.089 267.725 613.303 266.939C612.518 266.153 611.454 265.708 610.342 265.7H520.142C519.031 265.708 517.967 266.153 517.181 266.939C516.395 267.725 515.95 268.788 515.942 269.9V297.3C515.936 297.858 516.039 298.412 516.247 298.93C516.454 299.448 516.762 299.921 517.152 300.32C517.542 300.719 518.007 301.038 518.52 301.257C519.033 301.477 519.584 301.593 520.142 301.6Z" stroke="#A6BCB1" stroke-width="1.8" stroke-linecap="round" stroke-linejoin="round"/>
<path d="M554.842 275.5H575.642C576.037 275.49 576.413 275.329 576.692 275.049C576.971 274.77 577.132 274.395 577.142 274C577.132 273.605 576.971 273.23 576.692 272.951C576.413 272.671 576.037 272.51 575.642 272.5H554.842C554.448 272.51 554.072 272.671 553.793 272.951C553.514 273.23 553.352 273.605 553.342 274C553.352 274.395 553.514 274.77 553.793 275.049C554.072 275.329 554.448 275.49 554.842 275.5Z" fill="#B8D8C7"/>
<path d="M520.142 347.4H610.342C611.454 347.392 612.518 346.947 613.303 346.161C614.089 345.375 614.534 344.312 614.542 343.2V315.8C614.534 314.689 614.089 313.625 613.303 312.839C612.518 312.053 611.454 311.608 610.342 311.6H520.142C519.031 311.608 517.967 312.053 517.181 312.839C516.395 313.625 515.95 314.689 515.942 315.8V343.2C515.95 344.312 516.395 345.375 517.181 346.161C517.967 346.947 519.031 347.392 520.142 347.4Z" stroke="#A6BCB1" stroke-width="1.8" stroke-linecap="round" stroke-linejoin="round"/>
<path d="M554.842 321.3H575.642C576.037 321.29 576.413 321.129 576.692 320.85C576.971 320.57 577.132 320.195 577.142 319.8C577.132 319.405 576.971 319.03 576.692 318.751C576.413 318.471 576.037 318.31 575.642 318.3H554.842C554.448 318.31 554.072 318.471 553.793 318.751C553.514 319.03 553.352 319.405 553.342 319.8C553.352 320.195 553.514 320.57 553.793 320.85C554.072 321.129 554.448 321.29 554.842 321.3Z" fill="#B8D8C7"/>
<path d="M56.9423 379.8H147.142C148.254 379.792 149.317 379.347 150.103 378.561C150.889 377.775 151.334 376.711 151.342 375.6V348.2C151.334 347.088 150.889 346.025 150.103 345.239C149.317 344.453 148.254 344.008 147.142 344H56.9423C55.8308 344.008 54.7671 344.453 53.9811 345.239C53.1952 346.025 52.7501 347.088 52.7423 348.2V375.6C52.7501 376.711 53.1952 377.775 53.9811 378.561C54.7671 379.347 55.8308 379.792 56.9423 379.8Z" stroke="#A6BCB1" stroke-width="1.8" stroke-linecap="round" stroke-linejoin="round"/>
<path d="M91.7423 353.6H112.542C112.937 353.59 113.313 353.429 113.592 353.15C113.871 352.87 114.032 352.495 114.042 352.1C114.032 351.705 113.871 351.33 113.592 351.051C113.313 350.771 112.937 350.61 112.542 350.6H91.7423C91.3477 350.61 90.972 350.771 90.6929 351.051C90.4137 351.33 90.2524 351.705 90.2423 352.1C90.2307 352.3 90.2615 352.5 90.3328 352.688C90.404 352.875 90.5142 353.045 90.6558 353.187C90.7975 353.328 90.9675 353.438 91.1548 353.51C91.3421 353.581 91.5423 353.612 91.7423 353.6Z" fill="#B8D8C7"/>
<path d="M172.742 379.8H262.942C264.054 379.792 265.118 379.347 265.903 378.561C266.689 377.775 267.134 376.711 267.142 375.6V348.2C267.134 347.088 266.689 346.025 265.903 345.239C265.118 344.453 264.054 344.008 262.942 344H172.742C171.631 344.008 170.567 344.453 169.781 345.239C168.995 346.025 168.55 347.088 168.542 348.2V375.6C168.55 376.711 168.995 377.775 169.781 378.561C170.567 379.347 171.631 379.792 172.742 379.8Z" stroke="#A6BCB1" stroke-width="1.8" stroke-linecap="round" stroke-linejoin="round"/>
<path d="M207.542 353.6H228.342C228.737 353.59 229.113 353.429 229.392 353.15C229.671 352.87 229.832 352.495 229.842 352.1C229.832 351.705 229.671 351.33 229.392 351.051C229.113 350.771 228.737 350.61 228.342 350.6H207.542C207.148 350.61 206.772 350.771 206.493 351.051C206.214 351.33 206.052 351.705 206.042 352.1C206.031 352.3 206.062 352.5 206.133 352.688C206.204 352.875 206.314 353.045 206.456 353.187C206.597 353.328 206.768 353.438 206.955 353.51C207.142 353.581 207.342 353.612 207.542 353.6Z" fill="#B8D8C7"/>
<path d="M635.142 301.6H725.342C726.454 301.592 727.518 301.147 728.303 300.361C729.089 299.575 729.534 298.511 729.542 297.4V269.9C729.534 268.788 729.089 267.725 728.303 266.939C727.518 266.153 726.454 265.708 725.342 265.7H635.142C634.031 265.708 632.967 266.153 632.181 266.939C631.395 267.725 630.95 268.788 630.942 269.9V297.3C630.936 297.858 631.039 298.412 631.247 298.93C631.454 299.448 631.762 299.921 632.152 300.32C632.542 300.719 633.007 301.038 633.52 301.257C634.033 301.477 634.584 301.593 635.142 301.6Z" stroke="#A6BCB1" stroke-width="1.8" stroke-linecap="round" stroke-linejoin="round"/>
<path d="M669.842 275.5H690.642C691.037 275.49 691.413 275.329 691.692 275.049C691.971 274.77 692.132 274.395 692.142 274C692.132 273.605 691.971 273.23 691.692 272.951C691.413 272.671 691.037 272.51 690.642 272.5H669.842C669.448 272.51 669.072 272.671 668.793 272.951C668.514 273.23 668.352 273.605 668.342 274C668.352 274.395 668.514 274.77 668.793 275.049C669.072 275.329 669.448 275.49 669.842 275.5Z" fill="#B8D8C7"/>
<path d="M635.142 347.4H725.342C726.454 347.392 727.518 346.947 728.303 346.161C729.089 345.375 729.534 344.312 729.542 343.2V315.8C729.534 314.689 729.089 313.625 728.303 312.839C727.518 312.053 726.454 311.608 725.342 311.6H635.142C634.031 311.608 632.967 312.053 632.181 312.839C631.395 313.625 630.95 314.689 630.942 315.8V343.2C630.95 344.312 631.395 345.375 632.181 346.161C632.967 346.947 634.031 347.392 635.142 347.4Z" stroke="#A6BCB1" stroke-width="1.8" stroke-linecap="round" stroke-linejoin="round"/>
<path d="M669.842 321.3H690.642C691.037 321.29 691.413 321.129 691.692 320.85C691.971 320.57 692.132 320.195 692.142 319.8C692.132 319.405 691.971 319.03 691.692 318.751C691.413 318.471 691.037 318.31 690.642 318.3H669.842C669.448 318.31 669.072 318.471 668.793 318.751C668.514 319.03 668.352 319.405 668.342 319.8C668.352 320.195 668.514 320.57 668.793 320.85C669.072 321.129 669.448 321.29 669.842 321.3Z" fill="#B8D8C7"/>
<path d="M-74.3577 232.2H380.642C381.858 232.187 383.021 231.698 383.881 230.838C384.74 229.979 385.229 228.816 385.242 227.6V147.9C385.229 146.684 384.74 145.522 383.881 144.662C383.021 143.802 381.858 143.313 380.642 143.3H-74.3577C-75.5737 143.313 -76.7362 143.802 -77.596 144.662C-78.4559 145.522 -78.9447 146.684 -78.9577 147.9V227.6C-78.959 228.205 -78.841 228.803 -78.6103 229.362C-78.3796 229.921 -78.0408 230.428 -77.6134 230.856C-77.1859 231.283 -76.6783 231.622 -76.1196 231.853C-75.5609 232.083 -74.9622 232.201 -74.3577 232.2Z" stroke="#A6BCB1" stroke-width="1.8" stroke-linecap="round" stroke-linejoin="round"/>
<path d="M-74.3577 331.2H380.642C381.858 331.187 383.021 330.698 383.881 329.838C384.74 328.979 385.229 327.816 385.242 326.6V246.9C385.229 245.684 384.74 244.522 383.881 243.662C383.021 242.802 381.858 242.313 380.642 242.3H-74.3577C-75.5737 242.313 -76.7362 242.802 -77.596 243.662C-78.4559 244.522 -78.9447 245.684 -78.9577 246.9V326.6C-78.9447 327.816 -78.4559 328.979 -77.596 329.838C-76.7362 330.698 -75.5737 331.187 -74.3577 331.2Z" stroke="#A6BCB1" stroke-width="1.8" stroke-linecap="round" stroke-linejoin="round"/>
<path d="M354.672 181.99H344.772V232.29H354.672V181.99Z" stroke="#A6BCB1" stroke-width="1.8" stroke-linecap="round" stroke-linejoin="round"/>
<path d="M344.732 195.6H334.432V232.2H344.732V195.6Z" stroke="#A6BCB1" stroke-width="1.8" stroke-linecap="round" stroke-linejoin="round"/>
<path d="M56.2923 280.73H46.3923V331.03H56.2923V280.73Z" stroke="#A6BCB1" stroke-width="1.8" stroke-linecap="round" stroke-linejoin="round"/>
<path d="M46.3523 294.44H36.0523V331.04H46.3523V294.44Z" stroke="#A6BCB1" stroke-width="1.8" stroke-linecap="round" stroke-linejoin="round"/>
<path d="M76.3823 280.73H66.4823V331.03H76.3823V280.73Z" stroke="#A6BCB1" stroke-width="1.8" stroke-linecap="round" stroke-linejoin="round"/>
<path d="M85.6604 279.692L76.2197 282.672L91.3619 330.639L100.803 327.659L85.6604 279.692Z" stroke="#A6BCB1" stroke-width="1.8" stroke-linecap="round" stroke-linejoin="round"/>
<path d="M66.5423 294.44H56.2423V331.04H66.5423V294.44Z" stroke="#A6BCB1" stroke-width="1.8" stroke-linecap="round" stroke-linejoin="round"/>
<path d="M265.442 188.5L264.342 173.6C264.321 173.367 264.349 173.132 264.426 172.91C264.502 172.689 264.625 172.486 264.786 172.316C264.947 172.146 265.142 172.012 265.358 171.923C265.575 171.834 265.808 171.792 266.042 171.8H274.642C274.874 171.801 275.103 171.849 275.315 171.941C275.527 172.033 275.719 172.168 275.878 172.336C276.037 172.504 276.16 172.703 276.24 172.92C276.32 173.138 276.354 173.369 276.342 173.6L275.242 188.5C275.242 188.5 284.242 194.3 284.142 199.1C284.042 202.8 281.842 220.5 280.842 228.3C280.715 229.35 280.207 230.317 279.414 231.017C278.622 231.718 277.6 232.103 276.542 232.1H264.142C263.085 232.103 262.063 231.718 261.27 231.017C260.478 230.317 259.97 229.35 259.842 228.3C258.842 220.5 256.642 202.8 256.542 199.1C256.442 194.3 265.442 188.5 265.442 188.5Z" fill="#B8D8C7"/>
<path d="M221.242 188.5L220.142 173.6C220.121 173.367 220.149 173.132 220.226 172.91C220.302 172.689 220.425 172.486 220.586 172.316C220.747 172.146 220.942 172.012 221.158 171.923C221.375 171.834 221.608 171.792 221.842 171.8H230.442C230.674 171.801 230.903 171.849 231.115 171.941C231.327 172.033 231.519 172.168 231.678 172.336C231.837 172.504 231.96 172.703 232.04 172.92C232.12 173.138 232.154 173.369 232.142 173.6L231.042 188.5C231.042 188.5 240.042 194.3 239.942 199.1C239.842 202.8 237.642 220.5 236.642 228.3C236.515 229.35 236.007 230.317 235.214 231.017C234.422 231.718 233.4 232.103 232.342 232.1H219.942C218.885 232.103 217.863 231.718 217.07 231.017C216.278 230.317 215.77 229.35 215.642 228.3C214.642 220.5 212.442 202.8 212.342 199.1C212.242 194.3 221.242 188.5 221.242 188.5Z" fill="#B8D8C7"/>
<path d="M662.742 425.6H-270.158" stroke="#A6BCB1" stroke-width="1.8" stroke-linecap="round" stroke-linejoin="round"/>
</g>
<path d="M249.442 331.2H166.242C164.944 331.197 163.699 330.68 162.78 329.762C161.862 328.844 161.345 327.599 161.342 326.3V313.2C161.345 311.901 161.862 310.657 162.78 309.738C163.699 308.82 164.944 308.303 166.242 308.3H249.442C250.741 308.303 251.986 308.82 252.904 309.738C253.823 310.657 254.34 311.901 254.342 313.2V326.3C254.34 327.599 253.823 328.844 252.904 329.762C251.986 330.68 250.741 331.197 249.442 331.2Z" stroke="#B8D8C7" stroke-width="1.8" stroke-linecap="round" stroke-linejoin="round"/>
<path d="M237.742 287.2H177.742V308.2H237.742V287.2Z" stroke="#B8D8C7" stroke-width="1.8" stroke-linecap="round" stroke-linejoin="round"/>
<path d="M170.742 317.4C171.571 317.4 172.242 316.728 172.242 315.9C172.242 315.072 171.571 314.4 170.742 314.4C169.914 314.4 169.242 315.072 169.242 315.9C169.242 316.728 169.914 317.4 170.742 317.4Z" fill="#B8D8C7"/>
<path d="M259.842 308.7L302.042 293C302.831 292.694 303.509 292.159 303.99 291.464C304.472 290.769 304.734 289.946 304.742 289.1L220.942 283.1L233.842 306.3L255.642 309.2C257.062 309.387 258.506 309.215 259.842 308.7Z" fill="#63737A"/>
<path d="M153.642 293.4L146.042 234.1C145.995 233.712 146.033 233.318 146.154 232.946C146.276 232.574 146.477 232.234 146.743 231.948C147.01 231.662 147.336 231.438 147.699 231.291C148.062 231.145 148.452 231.08 148.842 231.1L250.242 238.3C250.969 238.347 251.655 238.657 252.17 239.172C252.685 239.688 252.995 240.373 253.042 241.1L259.042 306.4C259.082 306.799 259.031 307.203 258.893 307.58C258.754 307.956 258.533 308.297 258.244 308.576C257.956 308.855 257.608 309.065 257.226 309.191C256.845 309.316 256.44 309.353 256.042 309.3L156.242 296.1C155.579 295.983 154.969 295.659 154.502 295.174C154.035 294.689 153.734 294.067 153.642 293.4Z" fill="#22272E"/>
<path d="M304.742 289.2C304.748 290.049 304.491 290.878 304.008 291.576C303.525 292.274 302.839 292.806 302.042 293.1L259.842 308.8C258.795 309.216 257.666 309.387 256.542 309.3C255.484 308.444 254.601 307.391 253.942 306.2L304.742 289.2Z" fill="#22272E"/>
<path d="M202.082 273.739C204.748 271.771 205.047 267.654 202.751 264.544C200.454 261.434 196.432 260.508 193.766 262.477C191.1 264.445 190.801 268.562 193.097 271.672C195.393 274.782 199.416 275.708 202.082 273.739Z" fill="#63737A"/>
<path d="M436.842 25H406.242L403.142 27C402.914 27.1482 402.649 27.2309 402.377 27.2393C402.105 27.2476 401.835 27.1811 401.598 27.0471C401.361 26.9131 401.165 26.7167 401.032 26.4792C400.899 26.2417 400.833 25.9722 400.842 25.7V4C400.842 2.93913 401.264 1.92172 402.014 1.17158C402.764 0.421432 403.781 0 404.842 0H436.942C438.003 0 439.021 0.421432 439.771 1.17158C440.521 1.92172 440.942 2.93913 440.942 4V20.9C440.922 21.981 440.483 23.012 439.719 23.7765C438.954 24.541 437.923 24.9795 436.842 25Z" fill="white"/>
<path d="M420.442 10H431.142" stroke="#22272E" stroke-width="1.8" stroke-linecap="round" stroke-linejoin="round"/>
<path d="M420.442 15.5H426.942" stroke="#22272E" stroke-width="1.8" stroke-linecap="round" stroke-linejoin="round"/>
<path d="M414.942 10H409.442V15.5H414.942V10Z" stroke="#22272E" stroke-width="1.8" stroke-linecap="round" stroke-linejoin="round"/>
<path d="M254.042 186.9L85.0423 212.5C84.1499 212.638 83.2386 212.589 82.3662 212.356C81.4938 212.123 80.6792 211.712 79.9741 211.148C79.2691 210.584 78.6888 209.879 78.2702 209.079C77.8516 208.279 77.6037 207.401 77.5423 206.5L67.4423 54.3C67.3725 53.3102 67.5161 52.3171 67.8633 51.3876C68.2105 50.4582 68.7533 49.6141 69.4549 48.9126C70.1564 48.211 71.0005 47.6682 71.9299 47.321C72.8594 46.9738 73.8525 46.8302 74.8423 46.9L244.142 57.7C245.695 57.7974 247.161 58.4449 248.279 59.5262C249.397 60.6075 250.093 62.0518 250.242 63.6L259.942 179.5C260.05 181.245 259.506 182.968 258.416 184.335C257.326 185.702 255.767 186.616 254.042 186.9Z" fill="#63737A"/>
<path d="M258.642 186.7L88.8423 212.4C87.9499 212.538 87.0386 212.489 86.1662 212.256C85.2938 212.023 84.4792 211.612 83.7741 211.048C83.0691 210.484 82.4888 209.779 82.0702 208.979C81.6516 208.179 81.4037 207.301 81.3423 206.4L71.1423 53.5C71.0676 52.496 71.2104 51.4876 71.5609 50.5438C71.9113 49.6 72.4613 48.7429 73.1732 48.031C73.8852 47.319 74.7423 46.7691 75.6861 46.4186C76.6299 46.0681 77.6382 45.9253 78.6423 46L248.642 56.8C250.209 56.9026 251.688 57.565 252.807 58.6663C253.927 59.7677 254.614 61.2347 254.742 62.8L264.542 179.2C264.738 180.974 264.229 182.754 263.126 184.156C262.022 185.559 260.412 186.472 258.642 186.7Z" fill="#22272E"/>
<path d="M147.942 134.3L100.142 136.9C99.4147 136.933 98.7032 136.679 98.1608 136.193C97.6185 135.707 97.2887 135.027 97.2423 134.3L94.4423 93.9C94.4206 93.5172 94.4768 93.1339 94.6072 92.7733C94.7377 92.4128 94.9399 92.0823 95.2015 91.802C95.4632 91.5217 95.7789 91.2972 96.1296 91.1422C96.4803 90.9872 96.8589 90.9048 97.2423 90.9L145.042 91.2C145.754 91.1885 146.443 91.4526 146.965 91.9371C147.487 92.4217 147.801 93.0891 147.842 93.8L150.642 131.3C150.667 131.675 150.616 132.052 150.492 132.407C150.369 132.762 150.176 133.089 149.924 133.369C149.673 133.648 149.368 133.875 149.027 134.035C148.687 134.195 148.318 134.285 147.942 134.3Z" fill="#6DAFA7"/>
<path d="M199.342 118.7L159.342 120.1C158.615 120.133 157.903 119.879 157.361 119.393C156.819 118.906 156.489 118.227 156.442 117.5L154.742 94.2C154.721 93.8171 154.777 93.4338 154.907 93.0733C155.038 92.7127 155.24 92.3823 155.502 92.1019C155.763 91.8216 156.079 91.5972 156.43 91.4422C156.78 91.2871 157.159 91.2047 157.542 91.2L197.542 91.5C198.245 91.5204 198.916 91.7954 199.431 92.2736C199.946 92.7519 200.27 93.4009 200.342 94.0999L202.042 115.7C202.075 116.077 202.03 116.457 201.91 116.816C201.79 117.175 201.597 117.505 201.344 117.787C201.091 118.068 200.783 118.294 200.438 118.451C200.094 118.609 199.721 118.693 199.342 118.7Z" fill="#7DE8FF"/>
<path d="M244.642 117.2L210.942 118.4C210.215 118.433 209.503 118.179 208.961 117.693C208.419 117.206 208.089 116.527 208.042 115.8L206.342 94.7C206.321 94.3171 206.377 93.9338 206.507 93.5733C206.638 93.2127 206.84 92.8823 207.102 92.6019C207.363 92.3216 207.679 92.0972 208.03 91.9422C208.38 91.7871 208.759 91.7047 209.142 91.7L242.842 91.8999C243.545 91.9204 244.216 92.1954 244.731 92.6736C245.246 93.1519 245.57 93.8009 245.642 94.5L247.242 114.2C247.279 114.57 247.241 114.943 247.128 115.298C247.016 115.652 246.832 115.98 246.589 116.26C246.346 116.541 246.047 116.769 245.713 116.931C245.378 117.093 245.014 117.184 244.642 117.2Z" fill="white"/>
<path d="M150.942 173.5L103.142 178.7C102.766 178.746 102.384 178.714 102.02 178.606C101.656 178.498 101.319 178.316 101.028 178.073C100.738 177.829 100.5 177.528 100.331 177.189C100.161 176.849 100.063 176.479 100.042 176.1L98.2423 150C98.2056 149.261 98.4555 148.537 98.9399 147.978C99.4244 147.419 100.106 147.069 100.842 147L148.742 143.8C149.11 143.773 149.48 143.819 149.83 143.935C150.18 144.051 150.504 144.235 150.783 144.476C151.061 144.718 151.29 145.012 151.454 145.342C151.619 145.673 151.717 146.032 151.742 146.4L153.542 170.5C153.549 171.231 153.288 171.939 152.809 172.492C152.331 173.044 151.667 173.403 150.942 173.5Z" stroke="#63737A" stroke-width="1.8" stroke-linecap="round" stroke-linejoin="round"/>
<path d="M203.842 172.5L163.942 177.2C163.566 177.246 163.184 177.214 162.82 177.106C162.456 176.998 162.119 176.816 161.828 176.573C161.538 176.329 161.3 176.028 161.13 175.689C160.961 175.349 160.863 174.979 160.842 174.6L157.642 131.5C157.59 130.758 157.834 130.025 158.322 129.462C158.809 128.9 159.5 128.554 160.242 128.5L200.242 126.6C200.97 126.567 201.681 126.821 202.224 127.307C202.766 127.793 203.096 128.473 203.142 129.2L206.342 169.5C206.386 170.224 206.151 170.938 205.687 171.495C205.222 172.053 204.563 172.412 203.842 172.5Z" fill="white"/>
<path d="M195.542 134.1L166.842 135.8C166.68 135.799 166.519 135.834 166.372 135.902C166.224 135.97 166.093 136.069 165.989 136.193C165.884 136.317 165.807 136.463 165.765 136.619C165.722 136.776 165.715 136.94 165.742 137.1L167.042 154.9C167.049 155.06 167.089 155.216 167.16 155.36C167.23 155.504 167.33 155.631 167.452 155.734C167.574 155.838 167.716 155.914 167.869 155.96C168.023 156.006 168.184 156.02 168.342 156L197.042 153.5C197.202 153.493 197.359 153.453 197.502 153.382C197.646 153.312 197.773 153.213 197.876 153.091C197.98 152.968 198.057 152.826 198.102 152.673C198.148 152.52 198.162 152.359 198.142 152.2L196.842 135.2C196.78 134.898 196.618 134.625 196.382 134.426C196.147 134.226 195.851 134.112 195.542 134.1Z" fill="#6DAFA7"/>
<path d="M248.642 162.6L214.942 166.3C214.566 166.346 214.184 166.314 213.82 166.206C213.456 166.098 213.119 165.916 212.828 165.673C212.538 165.429 212.3 165.128 212.13 164.789C211.961 164.449 211.863 164.079 211.842 163.7L209.142 129C209.09 128.258 209.334 127.525 209.822 126.962C210.309 126.4 211 126.054 211.742 126L245.442 124.4C246.17 124.367 246.881 124.621 247.424 125.107C247.966 125.594 248.296 126.273 248.342 127L251.042 159.6C251.084 159.955 251.055 160.315 250.956 160.658C250.858 161.002 250.692 161.322 250.469 161.601C250.246 161.881 249.969 162.112 249.656 162.284C249.342 162.455 248.998 162.563 248.642 162.6Z" fill="#7DE8FF"/>
<path d="M126.542 157L127.142 164.4" stroke="#63737A" stroke-width="1.8" stroke-linecap="round" stroke-linejoin="round"/>
<path d="M123.342 161L130.342 160.4" stroke="#63737A" stroke-width="1.8" stroke-linecap="round" stroke-linejoin="round"/>
<path d="M174.442 165.2C174.242 163.2 172.742 161.6 170.942 161.8C170.008 161.96 169.172 162.477 168.612 163.242C168.052 164.008 167.812 164.961 167.942 165.9C167.95 166.361 168.05 166.816 168.236 167.239C168.422 167.661 168.691 168.042 169.026 168.358C169.362 168.675 169.757 168.922 170.189 169.083C170.621 169.245 171.081 169.319 171.542 169.3C172.433 169.071 173.214 168.533 173.745 167.782C174.276 167.031 174.523 166.116 174.442 165.2Z" fill="#282828"/>
<path d="M180.242 164.6L198.942 162.7" stroke="#282828" stroke-width="1.8" stroke-linecap="round" stroke-linejoin="round"/>
<path d="M221.842 135.4C221.828 134.563 221.502 133.762 220.929 133.152C220.356 132.542 219.577 132.167 218.742 132.1C217.142 132.2 216.042 133.8 216.142 135.7C216.242 137.6 217.642 139.1 219.242 139C220.842 138.9 222.042 137.3 221.842 135.4Z" fill="#6DAFA7"/>
<path d="M226.942 135.1L243.042 134.1" stroke="#282828" stroke-width="1.8" stroke-linecap="round" stroke-linejoin="round"/>
<path d="M222.742 146.1C222.542 144.2 221.242 142.8 219.642 142.9C218.042 143 216.942 144.7 217.042 146.6C217.142 148.5 218.642 150 220.142 149.8C220.974 149.646 221.712 149.173 222.198 148.481C222.684 147.789 222.879 146.934 222.742 146.1Z" fill="#6DAFA7"/>
<path d="M227.742 145.7L243.942 144.4" stroke="#282828" stroke-width="1.8" stroke-linecap="round" stroke-linejoin="round"/>
<path d="M223.642 156.8C223.442 154.9 222.142 153.5 220.542 153.6C218.942 153.7 217.842 155.4 217.942 157.3C218.042 159.2 219.542 160.6 221.042 160.5C221.864 160.328 222.59 159.85 223.073 159.163C223.555 158.476 223.759 157.631 223.642 156.8Z" fill="#6DAFA7"/>
<path d="M228.642 156.3L244.742 154.7" stroke="#282828" stroke-width="1.8" stroke-linecap="round" stroke-linejoin="round"/>
<path d="M111.142 107.1L104.642 107.2C104.346 107.184 104.064 107.066 103.845 106.865C103.626 106.665 103.484 106.394 103.442 106.1L102.942 99.3001C102.937 99.141 102.964 98.9825 103.022 98.8343C103.081 98.6862 103.169 98.5517 103.281 98.4391C103.394 98.3266 103.528 98.2384 103.677 98.18C103.825 98.1217 103.983 98.0945 104.142 98.1001H110.642C110.939 98.1157 111.221 98.2341 111.44 98.4347C111.659 98.6354 111.801 98.906 111.842 99.2001L112.342 105.9C112.305 106.205 112.166 106.489 111.949 106.706C111.731 106.924 111.447 107.062 111.142 107.1Z" fill="#7DE8FF"/>
<path d="M118.142 98.1L140.642 98" stroke="#282828" stroke-width="1.8" stroke-linecap="round" stroke-linejoin="round"/>
<path d="M118.542 103.9L141.042 103.7" stroke="#282828" stroke-width="1.8" stroke-linecap="round" stroke-linejoin="round"/>
<path d="M219.042 105.5L213.942 105.6C213.781 105.577 213.629 105.508 213.505 105.402C213.381 105.295 213.29 105.156 213.242 105L212.742 98.5C212.74 98.4073 212.756 98.3151 212.79 98.2289C212.824 98.1427 212.876 98.0644 212.941 97.9989C213.007 97.9333 213.085 97.8818 213.171 97.8476C213.257 97.8134 213.35 97.7972 213.442 97.8H218.542C218.704 97.8232 218.856 97.892 218.979 97.9983C219.103 98.1045 219.195 98.2439 219.242 98.4L219.742 104.8C219.731 104.982 219.653 105.153 219.524 105.282C219.395 105.411 219.224 105.488 219.042 105.5Z" fill="#282828"/>
<path d="M223.842 97.7H240.542" stroke="#282828" stroke-width="1.8" stroke-linecap="round" stroke-linejoin="round"/>
<path d="M224.342 102.8L240.942 102.6" stroke="#282828" stroke-width="1.8" stroke-linecap="round" stroke-linejoin="round"/>
<path d="M213.742 111.1L241.542 110.4" stroke="#282828" stroke-width="1.8" stroke-linecap="round" stroke-linejoin="round"/>
<path d="M112.242 122.6L105.742 122.8C105.441 122.801 105.15 122.688 104.927 122.485C104.705 122.281 104.567 122.001 104.542 121.7L104.042 114.9C104.033 114.748 104.054 114.596 104.105 114.453C104.155 114.31 104.234 114.178 104.337 114.066C104.44 113.954 104.564 113.864 104.702 113.801C104.841 113.738 104.99 113.704 105.142 113.7L111.642 113.5C111.939 113.516 112.221 113.634 112.44 113.835C112.659 114.035 112.801 114.306 112.842 114.6L113.342 121.3C113.362 121.617 113.259 121.929 113.054 122.171C112.849 122.413 112.558 122.567 112.242 122.6Z" fill="#7DE8FF"/>
<path d="M119.242 113.4L141.742 112.8" stroke="#282828" stroke-width="1.8" stroke-linecap="round" stroke-linejoin="round"/>
<path d="M119.642 119.3L142.142 118.6" stroke="#282828" stroke-width="1.8" stroke-linecap="round" stroke-linejoin="round"/>
<path d="M128.642 74.2L94.9423 73.2C94.4065 73.1866 93.8948 72.9745 93.5067 72.6048C93.1186 72.2352 92.8818 71.7345 92.8423 71.2L92.4423 65.9C92.4181 65.6004 92.4576 65.299 92.5582 65.0157C92.6589 64.7324 92.8183 64.4736 93.0261 64.2563C93.2339 64.0391 93.4854 63.8683 93.764 63.7552C94.0425 63.642 94.3418 63.5892 94.6423 63.6L128.342 65C128.878 65.0135 129.39 65.2256 129.778 65.5952C130.166 65.9648 130.403 66.4655 130.442 67L130.842 71.9C130.859 72.1979 130.814 72.496 130.71 72.7759C130.607 73.0558 130.447 73.3114 130.241 73.527C130.035 73.7426 129.786 73.9136 129.511 74.0294C129.236 74.1451 128.941 74.2032 128.642 74.2Z" fill="#6DAFA7"/>
<path d="M162.742 97.9001L194.542 97.8" stroke="#282828" stroke-width="1.8" stroke-linecap="round" stroke-linejoin="round"/>
<path d="M163.142 103.5L194.942 103.1" stroke="#282828" stroke-width="1.8" stroke-linecap="round" stroke-linejoin="round"/>
<path d="M163.742 112.3L180.842 111.9" stroke="#282828" stroke-width="1.8" stroke-linecap="round" stroke-linejoin="round"/>
<path d="M243.642 73.7001C243.629 73.0012 243.372 72.3289 242.915 71.7994C242.459 71.2699 241.832 70.9165 241.142 70.8001C239.942 70.7001 238.942 72.0001 239.142 73.5001C239.125 74.2076 239.371 74.8964 239.833 75.4324C240.295 75.9685 240.94 76.3134 241.642 76.4001C242.842 76.5001 243.742 75.2001 243.642 73.7001Z" fill="#63737A"/>
<path d="M234.742 73.4C234.741 72.6977 234.488 72.0192 234.029 71.4873C233.571 70.9553 232.937 70.6051 232.242 70.5C230.942 70.4 230.042 71.7 230.142 73.3C230.145 74.018 230.411 74.71 230.891 75.2446C231.37 75.7792 232.029 76.1192 232.742 76.2C233.942 76.2 234.842 74.9 234.742 73.4Z" fill="#63737A"/>
<path d="M225.542 73C225.523 72.2765 225.253 71.5821 224.779 71.0351C224.305 70.4881 223.656 70.1223 222.942 70C221.642 69.9 220.642 71.2 220.742 72.8C220.762 73.5236 221.032 74.218 221.506 74.765C221.98 75.3119 222.629 75.6777 223.342 75.8C224.742 75.9 225.642 74.6 225.542 73Z" fill="#63737A"/>
<path d="M285.642 80L241.242 79.2C240.374 79.2015 239.538 78.8709 238.906 78.2759C238.274 77.6809 237.893 76.8666 237.842 76L233.842 27.1C233.817 26.7127 233.875 26.3245 234.012 25.9613C234.149 25.5982 234.362 25.2684 234.636 24.9939C234.911 24.7195 235.24 24.5067 235.604 24.3698C235.967 24.2329 236.355 24.175 236.742 24.2L281.342 28.9C282.155 28.977 282.914 29.3415 283.483 29.9281C284.051 30.5147 284.391 31.2849 284.442 32.1L288.342 77C288.374 77.3768 288.328 77.7561 288.207 78.1144C288.087 78.4728 287.894 78.8026 287.641 79.0837C287.388 79.3647 287.08 79.591 286.736 79.7486C286.393 79.9062 286.02 79.9918 285.642 80Z" fill="#7DE8FF"/>
<path d="M253.242 33.3L276.742 35.5001" stroke="#63737A" stroke-width="1.8" stroke-linecap="round" stroke-linejoin="round"/>
<path d="M253.642 38.1001L277.142 40.1001" stroke="#63737A" stroke-width="1.8" stroke-linecap="round" stroke-linejoin="round"/>
<path d="M254.542 49.1001L278.142 50.7001" stroke="#63737A" stroke-width="1.8" stroke-linecap="round" stroke-linejoin="round"/>
<path d="M254.942 53.8L278.442 55.2001" stroke="#63737A" stroke-width="1.8" stroke-linecap="round" stroke-linejoin="round"/>
<path d="M255.942 64.9L279.442 65.9" stroke="#63737A" stroke-width="1.8" stroke-linecap="round" stroke-linejoin="round"/>
<path d="M256.342 69.6001L279.842 70.4001" stroke="#63737A" stroke-width="1.8" stroke-linecap="round" stroke-linejoin="round"/>
<path d="M245.142 36L246.342 37.5L248.042 35.2" stroke="#6DAFA7" stroke-width="1.8" stroke-linecap="round" stroke-linejoin="round"/>
<path d="M246.442 52.0001L247.642 53.4001L249.442 51.1001" stroke="#6DAFA7" stroke-width="1.8" stroke-linecap="round" stroke-linejoin="round"/>
<path d="M247.742 67.7L249.042 69.0999L250.742 66.7" stroke="#6DAFA7" stroke-width="1.8" stroke-linecap="round" stroke-linejoin="round"/>
<path d="M305.342 157.1C305.342 157.1 299.142 170 298.642 178.2C298.142 186.4 306.842 219.3 321.042 244.4C321.042 244.4 334.442 240 334.442 235.9C334.442 231.8 326.542 183.3 327.042 181.9C327.542 180.5 333.042 170.2 333.042 165.8C333.042 161.4 307.442 152.3 305.342 157.1Z" fill="#F4C2C9"/>
<path d="M333.042 165.8C333.042 161.4 307.542 152.3 305.442 157.1C305.442 157.1 304.642 158.9 303.542 161.5C311.642 167.8 320.342 173.2 330.242 175C331.642 171.8 333.042 168 333.042 165.8Z" fill="#E26E85"/>
<path d="M331.942 102.3C331.942 102.3 321.942 105.7 314.342 122.9C306.742 140.1 298.642 154.5 298.642 154.5C298.642 154.5 311.142 166.9 327.142 173.2C343.142 179.7 343.742 103.9 331.942 102.3Z" fill="white"/>
<path d="M301.442 149.4C301.442 149.4 318.542 163.4 334.442 169.5" stroke="#282828" stroke-width="1.8" stroke-linecap="round" stroke-linejoin="round"/>
<path d="M365.342 475.3C365.342 475.3 364.442 496.3 364.642 498.3C364.842 500.3 357.642 504.6 348.742 504.3C339.842 504 339.042 501.4 339.042 501.4C339.042 501.4 337.042 478.7 336.842 475.5C336.642 472.3 363.542 471 365.342 475.3Z" fill="#F4C2C9"/>
<path d="M364.842 487.4C365.042 481.4 365.342 475.3 365.342 475.3C363.542 471 336.642 472.3 336.842 475.5C336.942 477 337.442 482.6 337.842 488.2C345.742 492.1 356.142 491.1 364.842 487.4Z" fill="#22272E"/>
<path d="M364.642 497.7C364.642 497.7 365.442 503.6 365.742 510C366.042 516.4 367.042 528.1 365.942 530.1C364.842 532.1 358.742 533.8 344.442 534.9C330.142 536 316.942 535 314.642 533.2C312.342 531.4 313.042 528.7 315.242 526.6C317.442 524.5 326.142 515.2 329.742 511.4C334.442 506.4 337.842 501.3 337.842 500.7C338.142 498.3 338.642 498.3 338.642 498.3C338.642 498.3 339.242 499.8 340.042 499.7C340.842 499.6 341.942 495.1 346.742 496.2C351.542 497.3 353.542 500.6 355.342 500.6C357.142 500.6 362.042 499.9 364.642 497.7Z" fill="#22272E"/>
<path d="M402.842 479.5C402.842 479.5 405.542 501.1 406.042 502.4C406.542 503.7 411.542 507.3 419.342 506.9C427.142 506.5 430.142 504.2 430.442 503.7C430.742 503.2 430.242 478.5 430.042 476.9C429.842 475.3 404.642 475.7 402.842 479.5Z" fill="#F4C2C9"/>
<path d="M430.342 488C430.242 482.5 430.042 477.4 429.942 476.7C429.642 475.1 404.642 475.6 402.742 479.4C402.742 479.4 403.342 484.2 404.042 489.4C412.763 491.455 421.889 490.969 430.342 488Z" fill="#22272E"/>
<path d="M405.642 500.5C405.426 502.057 405.359 503.631 405.442 505.2C405.542 506.5 405.642 508.3 405.642 510.5C405.742 515.1 406.142 531 407.242 533.3C408.342 535.6 420.942 537.5 430.442 537.6C439.942 537.7 446.942 535.2 448.042 532.6C449.142 530 448.542 526.2 445.242 522C441.942 517.8 434.342 511.3 433.442 508.2C432.7 505.554 431.73 502.978 430.542 500.5C429.856 501.463 428.924 502.222 427.842 502.7C426.542 503.1 424.642 497.7 420.542 497.5C416.442 497.3 414.642 498.9 412.042 502.7C409.705 502.817 407.413 502.029 405.642 500.5Z" fill="#22272E"/>
<path d="M317.942 218.7C316.223 227.152 315.021 235.701 314.342 244.3C313.142 259 317.342 350.1 317.942 357.2C318.542 364.3 320.842 404.8 323.442 424.5C325.542 440.7 324.042 473.4 328.942 478C333.842 482.6 348.842 485.1 358.142 482.6C367.442 480.1 371.742 475.5 372.842 471.7C373.942 467.9 369.542 439 369.842 424.3C370.142 409.6 369.842 366.2 369.342 355.9C369.342 355.9 373.442 303.3 378.342 291.3C383.242 279.3 390.342 235.1 376.742 222.3C362.942 209.5 319.142 216.6 317.942 218.7Z" fill="#22272E"/>
<path d="M339.842 224.5C339.842 224.5 339.742 244.3 340.542 259.1C340.687 263.599 341.189 268.08 342.042 272.5C344.542 282.9 349.942 283.7 354.042 286.1C358.142 288.5 372.842 347.4 378.842 362.7C378.842 362.7 383.442 397.9 387.042 418.9C390.642 439.9 390.042 465.3 392.742 474C395.442 482.7 411.242 484.4 418.942 483.7C426.642 483 436.942 480 436.642 471C436.342 462 434.842 436.4 433.542 414.6C432.242 392.8 429.742 360.3 429.142 352.7C429.142 352.7 426.142 316.7 424.542 298.2C422.942 279.7 423.842 260.8 421.442 228.9C418.842 196.9 339.742 206.7 339.842 224.5Z" fill="#22272E"/>
<path d="M340.542 259.1C340.687 263.599 341.189 268.08 342.042 272.5C344.542 282.9 349.942 283.7 354.042 286.1C358.142 288.5 372.842 347.4 378.842 362.7" stroke="#63737A" stroke-width="1.8" stroke-linecap="round" stroke-linejoin="round"/>
<path d="M354.042 286.1C354.042 286.1 342.342 280.1 337.142 282.3" stroke="#63737A" stroke-width="1.8" stroke-linecap="round" stroke-linejoin="round"/>
<path d="M336.142 371.8C343.432 371.8 349.342 365.308 349.342 357.3C349.342 349.292 343.432 342.8 336.142 342.8C328.852 342.8 322.942 349.292 322.942 357.3C322.942 365.308 328.852 371.8 336.142 371.8Z" stroke="#63737A" stroke-width="1.8" stroke-linecap="round" stroke-linejoin="round"/>
<path d="M405.142 370.9C412.653 370.9 418.742 364.408 418.742 356.4C418.742 348.392 412.653 341.9 405.142 341.9C397.631 341.9 391.542 348.392 391.542 356.4C391.542 364.408 397.631 370.9 405.142 370.9Z" stroke="#63737A" stroke-width="1.8" stroke-linecap="round" stroke-linejoin="round"/>
<path d="M341.942 489.7C341.784 488.706 341.784 487.694 341.942 486.7" stroke="#63737A" stroke-width="1.8" stroke-linecap="round" stroke-linejoin="round"/>
<path d="M350.242 491V486.7" stroke="#63737A" stroke-width="1.8" stroke-linecap="round" stroke-linejoin="round"/>
<path d="M360.342 489C360.342 489 360.442 486.5 360.342 485.4" stroke="#63737A" stroke-width="1.8" stroke-linecap="round" stroke-linejoin="round"/>
<path d="M408.342 490.3C408.342 490.3 407.842 487.6 407.842 486.8" stroke="#63737A" stroke-width="1.8" stroke-linecap="round" stroke-linejoin="round"/>
<path d="M418.342 490.7C418.445 489.269 418.445 487.832 418.342 486.4" stroke="#63737A" stroke-width="1.8" stroke-linecap="round" stroke-linejoin="round"/>
<path d="M426.942 489.1C427.049 487.969 427.049 486.831 426.942 485.7" stroke="#63737A" stroke-width="1.8" stroke-linecap="round" stroke-linejoin="round"/>
<path d="M332.542 509.9C332.542 509.9 340.142 503.8 355.042 512.2" stroke="white" stroke-width="1.8" stroke-linecap="round" stroke-linejoin="round"/>
<path d="M326.842 517.6C326.842 517.6 336.242 510.1 350.242 519.2" stroke="white" stroke-width="1.8" stroke-linecap="round" stroke-linejoin="round"/>
<path d="M435.742 514.3C435.742 514.3 426.642 510.3 414.342 516.8" stroke="white" stroke-width="1.8" stroke-linecap="round" stroke-linejoin="round"/>
<path d="M439.842 521.1C439.842 521.1 429.342 516.5 416.642 524.8" stroke="white" stroke-width="1.8" stroke-linecap="round" stroke-linejoin="round"/>
<path d="M380.342 98.8C380.342 98.8 385.342 100.3 395.942 100.5C406.542 100.7 418.642 103.8 423.342 109.7C428.042 115.6 429.542 159.1 428.842 178.8C428.142 198.5 414.042 227.8 414.042 227.8C414.042 227.8 380.342 231.6 352.742 230.3C325.142 229 318.542 222.9 316.642 221C314.742 219.1 313.642 214.5 314.742 212.5C315.842 210.5 321.242 195 323.242 180.1C325.242 165.2 321.042 144.4 322.942 126.1C324.842 107.8 331.942 102.4 331.942 102.4C331.942 102.4 340.842 99.4 356.242 98.9C364.269 98.4551 372.313 98.4218 380.342 98.8Z" fill="white"/>
<path d="M378.842 151.5C382.432 151.5 385.342 148.59 385.342 145C385.342 141.41 382.432 138.5 378.842 138.5C375.252 138.5 372.342 141.41 372.342 145C372.342 148.59 375.252 151.5 378.842 151.5Z" fill="white"/>
<path d="M357.042 95C354.342 95.1 352.242 96.7 350.342 98.6C348.968 99.9388 347.998 101.637 347.542 103.5C343.742 121.9 349.542 144.1 356.942 143.9C366.242 143.6 378.742 126.7 388.542 107.5C392.542 99.6 384.842 94.1 380.342 94.1C376.842 94 362.642 94.7 357.042 95Z" fill="white"/>
<path d="M399.742 56.1001C399.495 61.767 397.883 67.2904 395.042 72.2001C390.342 80.2001 384.642 84.4001 382.742 88.0001C380.842 91.6001 381.342 82.2001 382.742 77.7001C384.142 73.2001 392.442 49.2001 399.742 56.1001Z" fill="#22272E"/>
<path d="M354.942 86.5001C354.942 86.5001 353.842 96.2001 353.142 99.9001C352.442 103.6 350.842 113.3 363.242 113.9C374.342 114.5 380.342 105.9 382.542 101.7C383.228 100.448 383.54 99.0247 383.442 97.6001C383.142 93.2001 382.542 82.4001 382.842 73.6001C383.242 62.4001 354.942 78.6001 354.942 86.5001Z" fill="#F4C2C9"/>
<path d="M376.942 87.2C371.042 91.9 362.342 94.0999 354.142 92.8999C353.842 95.4999 353.442 98.2999 353.142 99.8999C353.042 100.4 352.942 101 352.842 101.7C362.942 102.2 374.442 97.2 376.942 87.2Z" fill="#E26E85"/>
<path d="M343.142 50.5C343.142 50.5 340.442 54.4 340.842 57.4C341.242 60.4 346.942 70.5 349.842 70.2C352.742 69.9 355.742 57.5 352.342 53.4C348.942 49.3 344.242 48.6 343.142 50.5Z" fill="#22272E"/>
<path d="M345.442 56.2C345.565 61.22 345.23 66.2408 344.442 71.2C343.142 79.2 342.242 91.2 354.142 94.5C366.042 97.8 380.042 93.3 384.442 76.9C388.842 60.5 392.042 43.9 376.842 39.1C361.642 34.3 343.642 40.5 345.442 56.2Z" fill="#F4C2C9"/>
<path d="M350.542 64.2C350.824 65.3942 350.754 66.6442 350.342 67.7999C350.142 68.3836 349.837 68.9258 349.442 69.3999C349.268 69.6539 349.067 69.8885 348.842 70.0999C348.742 70.1999 348.642 70.4 348.542 70.5C348.442 70.7917 348.442 71.1082 348.542 71.3999C348.699 71.8401 348.936 72.247 349.242 72.5999C349.922 73.4263 350.733 74.1357 351.642 74.7C350.41 74.7835 349.192 74.3896 348.242 73.5999C347.682 73.1838 347.235 72.6337 346.942 72C346.77 71.6412 346.68 71.2481 346.68 70.8499C346.68 70.4518 346.77 70.0587 346.942 69.7C347.092 69.3432 347.333 69.0325 347.642 68.7999C347.842 68.5999 348.042 68.4999 348.142 68.2999C348.474 67.9246 348.775 67.5233 349.042 67.0999C349.66 66.1989 350.164 65.2248 350.542 64.2Z" fill="#22272E"/>
<path d="M383.842 68.8001C382.667 66.6651 381.92 64.3213 381.642 61.9001C381.042 57.3001 376.142 57.6001 373.842 49.1001C371.542 40.6001 365.942 51.1001 357.042 54.9001C348.142 58.7001 341.142 52.6001 337.542 45.8001C333.942 39.0001 340.042 33.0001 344.142 30.2001C348.242 27.4001 352.542 31.9001 360.542 29.9001C368.542 27.9001 381.442 25.4001 387.642 34.4001C393.842 43.4001 400.242 45.6001 399.842 55.4001C399.442 65.2001 387.942 76.1001 387.242 76.2001C386.542 76.3001 383.842 68.8001 383.842 68.8001Z" fill="#22272E"/>
<path d="M362.742 59.4001C362.442 58.6001 362.142 57.1001 363.242 56.3001C364.342 55.5001 366.842 55.8001 369.242 57.3001C371.342 58.6001 371.942 60.7001 370.542 60.5001C369.142 60.3001 368.042 59.7001 366.342 59.6001C364.642 59.5001 363.042 60.1001 362.742 59.4001Z" fill="#22272E"/>
<path d="M350.742 58.3C350.911 57.8247 350.972 57.3178 350.92 56.8161C350.868 56.3144 350.705 55.8306 350.442 55.4C349.842 54.6 348.242 54.7 346.742 55.8C345.442 56.8 345.042 58.7 345.942 58.6C346.788 58.3542 347.662 58.2198 348.542 58.2C349.642 58.3 350.542 58.9 350.742 58.3Z" fill="#22272E"/>
<path d="M343.842 76.3C343.842 76.3 343.742 77.5 345.442 77.8C347.142 78.1 347.342 75.5 350.242 75.1C352.042 74.9 358.342 75.4 360.942 77.8C363.542 80.2 367.142 83 372.342 81.4C377.542 79.8 380.642 72.5 381.642 61.9C382.542 52.2 386.142 61.6 386.142 63.9C386.142 65.5 384.642 63.2 382.842 69.7C382.042 72.6 382.842 80.8 379.742 86.8C377.342 91.4 370.642 96.1 362.142 96.7C353.642 97.3 346.642 93.8 344.542 88.2C342.442 82.8 343.242 76.7 343.842 76.3Z" fill="#22272E"/>
<path d="M347.942 65.8001C348.327 65.8392 348.711 65.7244 349.011 65.4807C349.311 65.237 349.502 64.8844 349.542 64.5001L349.642 63.7001C349.681 63.3156 349.567 62.9313 349.323 62.6314C349.079 62.3315 348.727 62.1404 348.342 62.1001C347.958 62.0609 347.574 62.1757 347.274 62.4194C346.974 62.6631 346.783 63.0157 346.742 63.4001L346.642 64.2001C346.603 64.5845 346.718 64.9688 346.962 65.2687C347.205 65.5686 347.558 65.7597 347.942 65.8001Z" fill="#22272E"/>
<path d="M363.842 66.8001C364.227 66.8392 364.611 66.7244 364.911 66.4807C365.211 66.237 365.402 65.8844 365.442 65.5001L365.542 64.7001C365.581 64.3156 365.467 63.9313 365.223 63.6314C364.979 63.3315 364.627 63.1404 364.242 63.1001C363.858 63.0609 363.474 63.1757 363.174 63.4194C362.874 63.6631 362.683 64.0157 362.642 64.4001L362.542 65.2001C362.506 65.3929 362.512 65.5914 362.56 65.7816C362.608 65.9718 362.697 66.1493 362.821 66.3016C362.945 66.4539 363.1 66.5774 363.277 66.6635C363.453 66.7496 363.646 66.7962 363.842 66.8001Z" fill="#22272E"/>
<path d="M383.042 69.4C383.042 69.4 385.442 63.7 390.142 64.4C394.842 65.1 392.542 77.8 383.842 77.7" fill="#F4C2C9"/>
<path d="M389.842 68.8999C389.605 68.6349 389.336 68.3999 389.042 68.1999C388.742 68.0999 388.842 68.2999 388.642 68.3999C388.642 68.4999 388.442 69.2999 388.342 69.9999C388.247 70.7703 388.01 71.5164 387.642 72.1999C387.469 72.626 387.194 73.0035 386.842 73.2999C386.665 73.4498 386.45 73.5477 386.22 73.583C385.991 73.6183 385.756 73.5896 385.542 73.4999C385.696 73.4198 385.829 73.3063 385.933 73.1679C386.037 73.0295 386.108 72.8696 386.142 72.6999C386.242 72.3999 386.242 72.0999 386.342 71.7999C386.4 71.0614 386.5 70.3269 386.642 69.5999L386.942 68.3999L387.242 67.7999C387.342 67.6999 387.342 67.5999 387.542 67.4999C387.742 67.3999 387.842 67.2999 387.942 67.1999C388.223 67.0641 388.531 66.9956 388.842 66.9999C389.154 67.0813 389.433 67.2557 389.642 67.4999C389.768 67.7079 389.85 67.9391 389.885 68.1796C389.919 68.4201 389.905 68.6651 389.842 68.8999Z" fill="#22272E"/>
<path d="M354.942 81.9C356.648 82.6083 358.512 82.8499 360.342 82.6" stroke="#F4C2C9" stroke-width="1.8" stroke-linecap="round" stroke-linejoin="round"/>
<path d="M415.542 175.3L420.842 186C420.842 186 415.242 193.6 409.242 208C403.242 222.4 398.842 240.2 394.742 245.3C394.742 245.3 398.742 254.9 408.542 259.1C408.542 259.1 427.642 231.1 436.342 218.9C445.042 206.7 453.342 191.1 452.742 183.3C451.842 171.8 443.142 154.8 442.342 150.2C441.542 145.6 415.742 162 415.542 175.3Z" fill="#F4C2C9"/>
<path d="M442.242 150.2C441.542 145.7 415.742 162 415.542 175.3L416.342 176.8C425.438 170.068 435.666 165.022 446.542 161.9C444.442 156.7 442.542 152.2 442.242 150.2Z" fill="#E26E85"/>
<path d="M399.742 234.9C401.142 237.3 405.942 243.7 417.142 246.3C417.227 246.316 417.305 246.353 417.371 246.409C417.437 246.464 417.487 246.535 417.517 246.616C417.547 246.696 417.556 246.783 417.543 246.868C417.53 246.952 417.495 247.032 417.442 247.1L412.342 254C412.242 254.2 411.942 254.2 411.742 254.2C399.242 250.4 395.942 244.1 395.442 242.9C395.393 242.845 395.366 242.774 395.366 242.7C395.366 242.626 395.393 242.555 395.442 242.5L398.842 235C399.042 234.5 399.542 234.5 399.742 234.9Z" fill="#22272E"/>
<path d="M405.437 249.733C406.815 247.48 406.182 244.582 404.023 243.261C401.863 241.94 398.995 242.696 397.617 244.949C396.238 247.202 396.871 250.1 399.031 251.421C401.19 252.742 404.058 251.986 405.437 249.733Z" fill="white"/>
<path d="M418.442 108.9C419.611 108.697 420.813 108.813 421.922 109.235C423.031 109.657 424.005 110.371 424.742 111.3C427.042 114.2 430.842 119.8 435.542 129.4C443.442 145.5 448.942 156.1 448.942 156.1C448.942 156.1 421.542 170.9 415.542 175.3C415.542 175.3 404.442 156.6 400.842 148.8C397.342 141.4 398.342 112.6 418.442 108.9Z" fill="white"/>
<path d="M412.142 169.5C422.692 161.913 433.983 155.413 445.842 150.1" stroke="#282828" stroke-width="1.8" stroke-linecap="round" stroke-linejoin="round"/>
<path d="M390.842 238.7C392.679 244.258 395.815 249.298 399.989 253.402C404.162 257.506 409.254 260.557 414.842 262.3" stroke="#63737A" stroke-width="1.8" stroke-linecap="round" stroke-linejoin="round"/>
<path d="M420.842 186C422.998 183.591 425.874 181.942 429.042 181.3" stroke="#E26E85" stroke-width="1.8" stroke-linecap="round" stroke-linejoin="round"/>
<path d="M569.042 211L480.542 200.1C479.166 199.934 477.911 199.232 477.049 198.146C476.188 197.06 475.79 195.678 475.942 194.3L485.342 106.5C485.53 104.848 486.26 103.304 487.418 102.11C488.576 100.916 490.096 100.139 491.742 99.8999L583.342 87.5C584.148 87.3884 584.968 87.4632 585.74 87.7187C586.512 87.9742 587.214 88.4035 587.794 88.9736C588.374 89.5436 588.815 90.2392 589.083 91.0066C589.352 91.774 589.44 92.5928 589.342 93.3999L575.742 205.9C575.519 207.459 574.691 208.868 573.437 209.823C572.184 210.777 570.605 211.2 569.042 211Z" fill="#63737A"/>
<path d="M566.042 210.7L477.542 199.7C476.166 199.534 474.911 198.832 474.049 197.746C473.188 196.66 472.79 195.278 472.942 193.9L482.342 106.1C482.53 104.448 483.26 102.904 484.418 101.71C485.576 100.516 487.096 99.739 488.742 99.5001L580.342 87.1C581.148 86.9885 581.968 87.0633 582.74 87.3188C583.512 87.5743 584.214 88.0036 584.794 88.5737C585.374 89.1437 585.815 89.8392 586.083 90.6067C586.352 91.3741 586.44 92.193 586.342 93.0001L572.742 205.5C572.53 207.072 571.709 208.498 570.456 209.471C569.203 210.443 567.618 210.885 566.042 210.7Z" fill="#22272E"/>
<path d="M562.742 129.1L493.442 132.6C493.165 132.622 492.887 132.581 492.628 132.482C492.369 132.382 492.135 132.226 491.943 132.025C491.752 131.824 491.607 131.583 491.521 131.319C491.434 131.055 491.407 130.776 491.442 130.5L493.142 115C493.19 114.565 493.384 114.16 493.693 113.851C494.002 113.542 494.408 113.348 494.842 113.3L564.742 106.4C565.034 106.371 565.328 106.409 565.603 106.511C565.878 106.613 566.126 106.776 566.329 106.988C566.531 107.2 566.683 107.455 566.772 107.735C566.861 108.014 566.885 108.31 566.842 108.6L564.542 127.6C564.542 128.3 563.742 129 562.742 129.1Z" fill="#6DAFA7"/>
<path d="M511.142 118.7L557.042 115" stroke="#22272E" stroke-width="1.8" stroke-linecap="round" stroke-linejoin="round"/>
<path d="M510.542 124.6L535.242 122.9" stroke="#22272E" stroke-width="1.8" stroke-linecap="round" stroke-linejoin="round"/>
<path d="M503.174 123.572C504.066 121.919 503.685 119.984 502.324 119.25C500.963 118.516 499.137 119.261 498.246 120.913C497.354 122.566 497.735 124.501 499.096 125.235C500.457 125.969 502.283 125.224 503.174 123.572Z" fill="#22272E"/>
<path d="M558.842 160.8L490.342 159.6C490.08 159.587 489.822 159.523 489.584 159.41C489.346 159.298 489.133 159.139 488.957 158.944C488.78 158.749 488.644 158.521 488.556 158.273C488.467 158.025 488.429 157.763 488.442 157.5L490.142 142.1C490.183 141.628 490.402 141.189 490.755 140.873C491.108 140.557 491.569 140.388 492.042 140.4L561.042 138.2C561.323 138.199 561.6 138.256 561.857 138.369C562.114 138.482 562.344 138.647 562.532 138.855C562.721 139.062 562.864 139.307 562.952 139.573C563.039 139.839 563.07 140.121 563.042 140.4L560.842 159.2C560.738 159.653 560.484 160.058 560.121 160.349C559.758 160.639 559.307 160.798 558.842 160.8Z" fill="white"/>
<path d="M508.042 146.9L553.442 146.3" stroke="#22272E" stroke-width="1.8" stroke-linecap="round" stroke-linejoin="round"/>
<path d="M507.342 152.7H531.842" stroke="#22272E" stroke-width="1.8" stroke-linecap="round" stroke-linejoin="round"/>
<path d="M500.223 151.209C501.04 149.519 500.614 147.622 499.272 146.973C497.929 146.325 496.178 147.169 495.361 148.86C494.544 150.551 494.97 152.447 496.313 153.096C497.656 153.745 499.406 152.9 500.223 151.209Z" fill="#22272E"/>
<path d="M555.042 192.2L487.342 186.4C486.83 186.349 486.356 186.103 486.021 185.711C485.685 185.32 485.514 184.815 485.542 184.3L487.242 169C487.288 168.512 487.523 168.061 487.897 167.743C488.27 167.426 488.753 167.267 489.242 167.3L557.442 169.8C557.714 169.812 557.981 169.88 558.225 169.999C558.47 170.117 558.688 170.285 558.866 170.491C559.044 170.697 559.178 170.937 559.26 171.196C559.342 171.456 559.37 171.729 559.342 172L557.142 190.6C557.032 191.069 556.762 191.484 556.379 191.776C555.996 192.068 555.523 192.218 555.042 192.2Z" fill="#7DE8FF"/>
<path d="M504.942 174.9L549.742 177.3" stroke="#22272E" stroke-width="1.8" stroke-linecap="round" stroke-linejoin="round"/>
<path d="M504.242 180.6L528.442 182.3" stroke="#22272E" stroke-width="1.8" stroke-linecap="round" stroke-linejoin="round"/>
<path d="M497.343 177.939C498.083 176.213 497.571 174.337 496.2 173.75C494.829 173.163 493.119 174.086 492.379 175.812C491.64 177.538 492.152 179.414 493.522 180.001C494.893 180.588 496.604 179.665 497.343 177.939Z" fill="#22272E"/>
</svg>
