<svg width="676" height="489" viewBox="0 0 676 489" fill="none" xmlns="http://www.w3.org/2000/svg">
<path d="M591.842 430.083L71.8423 415.183C60.1505 414.858 48.9781 410.282 40.4183 402.311C31.8584 394.34 26.4984 383.522 25.3423 371.883L0.242277 123.883C-0.425973 117.244 0.291823 110.54 2.35017 104.193C4.40852 97.8467 7.76257 91.9969 12.1998 87.0144C16.6371 82.0319 22.0608 78.0253 28.1274 75.2485C34.1939 72.4716 40.7711 70.985 47.4423 70.8828L626.242 62.8828C633.125 62.7898 639.948 64.1718 646.253 66.9358C652.557 69.6999 658.196 73.7819 662.791 78.9073C667.386 84.0328 670.83 90.0828 672.891 96.6504C674.953 103.218 675.584 110.151 674.742 116.983L641.042 387.883C639.558 399.775 633.694 410.688 624.597 418.491C615.5 426.293 603.822 430.426 591.842 430.083Z" fill="#C7F7FF"/>
<mask id="mask0_221_584" style="mask-type:luminance" maskUnits="userSpaceOnUse" x="0" y="62" width="676" height="369">
<path d="M591.842 430.083L71.8423 415.183C60.1505 414.858 48.9781 410.282 40.4183 402.311C31.8584 394.34 26.4984 383.522 25.3423 371.883L0.242277 123.883C-0.425973 117.244 0.291823 110.54 2.35017 104.193C4.40852 97.8467 7.76257 91.9969 12.1998 87.0144C16.6371 82.0319 22.0608 78.0253 28.1274 75.2485C34.1939 72.4716 40.7711 70.985 47.4423 70.8828L626.242 62.8828C633.125 62.7898 639.948 64.1718 646.253 66.9358C652.557 69.6999 658.196 73.7819 662.791 78.9073C667.386 84.0328 670.83 90.0828 672.891 96.6504C674.953 103.218 675.584 110.151 674.742 116.983L641.042 387.883C639.558 399.775 633.694 410.688 624.597 418.491C615.5 426.293 603.822 430.426 591.842 430.083Z" fill="white"/>
</mask>
<g mask="url(#mask0_221_584)">
<path d="M516.942 497.383H932.442C936.421 497.383 940.236 495.802 943.049 492.989C945.862 490.176 947.442 486.361 947.442 482.383V246.783C947.442 242.804 945.862 238.989 943.049 236.176C940.236 233.363 936.421 231.783 932.442 231.783H516.942C512.964 231.783 509.149 233.363 506.336 236.176C503.523 238.989 501.942 242.804 501.942 246.783V482.383C501.942 486.361 503.523 490.176 506.336 492.989C509.149 495.802 512.964 497.383 516.942 497.383Z" stroke="#B8D8C7" stroke-width="1.8" stroke-linecap="round" stroke-linejoin="round"/>
<path d="M-32.1577 481.583H386.942C390.921 481.583 394.736 480.002 397.549 477.189C400.362 474.376 401.942 470.561 401.942 466.583V122.283C401.942 118.304 400.362 114.489 397.549 111.676C394.736 108.863 390.921 107.283 386.942 107.283H-32.1577C-36.136 107.283 -39.9513 108.863 -42.7643 111.676C-45.5774 114.489 -47.1577 118.304 -47.1577 122.283V466.583C-47.1577 470.561 -45.5774 474.376 -42.7643 477.189C-39.9513 480.002 -36.136 481.583 -32.1577 481.583Z" stroke="#B8D8C7" stroke-width="1.8" stroke-linecap="round" stroke-linejoin="round"/>
<path d="M616.642 161.383H706.542V152.483H616.642C616.406 152.481 616.171 152.527 615.952 152.617C615.733 152.707 615.534 152.84 615.367 153.007C615.199 153.174 615.067 153.373 614.977 153.592C614.887 153.811 614.841 154.046 614.842 154.283V159.483C614.823 159.729 614.855 159.976 614.937 160.209C615.019 160.442 615.149 160.655 615.319 160.834C615.489 161.013 615.694 161.154 615.922 161.249C616.15 161.344 616.396 161.389 616.642 161.383Z" stroke="#B8D8C7" stroke-width="1.8" stroke-linecap="round" stroke-linejoin="round"/>
<path d="M632.942 152.483H653.242C654.3 152.485 655.322 152.1 656.114 151.4C656.907 150.699 657.415 149.733 657.542 148.683L659.142 134.283C659.208 133.678 659.146 133.067 658.96 132.488C658.774 131.909 658.469 131.376 658.063 130.923C657.657 130.471 657.161 130.108 656.606 129.86C656.051 129.612 655.45 129.483 654.842 129.483H631.342C630.735 129.485 630.135 129.614 629.58 129.863C629.026 130.112 628.531 130.474 628.125 130.927C627.72 131.379 627.414 131.912 627.228 132.49C627.041 133.068 626.978 133.679 627.042 134.283L628.642 148.683C628.755 149.739 629.258 150.715 630.054 151.418C630.85 152.121 631.88 152.501 632.942 152.483Z" stroke="#B8D8C7" stroke-width="1.8" stroke-linecap="round" stroke-linejoin="round"/>
<path d="M645.442 129.583C645.442 129.583 653.442 128.783 655.042 117.983C655.042 117.983 647.842 120.083 645.542 125.183C645.542 125.183 644.542 113.783 639.142 112.683C639.142 112.683 636.742 121.183 640.542 125.383C640.542 125.383 637.642 120.583 630.242 120.683C630.941 122.789 632.145 124.692 633.749 126.226C635.353 127.759 637.307 128.878 639.442 129.483" fill="#B8D8C7"/>
<path d="M520.142 281.483H610.342C611.454 281.475 612.518 281.03 613.304 280.244C614.089 279.458 614.535 278.394 614.542 277.283V249.883C614.535 248.771 614.089 247.707 613.304 246.921C612.518 246.135 611.454 245.69 610.342 245.683H520.142C519.031 245.69 517.967 246.135 517.181 246.921C516.395 247.707 515.95 248.771 515.942 249.883V277.283C515.95 278.394 516.395 279.458 517.181 280.244C517.967 281.03 519.031 281.475 520.142 281.483Z" stroke="#B8D8C7" stroke-width="1.8" stroke-linecap="round" stroke-linejoin="round"/>
<path d="M554.842 255.283H575.642C576.037 255.273 576.413 255.111 576.692 254.832C576.971 254.553 577.132 254.177 577.142 253.783C577.132 253.388 576.971 253.012 576.692 252.733C576.413 252.454 576.037 252.293 575.642 252.283H554.842C554.448 252.293 554.072 252.454 553.793 252.733C553.514 253.012 553.352 253.388 553.342 253.783C553.338 253.981 553.374 254.178 553.448 254.362C553.522 254.545 553.632 254.712 553.773 254.852C553.913 254.993 554.08 255.103 554.264 255.177C554.447 255.251 554.644 255.287 554.842 255.283Z" fill="#B8D8C7"/>
<path d="M520.142 327.283H610.342C611.454 327.275 612.518 326.83 613.303 326.044C614.089 325.258 614.534 324.194 614.542 323.083V295.683C614.534 294.571 614.089 293.507 613.303 292.721C612.518 291.936 611.454 291.491 610.342 291.483H520.142C519.031 291.491 517.967 291.936 517.181 292.721C516.395 293.507 515.95 294.571 515.942 295.683V322.983C515.936 323.541 516.039 324.095 516.247 324.613C516.454 325.131 516.762 325.603 517.152 326.003C517.542 326.402 518.007 326.72 518.52 326.94C519.033 327.16 519.584 327.276 520.142 327.283Z" stroke="#B8D8C7" stroke-width="1.8" stroke-linecap="round" stroke-linejoin="round"/>
<path d="M554.842 301.083H575.642C576.037 301.073 576.413 300.911 576.692 300.632C576.971 300.353 577.132 299.977 577.142 299.583C577.132 299.188 576.971 298.812 576.692 298.533C576.413 298.254 576.037 298.093 575.642 298.083H554.842C554.448 298.093 554.072 298.254 553.793 298.533C553.514 298.812 553.352 299.188 553.342 299.583C553.338 299.781 553.374 299.978 553.448 300.162C553.522 300.345 553.632 300.512 553.773 300.653C553.913 300.793 554.08 300.903 554.264 300.977C554.447 301.051 554.644 301.087 554.842 301.083Z" fill="#B8D8C7"/>
<path d="M56.9423 359.583H147.142C148.254 359.575 149.318 359.13 150.103 358.344C150.889 357.558 151.334 356.494 151.342 355.383V327.983C151.334 326.871 150.889 325.808 150.103 325.022C149.318 324.236 148.254 323.791 147.142 323.783H56.9423C55.8308 323.791 54.7671 324.236 53.9811 325.022C53.1952 325.808 52.7502 326.871 52.7423 327.983V355.383C52.7502 356.494 53.1952 357.558 53.9811 358.344C54.7671 359.13 55.8308 359.575 56.9423 359.583Z" stroke="#B8D8C7" stroke-width="1.8" stroke-linecap="round" stroke-linejoin="round"/>
<path d="M91.7423 333.483H112.542C112.937 333.473 113.313 333.311 113.592 333.032C113.871 332.753 114.032 332.377 114.042 331.983C114.032 331.588 113.871 331.212 113.592 330.933C113.313 330.654 112.937 330.493 112.542 330.483H91.7423C91.3477 330.493 90.972 330.654 90.6928 330.933C90.4137 331.212 90.2524 331.588 90.2423 331.983C90.2382 332.181 90.2742 332.378 90.3482 332.561C90.4221 332.745 90.5324 332.912 90.6726 333.052C90.8127 333.193 90.9797 333.303 91.1635 333.377C91.3473 333.451 91.5442 333.487 91.7423 333.483Z" fill="#B8D8C7"/>
<path d="M172.742 359.583H262.942C264.054 359.575 265.118 359.13 265.903 358.344C266.689 357.558 267.134 356.494 267.142 355.383V327.983C267.134 326.871 266.689 325.808 265.903 325.022C265.118 324.236 264.054 323.791 262.942 323.783H172.742C171.631 323.791 170.567 324.236 169.781 325.022C168.995 325.808 168.55 326.871 168.542 327.983V355.383C168.55 356.494 168.995 357.558 169.781 358.344C170.567 359.13 171.631 359.575 172.742 359.583Z" stroke="#B8D8C7" stroke-width="1.8" stroke-linecap="round" stroke-linejoin="round"/>
<path d="M207.542 333.483H228.342C228.737 333.473 229.113 333.311 229.392 333.032C229.671 332.753 229.832 332.377 229.842 331.983C229.832 331.588 229.671 331.212 229.392 330.933C229.113 330.654 228.737 330.493 228.342 330.483H207.542C207.148 330.493 206.772 330.654 206.493 330.933C206.214 331.212 206.052 331.588 206.042 331.983C206.038 332.181 206.074 332.378 206.148 332.561C206.222 332.745 206.332 332.912 206.473 333.052C206.613 333.193 206.78 333.303 206.963 333.377C207.147 333.451 207.344 333.487 207.542 333.483Z" fill="#B8D8C7"/>
<path d="M635.142 281.483H725.342C726.454 281.475 727.518 281.03 728.304 280.244C729.089 279.458 729.535 278.394 729.542 277.283V249.883C729.535 248.771 729.089 247.707 728.304 246.921C727.518 246.135 726.454 245.69 725.342 245.683H635.142C634.031 245.69 632.967 246.135 632.181 246.921C631.395 247.707 630.95 248.771 630.942 249.883V277.283C630.95 278.394 631.395 279.458 632.181 280.244C632.967 281.03 634.031 281.475 635.142 281.483Z" stroke="#B8D8C7" stroke-width="1.8" stroke-linecap="round" stroke-linejoin="round"/>
<path d="M669.842 255.283H690.642C691.037 255.273 691.413 255.111 691.692 254.832C691.971 254.553 692.132 254.177 692.142 253.783C692.132 253.388 691.971 253.012 691.692 252.733C691.413 252.454 691.037 252.293 690.642 252.283H669.842C669.448 252.293 669.072 252.454 668.793 252.733C668.514 253.012 668.352 253.388 668.342 253.783C668.338 253.981 668.374 254.178 668.448 254.362C668.522 254.545 668.632 254.712 668.773 254.852C668.913 254.993 669.08 255.103 669.264 255.177C669.447 255.251 669.644 255.287 669.842 255.283Z" fill="#B8D8C7"/>
<path d="M635.142 327.283H725.342C726.454 327.275 727.518 326.83 728.303 326.044C729.089 325.258 729.534 324.194 729.542 323.083V295.683C729.534 294.571 729.089 293.507 728.303 292.721C727.518 291.936 726.454 291.491 725.342 291.483H635.142C634.031 291.491 632.967 291.936 632.181 292.721C631.395 293.507 630.95 294.571 630.942 295.683V322.983C630.936 323.541 631.039 324.095 631.247 324.613C631.454 325.131 631.762 325.603 632.152 326.003C632.542 326.402 633.007 326.72 633.52 326.94C634.033 327.16 634.584 327.276 635.142 327.283Z" stroke="#B8D8C7" stroke-width="1.8" stroke-linecap="round" stroke-linejoin="round"/>
<path d="M669.842 301.083H690.642C691.037 301.073 691.413 300.911 691.692 300.632C691.971 300.353 692.132 299.977 692.142 299.583C692.132 299.188 691.971 298.812 691.692 298.533C691.413 298.254 691.037 298.093 690.642 298.083H669.842C669.448 298.093 669.072 298.254 668.793 298.533C668.514 298.812 668.352 299.188 668.342 299.583C668.338 299.781 668.374 299.978 668.448 300.162C668.522 300.345 668.632 300.512 668.773 300.653C668.913 300.793 669.08 300.903 669.264 300.977C669.447 301.051 669.644 301.087 669.842 301.083Z" fill="#B8D8C7"/>
<path d="M-74.3578 212.083H380.642C381.858 212.07 383.021 211.581 383.881 210.721C384.74 209.861 385.229 208.699 385.242 207.483V127.783C385.229 126.567 384.74 125.404 383.881 124.544C383.021 123.684 381.858 123.196 380.642 123.183H-74.3578C-75.5737 123.196 -76.7362 123.684 -77.5961 124.544C-78.4559 125.404 -78.9447 126.567 -78.9578 127.783V207.483C-78.9591 208.087 -78.841 208.686 -78.6103 209.245C-78.3796 209.803 -78.0408 210.311 -77.6134 210.738C-77.186 211.166 -76.6783 211.504 -76.1197 211.735C-75.561 211.966 -74.9622 212.084 -74.3578 212.083Z" stroke="#B8D8C7" stroke-width="1.8" stroke-linecap="round" stroke-linejoin="round"/>
<path d="M-74.3577 311.083H380.642C381.858 311.07 383.021 310.581 383.881 309.721C384.74 308.861 385.229 307.699 385.242 306.483V226.783C385.229 225.567 384.74 224.404 383.881 223.544C383.021 222.684 381.858 222.196 380.642 222.183H-74.3577C-75.5737 222.196 -76.7362 222.684 -77.596 223.544C-78.4559 224.404 -78.9447 225.567 -78.9577 226.783V306.483C-78.9447 307.699 -78.4559 308.861 -77.596 309.721C-76.7362 310.581 -75.5737 311.07 -74.3577 311.083Z" stroke="#B8D8C7" stroke-width="1.8" stroke-linecap="round" stroke-linejoin="round"/>
<path d="M354.672 161.803H344.772V212.103H354.672V161.803Z" stroke="#B8D8C7" stroke-width="1.8" stroke-linecap="round" stroke-linejoin="round"/>
<path d="M344.732 175.523H334.432V212.123H344.732V175.523Z" stroke="#B8D8C7" stroke-width="1.8" stroke-linecap="round" stroke-linejoin="round"/>
<path d="M56.2923 260.643H46.3923V310.943H56.2923V260.643Z" stroke="#B8D8C7" stroke-width="1.8" stroke-linecap="round" stroke-linejoin="round"/>
<path d="M46.3522 274.363H36.0522V310.963H46.3522V274.363Z" stroke="#B8D8C7" stroke-width="1.8" stroke-linecap="round" stroke-linejoin="round"/>
<path d="M76.3823 260.643H66.4823V310.943H76.3823V260.643Z" stroke="#B8D8C7" stroke-width="1.8" stroke-linecap="round" stroke-linejoin="round"/>
<path d="M85.6478 259.508L76.207 262.488L91.3493 310.455L100.79 307.475L85.6478 259.508Z" stroke="#B8D8C7" stroke-width="1.8" stroke-linecap="round" stroke-linejoin="round"/>
<path d="M66.5423 274.363H56.2423V310.963H66.5423V274.363Z" stroke="#B8D8C7" stroke-width="1.8" stroke-linecap="round" stroke-linejoin="round"/>
<path d="M46.5423 168.383L45.4423 153.483C45.4209 153.249 45.4493 153.014 45.5258 152.793C45.6023 152.572 45.725 152.369 45.8858 152.199C46.0466 152.028 46.2418 151.894 46.4585 151.805C46.6751 151.716 46.9082 151.675 47.1423 151.683H55.7423C55.9738 151.684 56.2027 151.732 56.4151 151.824C56.6274 151.916 56.8189 152.05 56.9779 152.218C57.1368 152.387 57.2599 152.586 57.3398 152.803C57.4196 153.02 57.4545 153.251 57.4423 153.483L56.3423 168.383C56.3423 168.383 65.3423 174.183 65.2423 178.983C65.1423 182.683 62.9423 200.383 61.9423 208.183C61.815 209.233 61.3069 210.199 60.5144 210.9C59.7219 211.6 58.7 211.985 57.6423 211.983H45.2423C44.1846 211.985 43.1627 211.6 42.3702 210.9C41.5777 210.199 41.0696 209.233 40.9423 208.183C39.9423 200.383 37.7423 182.683 37.6423 178.983C37.5423 174.183 46.5423 168.383 46.5423 168.383Z" fill="#B8D8C7"/>
<path d="M685.642 405.383H-270.158" stroke="#B8D8C7" stroke-width="1.8" stroke-linecap="round" stroke-linejoin="round"/>
</g>
<path d="M249.442 311.083H166.242C164.944 311.08 163.699 310.563 162.78 309.645C161.862 308.726 161.345 307.482 161.342 306.183V292.983C161.345 291.684 161.862 290.439 162.78 289.521C163.699 288.602 164.944 288.085 166.242 288.083H249.442C250.741 288.085 251.986 288.602 252.904 289.521C253.823 290.439 254.34 291.684 254.342 292.983V306.083C254.352 306.734 254.232 307.38 253.99 307.984C253.748 308.588 253.389 309.139 252.934 309.603C252.478 310.068 251.935 310.438 251.336 310.692C250.737 310.946 250.093 311.079 249.442 311.083Z" stroke="#B8D8C7" stroke-width="1.8" stroke-linecap="round" stroke-linejoin="round"/>
<path d="M237.742 267.083H177.742V288.083H237.742V267.083Z" stroke="#B8D8C7" stroke-width="1.8" stroke-linecap="round" stroke-linejoin="round"/>
<path d="M170.742 297.283C171.571 297.283 172.242 296.611 172.242 295.783C172.242 294.954 171.571 294.283 170.742 294.283C169.914 294.283 169.242 294.954 169.242 295.783C169.242 296.611 169.914 297.283 170.742 297.283Z" fill="#B8D8C7"/>
<path d="M233.342 322.983H223.042L221.942 335.783H231.842L233.342 322.983Z" fill="#6DAFA7"/>
<path d="M221.942 335.783L208.842 484.783C208.815 485.185 208.869 485.588 209.002 485.969C209.134 486.35 209.342 486.7 209.613 486.999C209.883 487.297 210.211 487.538 210.577 487.708C210.943 487.877 211.339 487.97 211.742 487.983C212.461 487.982 213.154 487.717 213.689 487.237C214.224 486.757 214.563 486.097 214.642 485.383L231.842 335.783H221.942Z" fill="#B0D7C0"/>
<path d="M323.342 322.983H313.042L314.542 335.783H324.442L323.342 322.983Z" fill="#B0D7C0"/>
<path d="M314.542 335.783L331.742 485.383C331.86 486.12 332.256 486.783 332.848 487.238C333.44 487.692 334.184 487.902 334.926 487.826C335.668 487.749 336.353 487.391 336.84 486.825C337.326 486.259 337.578 485.528 337.542 484.783L324.442 335.783H314.542Z" fill="#B0D7C0"/>
<path d="M327.142 403.983H220.942V409.083H327.142V403.983Z" fill="#B0D7C0"/>
<path d="M333.942 326.683H212.442C211.982 326.686 211.526 326.597 211.1 326.422C210.674 326.247 210.287 325.989 209.961 325.664C209.636 325.338 209.378 324.951 209.203 324.525C209.028 324.1 208.94 323.643 208.942 323.183V322.883C208.94 322.423 209.028 321.966 209.203 321.54C209.378 321.115 209.636 320.728 209.961 320.402C210.287 320.077 210.674 319.819 211.1 319.644C211.526 319.469 211.982 319.38 212.442 319.383H334.042C334.503 319.38 334.959 319.469 335.385 319.644C335.811 319.819 336.197 320.077 336.523 320.402C336.849 320.728 337.106 321.115 337.281 321.54C337.456 321.966 337.545 322.423 337.542 322.883V323.183C337.526 324.124 337.139 325.02 336.464 325.676C335.79 326.331 334.883 326.694 333.942 326.683Z" fill="#22272E"/>
<path d="M521.242 264.783L431.742 259.283C430.168 259.195 428.63 258.774 427.232 258.046C425.833 257.318 424.606 256.3 423.632 255.06C422.657 253.821 421.958 252.388 421.58 250.857C421.203 249.327 421.156 247.733 421.442 246.183L449.93 52.796C450.517 49.6096 452.121 46.6991 454.5 44.4999C456.879 42.3008 459.907 40.9311 463.13 40.596L557.72 31.5719C559.428 31.4104 561.152 31.6438 562.756 32.2541C564.36 32.8643 565.802 33.8351 566.972 35.0915C568.141 36.3479 569.006 37.8562 569.5 39.5C569.994 41.1438 570.103 42.8791 569.82 44.5719L536.742 252.383C536.167 256.009 534.259 259.289 531.392 261.583C528.526 263.876 524.906 265.017 521.242 264.783Z" fill="#F4C2C9"/>
<path d="M516.342 264.183L426.842 258.683C425.268 258.596 423.73 258.174 422.332 257.446C420.933 256.718 419.706 255.7 418.732 254.461C417.757 253.221 417.058 251.788 416.68 250.258C416.303 248.727 416.256 247.133 416.542 245.583L450.642 54.4829C451.23 51.2965 452.833 48.386 455.213 46.1868C457.592 43.9876 460.62 42.618 463.842 42.2829L553.742 33.5829C555.451 33.4214 557.174 33.6548 558.778 34.2651C560.382 34.8753 561.825 35.8461 562.994 37.1025C564.164 38.3589 565.029 39.8672 565.523 41.511C566.016 43.1548 566.126 44.8901 565.842 46.5829L531.842 251.783C531.25 255.401 529.338 258.671 526.475 260.961C523.612 263.251 520.002 264.399 516.342 264.183Z" fill="white"/>
<mask id="mask1_221_584" style="mask-type:luminance" maskUnits="userSpaceOnUse" x="416" y="33" width="150" height="232">
<path d="M516.342 264.183L426.842 258.683C425.268 258.596 423.73 258.174 422.332 257.446C420.933 256.718 419.706 255.7 418.732 254.461C417.757 253.221 417.058 251.788 416.68 250.258C416.303 248.727 416.256 247.133 416.542 245.583L450.642 54.4829C451.23 51.2965 452.833 48.386 455.213 46.1868C457.592 43.9876 460.62 42.618 463.842 42.2829L553.742 33.5829C555.451 33.4214 557.174 33.6548 558.778 34.2651C560.382 34.8753 561.825 35.8461 562.994 37.1025C564.164 38.3589 565.029 39.8672 565.523 41.511C566.016 43.1548 566.126 44.8901 565.842 46.5829L531.842 251.783C531.25 255.401 529.338 258.671 526.475 260.961C523.612 263.251 520.002 264.399 516.342 264.183Z" fill="white"/>
</mask>
<g mask="url(#mask1_221_584)">
<path d="M606.542 156.183L468.742 158.583C467.902 158.596 467.069 158.423 466.303 158.076C465.537 157.729 464.857 157.218 464.312 156.577C463.767 155.937 463.371 155.184 463.152 154.372C462.932 153.561 462.895 152.711 463.042 151.883L473.142 94.383C473.429 92.7962 474.231 91.3483 475.425 90.2635C476.618 89.1788 478.135 88.5178 479.742 88.383L615.742 79.283C616.829 79.2125 617.918 79.3885 618.927 79.7979C619.937 80.2073 620.841 80.8394 621.571 81.6471C622.302 82.4548 622.841 83.4172 623.148 84.4624C623.454 85.5075 623.521 86.6085 623.342 87.683L613.342 150.183C613.156 151.849 612.357 153.386 611.1 154.495C609.843 155.604 608.218 156.206 606.542 156.183Z" fill="#F4C2C9"/>
</g>
<mask id="mask2_221_584" style="mask-type:luminance" maskUnits="userSpaceOnUse" x="416" y="33" width="150" height="232">
<path d="M516.342 264.183L426.842 258.683C425.268 258.596 423.73 258.174 422.332 257.446C420.933 256.718 419.706 255.7 418.732 254.461C417.757 253.221 417.058 251.788 416.68 250.258C416.303 248.727 416.256 247.133 416.542 245.583L450.642 54.4829C451.23 51.2965 452.833 48.386 455.213 46.1868C457.592 43.9876 460.62 42.618 463.842 42.2829L553.742 33.5829C555.451 33.4214 557.174 33.6548 558.778 34.2651C560.382 34.8753 561.825 35.8461 562.994 37.1025C564.164 38.3589 565.029 39.8672 565.523 41.511C566.016 43.1548 566.126 44.8901 565.842 46.5829L531.842 251.783C531.25 255.401 529.338 258.671 526.475 260.961C523.612 263.251 520.002 264.399 516.342 264.183Z" fill="white"/>
</mask>
<g mask="url(#mask2_221_584)">
<path d="M591.342 248.883L453.542 242.883C452.731 242.84 451.939 242.627 451.216 242.257C450.493 241.888 449.856 241.37 449.347 240.738C448.837 240.106 448.467 239.374 448.259 238.589C448.052 237.804 448.012 236.984 448.142 236.183L458.542 177.283C458.841 175.612 459.713 174.098 461.01 173.002C462.306 171.907 463.945 171.298 465.642 171.283L601.842 170.183C602.894 170.18 603.934 170.406 604.89 170.844C605.846 171.282 606.696 171.923 607.38 172.722C608.065 173.52 608.568 174.458 608.855 175.47C609.142 176.482 609.206 177.544 609.042 178.583L598.842 242.883C598.537 244.625 597.607 246.196 596.226 247.3C594.845 248.405 593.109 248.968 591.342 248.883Z" fill="#F4C2C9"/>
</g>
<path d="M448.542 65.9827L564.142 56.7827" stroke="#F4C2C9" stroke-width="1.8" stroke-linecap="round" stroke-linejoin="round"/>
<path d="M507.342 52.0827L497.442 52.9827C496.542 53.0827 496.042 52.3827 496.142 51.3827C496.225 50.9092 496.452 50.4728 496.792 50.1328C497.132 49.7929 497.569 49.5659 498.042 49.4827L507.942 48.5827C508.842 48.4827 509.442 49.1827 509.242 50.1827C509.144 50.6496 508.912 51.0777 508.575 51.4151C508.237 51.7524 507.809 51.9844 507.342 52.0827Z" fill="#22272E"/>
<path d="M513.942 51.4826C513.042 51.5826 512.442 50.8826 512.642 49.8826C512.725 49.4091 512.952 48.9727 513.292 48.6327C513.632 48.2928 514.069 48.0658 514.542 47.9826C515.442 47.8826 516.042 48.5827 515.842 49.5827C515.792 50.0694 515.576 50.524 515.23 50.8701C514.884 51.2161 514.429 51.4324 513.942 51.4826Z" fill="#22272E"/>
<path d="M625.342 58.2827L587.242 61.1827C586.926 61.2215 586.605 61.1842 586.307 61.074C586.008 60.9638 585.74 60.7838 585.524 60.5491C585.309 60.3143 585.153 60.0315 585.069 59.7243C584.986 59.4171 584.976 59.0943 585.042 58.7827L588.842 35.6827C588.948 34.9974 589.282 34.3679 589.79 33.8961C590.299 33.4242 590.951 33.1377 591.642 33.0827L629.342 29.0827C629.716 29.0422 630.093 29.0876 630.446 29.2156C630.799 29.3435 631.118 29.5505 631.379 29.8208C631.639 30.0911 631.835 30.4174 631.95 30.7748C632.065 31.1322 632.096 31.5112 632.042 31.8827L628.342 55.6827C628.163 56.3683 627.781 56.9835 627.245 57.4476C626.71 57.9117 626.046 58.2028 625.342 58.2827Z" stroke="#6DAFA7" stroke-width="1.8" stroke-linecap="round" stroke-linejoin="round"/>
<path d="M589.842 33.6828L606.442 44.3828C606.888 44.6757 607.409 44.8318 607.942 44.8318C608.475 44.8318 608.997 44.6757 609.442 44.3828L631.042 29.5828" stroke="#6DAFA7" stroke-width="1.8" stroke-linecap="round" stroke-linejoin="round"/>
<path d="M453.442 101.483L422.142 103.183L417.542 106.183C417.304 106.34 417.024 106.422 416.739 106.419C416.454 106.417 416.176 106.33 415.94 106.169C415.704 106.009 415.522 105.782 415.415 105.517C415.309 105.252 415.283 104.962 415.342 104.683L420.242 77.4829C420.434 76.4253 420.969 75.4603 421.764 74.7372C422.56 74.0142 423.571 73.5733 424.642 73.4829L457.242 70.9829C457.739 70.9389 458.24 71.0097 458.706 71.1898C459.171 71.3699 459.589 71.6545 459.927 72.0216C460.265 72.3888 460.515 72.8287 460.656 73.3074C460.797 73.7862 460.827 74.291 460.742 74.7829L456.542 98.5829C456.433 99.347 456.066 100.051 455.502 100.578C454.939 101.105 454.212 101.425 453.442 101.483Z" fill="#6DAFA7"/>
<path d="M426.342 81.4828L452.742 79.5828" stroke="#22272E" stroke-width="1.8" stroke-linecap="round" stroke-linejoin="round"/>
<path d="M425.142 88.1828L451.542 86.3828" stroke="#22272E" stroke-width="1.8" stroke-linecap="round" stroke-linejoin="round"/>
<path d="M423.942 94.7829L437.742 93.9829" stroke="#22272E" stroke-width="1.8" stroke-linecap="round" stroke-linejoin="round"/>
<path d="M599.142 150.083L461.342 152.483C460.502 152.496 459.668 152.323 458.903 151.976C458.137 151.629 457.457 151.117 456.912 150.477C456.367 149.836 455.971 149.083 455.752 148.272C455.532 147.46 455.495 146.61 455.642 145.783L465.742 88.2826C466.029 86.6958 466.831 85.2479 468.025 84.1632C469.218 83.0785 470.735 82.4175 472.342 82.2826L608.342 73.1826C609.429 73.1122 610.518 73.2882 611.527 73.6976C612.537 74.1069 613.441 74.7391 614.171 75.5468C614.902 76.3545 615.441 77.3169 615.748 78.362C616.054 79.4072 616.121 80.5081 615.942 81.5826L605.942 144.083C605.741 145.742 604.938 147.27 603.684 148.377C602.43 149.483 600.814 150.09 599.142 150.083Z" fill="#22272E"/>
<path d="M497.042 106.583C496.342 110.683 492.742 114.183 489.042 114.383C485.342 114.583 482.942 111.383 483.642 107.283C484.342 103.183 487.942 99.6828 491.642 99.4828C495.342 99.2828 497.742 102.483 497.042 106.583Z" fill="white"/>
<path d="M494.442 132.883L478.042 133.383C477.52 133.404 476.999 133.308 476.518 133.101C476.038 132.895 475.609 132.584 475.264 132.191C474.919 131.798 474.666 131.333 474.524 130.83C474.382 130.327 474.354 129.798 474.442 129.283L474.742 127.483C476.042 120.083 482.442 113.783 489.142 113.583C495.842 113.283 500.342 119.183 499.042 126.683L498.642 129.283C498.446 130.266 497.926 131.156 497.164 131.808C496.403 132.461 495.444 132.839 494.442 132.883Z" fill="white"/>
<path d="M584.342 107.283L519.042 110.283C518.721 110.306 518.398 110.255 518.099 110.133C517.801 110.011 517.535 109.821 517.322 109.579C517.108 109.337 516.954 109.049 516.871 108.737C516.788 108.425 516.778 108.099 516.842 107.783L517.542 103.383C517.671 102.663 518.036 102.007 518.58 101.519C519.123 101.03 519.813 100.736 520.542 100.683L585.942 97.2827C586.266 97.2528 586.591 97.2998 586.893 97.4197C587.195 97.5397 587.464 97.7293 587.678 97.973C587.893 98.2168 588.047 98.5077 588.127 98.8222C588.208 99.1367 588.213 99.4658 588.142 99.7827L587.342 104.583C587.245 105.316 586.89 105.991 586.34 106.485C585.79 106.98 585.082 107.263 584.342 107.283Z" fill="#6DAFA7"/>
<path d="M518.342 122.083L519.342 125.183L522.442 125.683L519.742 128.383L519.542 131.883L516.942 130.483L513.742 132.083L514.742 128.583L512.942 126.083L516.242 125.283L518.342 122.083Z" fill="#FFE779"/>
<path d="M533.342 121.583L534.442 124.683L537.542 125.183L534.842 127.883L534.742 131.383L531.942 129.983L528.742 131.583L529.742 128.083L527.942 125.483L531.242 124.783L533.342 121.583Z" fill="#FFE779"/>
<path d="M548.742 120.983L549.842 124.083L553.042 124.683L550.242 127.383L550.142 130.983L547.342 129.483L544.042 131.183L545.042 127.583L543.142 124.983L546.642 124.183L548.742 120.983Z" fill="#FFE779"/>
<path d="M564.442 120.383L565.542 123.583L568.842 124.083L566.042 126.883L565.942 130.483L563.042 128.983L559.642 130.683L560.742 126.983L558.742 124.483L562.242 123.683L564.442 120.383Z" fill="#FFE779"/>
<path d="M580.542 119.783L581.642 122.983L585.042 123.583L582.142 126.283L582.042 129.983L579.042 128.483L575.642 130.183L576.742 126.483L574.742 123.883L578.242 123.083L580.542 119.783Z" fill="#FFE779"/>
<path d="M583.842 242.783L446.142 236.683C445.331 236.64 444.539 236.427 443.816 236.057C443.093 235.688 442.456 235.17 441.947 234.538C441.437 233.906 441.067 233.174 440.859 232.389C440.652 231.604 440.612 230.784 440.742 229.983L451.142 171.083C451.441 169.412 452.313 167.898 453.61 166.802C454.906 165.707 456.545 165.098 458.242 165.083L594.442 163.983C595.494 163.98 596.534 164.206 597.49 164.644C598.446 165.082 599.296 165.723 599.98 166.522C600.665 167.32 601.168 168.258 601.455 169.27C601.742 170.282 601.806 171.344 601.642 172.383L591.442 236.683C591.137 238.451 590.196 240.048 588.796 241.171C587.397 242.294 585.635 242.868 583.842 242.783Z" fill="#22272E"/>
<path d="M482.342 191.683C481.642 195.883 478.042 199.283 474.242 199.183C470.442 199.083 468.142 195.683 468.842 191.483C469.542 187.283 473.142 183.983 476.842 183.983C480.542 183.983 483.142 187.483 482.342 191.683Z" fill="white"/>
<path d="M479.442 218.683L463.042 218.183C462.542 218.158 462.052 218.03 461.604 217.806C461.156 217.582 460.759 217.267 460.439 216.881C460.12 216.496 459.884 216.048 459.746 215.566C459.609 215.084 459.574 214.579 459.642 214.083L460.042 211.983C461.342 204.383 467.742 198.383 474.442 198.483C481.142 198.583 485.642 204.883 484.242 212.583L483.842 215.083C483.665 216.112 483.122 217.042 482.314 217.703C481.505 218.365 480.486 218.712 479.442 218.683Z" fill="white"/>
<path d="M569.442 197.883L504.142 196.983C503.833 196.978 503.528 196.907 503.248 196.774C502.968 196.641 502.721 196.449 502.521 196.212C502.322 195.975 502.176 195.698 502.094 195.4C502.011 195.101 501.993 194.788 502.042 194.483L502.842 189.883C502.966 189.125 503.357 188.437 503.943 187.942C504.53 187.447 505.275 187.177 506.042 187.183L571.442 187.683C571.752 187.687 572.057 187.759 572.336 187.892C572.616 188.025 572.864 188.216 573.063 188.453C573.262 188.69 573.408 188.967 573.491 189.266C573.573 189.564 573.591 189.877 573.542 190.183L572.742 195.183C572.578 195.939 572.162 196.618 571.563 197.108C570.964 197.598 570.216 197.871 569.442 197.883Z" fill="#6DAFA7"/>
<path d="M503.542 209.083L504.542 212.283L507.642 212.983L504.942 215.583L504.842 219.183L502.142 217.483L498.942 218.983L499.942 215.383L498.242 212.783L501.442 212.183L503.542 209.083Z" fill="#FFE779"/>
<path d="M518.642 209.383L519.642 212.583L522.842 213.383L520.042 215.983L519.942 219.583L517.142 217.983L513.942 219.483L514.942 215.883L513.142 213.083L516.542 212.583L518.642 209.383Z" fill="#FFE779"/>
<path d="M534.042 209.783L535.042 212.983L538.342 213.783L535.542 216.383L535.342 220.083L532.542 218.383L529.242 219.883L530.342 216.283L528.442 213.483L531.842 212.983L534.042 209.783Z" fill="#FFE779"/>
<path d="M549.742 210.083L550.842 213.383L554.142 214.183L551.242 216.883L551.142 220.583L548.242 218.883L544.842 220.383L545.942 216.683L544.042 213.883L547.542 213.283L549.742 210.083Z" fill="#63737A"/>
<path d="M565.742 210.483L566.942 213.783L570.242 214.583L567.342 217.283L567.242 221.083L564.342 219.283L560.842 220.883L561.942 217.083L559.942 214.383L563.542 213.783L565.742 210.483Z" fill="#63737A"/>
<path d="M581.442 12.2827C580.91 11.7017 580.218 11.291 579.452 11.102C578.687 10.9131 577.884 10.9543 577.142 11.2206C576.4 11.4868 575.754 11.9662 575.283 12.5986C574.813 13.231 574.54 13.9882 574.499 14.7751C574.458 15.5621 574.649 16.3437 575.051 17.022C575.452 17.7002 576.045 18.2448 576.754 18.5875C577.464 18.9301 578.259 19.0555 579.04 18.9479C579.82 18.8403 580.552 18.5045 581.142 17.9827C581.54 17.6308 581.864 17.2031 582.095 16.7245C582.327 16.246 582.46 15.7262 582.488 15.1956C582.516 14.6649 582.438 14.134 582.258 13.6339C582.079 13.1337 581.801 12.6744 581.442 12.2827Z" fill="#22272E"/>
<path d="M576.042 2.88282L575.342 2.08284C574.78 1.46209 574.1 0.958963 573.342 0.602536C572.584 0.246109 571.763 0.0434464 570.926 0.00625274C570.089 -0.0309409 569.253 0.0980752 568.466 0.385846C567.68 0.673616 566.958 1.11443 566.342 1.68283C565.722 2.24531 565.218 2.92524 564.862 3.68332C564.506 4.44139 564.303 5.26257 564.266 6.09942C564.229 6.93628 564.358 7.77221 564.645 8.55891C564.933 9.34561 565.374 10.0675 565.942 10.6828L566.642 11.4828C567.458 12.3975 568.041 13.4951 568.342 14.6828C568.542 15.5828 568.842 16.6828 569.142 17.6828C569.27 18.1815 569.523 18.6391 569.878 19.0115C570.234 19.3839 570.679 19.6587 571.171 19.8093C571.663 19.96 572.186 19.9815 572.689 19.8718C573.191 19.7621 573.658 19.5248 574.042 19.1828L578.542 15.0828L583.042 10.9828C583.415 10.6339 583.693 10.1955 583.848 9.70936C584.004 9.22318 584.034 8.70524 583.934 8.20457C583.833 7.7039 583.607 7.23707 583.276 6.84828C582.945 6.45949 582.521 6.16161 582.042 5.98283C581.042 5.58283 580.042 5.28283 579.142 4.98283C577.999 4.46026 576.952 3.75049 576.042 2.88282Z" fill="#6DAFA7"/>
<path d="M196.768 133.5L81.9128 161.901C80.8226 162.065 79.7084 162.025 78.635 161.782C77.5616 161.54 76.5503 161.101 75.6599 160.49C74.7695 159.879 74.0176 159.109 73.448 158.224C72.8783 157.339 72.5022 156.357 72.3416 155.336L56.0704 46.5042C55.9186 45.5087 56.0129 44.4939 56.3461 43.5378C56.6793 42.5817 57.2424 41.7098 57.9922 40.9892C58.742 40.2686 59.6585 39.7185 60.6712 39.3811C61.6839 39.0437 62.7658 38.9281 63.8338 39.0432L189.536 52.9704C191.297 53.1617 192.947 53.8722 194.247 54.9989C195.547 56.1257 196.43 57.6102 196.768 59.2377L200.596 128.427C200.806 129.574 200.521 130.753 199.803 131.704C199.086 132.655 197.994 133.301 196.768 133.5Z" fill="#F4C2C9"/>
<path d="M205.242 146.983L85.6423 166.983C84.6171 167.148 83.5694 167.107 82.5601 166.863C81.5507 166.62 80.5998 166.178 79.7625 165.564C78.9252 164.95 78.2183 164.176 77.6826 163.287C77.147 162.397 76.7933 161.41 76.6423 160.383L61.2423 50.9829C61.0995 49.9821 61.1882 48.962 61.5015 48.0009C61.8147 47.0399 62.3443 46.1634 63.0493 45.4391C63.7544 44.7147 64.6162 44.1617 65.5684 43.8225C66.5207 43.4834 67.5381 43.3672 68.5423 43.4829L186.742 57.4829C188.398 57.6752 189.949 58.3893 191.171 59.522C192.394 60.6546 193.224 62.1469 193.542 63.7829L208.742 141.883C208.861 142.449 208.863 143.033 208.75 143.599C208.636 144.166 208.409 144.704 208.082 145.181C207.755 145.657 207.334 146.063 206.846 146.372C206.358 146.682 205.813 146.89 205.242 146.983Z" fill="white"/>
<path d="M128.842 135.483L99.3422 138.883C98.2951 139.026 97.2341 138.748 96.391 138.111C95.5478 137.474 94.991 136.529 94.8422 135.483L84.0422 63.2829C83.966 62.8103 83.9996 62.3265 84.1404 61.8689C84.2812 61.4113 84.5255 60.9923 84.8542 60.6442C85.1829 60.2962 85.5873 60.0284 86.0361 59.8618C86.4848 59.6951 86.966 59.6339 87.4422 59.6829L116.942 61.8829C117.855 61.9414 118.719 62.3108 119.393 62.9294C120.066 63.5481 120.507 64.3787 120.642 65.2829L131.642 131.883C131.724 132.727 131.479 133.57 130.958 134.24C130.438 134.909 129.68 135.354 128.842 135.483Z" fill="#22272E"/>
<path d="M131.242 134.183L101.742 137.583C100.695 137.725 99.6341 137.448 98.791 136.811C97.9479 136.174 97.3911 135.229 97.2422 134.183L86.4422 61.9826C86.366 61.51 86.3996 61.0262 86.5405 60.5686C86.6813 60.111 86.9255 59.692 87.2542 59.344C87.5829 58.9959 87.9873 58.7282 88.4361 58.5615C88.8849 58.3948 89.366 58.3336 89.8422 58.3826L119.342 60.5826C120.255 60.6412 121.12 61.0105 121.793 61.6291C122.466 62.2478 122.907 63.0784 123.042 63.9826L134.042 130.583C134.144 131.431 133.907 132.285 133.383 132.959C132.859 133.633 132.089 134.073 131.242 134.183Z" fill="#6DAFA7"/>
<path d="M102.142 63.9829L106.742 64.2829" stroke="#22272E" stroke-width="1.8" stroke-linecap="round" stroke-linejoin="round"/>
<path d="M109.142 64.4829H109.442" stroke="#22272E" stroke-width="1.8" stroke-linecap="round" stroke-linejoin="round"/>
<path d="M87.3423 67.6826L123.942 69.5826" stroke="#22272E" stroke-width="1.8" stroke-linecap="round" stroke-linejoin="round"/>
<path d="M96.4423 128.583L133.042 125.183" stroke="#22272E" stroke-width="1.8" stroke-linecap="round" stroke-linejoin="round"/>
<path d="M170.942 72.9828C171.442 75.7828 170.142 77.9828 168.042 77.8828C165.942 77.7828 163.642 75.3828 163.142 72.5828C162.642 69.7828 163.942 67.4828 166.142 67.6828C168.342 67.8828 170.342 70.1828 170.942 72.9828Z" fill="#22272E"/>
<path d="M174.842 90.8828H165.842C165.075 90.8881 164.33 90.619 163.744 90.1239C163.157 89.6288 162.766 88.9404 162.642 88.1828L162.342 86.5828C161.442 81.2828 163.942 77.1828 167.842 77.2828C171.742 77.3828 175.542 81.5828 176.442 86.6828L176.742 88.4828C176.821 88.7702 176.831 89.072 176.771 89.364C176.712 89.6559 176.584 89.9297 176.399 90.1633C176.214 90.3969 175.977 90.5838 175.707 90.7087C175.436 90.8337 175.14 90.8933 174.842 90.8828Z" fill="#22272E"/>
<path d="M164.342 106.683C164.842 109.683 163.442 112.183 161.142 112.383C158.842 112.583 156.442 110.183 155.942 107.083C155.442 103.983 156.842 101.483 159.242 101.383C161.642 101.283 163.742 103.683 164.342 106.683Z" fill="#22272E"/>
<path d="M168.342 125.783L158.842 126.783C158.012 126.872 157.179 126.643 156.511 126.141C155.843 125.64 155.389 124.905 155.242 124.083L154.942 122.483C153.942 116.883 156.642 112.083 160.942 111.783C165.042 111.483 169.142 115.683 170.142 121.083L170.442 122.883C170.518 123.213 170.522 123.556 170.454 123.888C170.386 124.22 170.249 124.534 170.05 124.809C169.851 125.083 169.596 125.312 169.301 125.48C169.007 125.648 168.68 125.751 168.342 125.783Z" fill="#22272E"/>
<path d="M188.742 105.483C189.242 108.283 188.142 110.583 186.142 110.783C184.142 110.983 182.042 108.683 181.542 105.883C181.042 103.083 182.242 100.683 184.242 100.583C186.242 100.483 188.242 102.783 188.742 105.483Z" fill="#22272E"/>
<path d="M192.342 123.283L184.942 124.083C184.123 124.169 183.303 123.937 182.651 123.434C181.999 122.931 181.566 122.197 181.442 121.383L181.242 120.083C180.242 114.883 182.542 110.483 186.142 110.183C189.742 109.983 193.342 113.883 194.242 118.883L194.542 120.383C194.633 121.059 194.453 121.743 194.041 122.287C193.629 122.83 193.018 123.188 192.342 123.283Z" fill="#22272E"/>
<path d="M136.542 92.7826L145.742 92.6826" stroke="#22272E" stroke-width="1.8" stroke-linecap="round" stroke-linejoin="round"/>
<path d="M145.542 96.8828L150.742 93.4828C150.885 93.3983 151.002 93.276 151.079 93.1294C151.157 92.9829 151.192 92.8177 151.182 92.6522C151.172 92.4866 151.116 92.3272 151.021 92.1914C150.925 92.0557 150.794 91.9488 150.642 91.8828L144.242 88.5828C144.091 88.4911 143.915 88.4473 143.738 88.4572C143.561 88.4671 143.391 88.5302 143.25 88.6383C143.11 88.7464 143.005 88.8944 142.95 89.0629C142.895 89.2314 142.892 89.4127 142.942 89.5828L144.142 96.2828C144.158 96.4375 144.214 96.5853 144.306 96.7107C144.398 96.8361 144.522 96.9346 144.665 96.9959C144.808 97.0571 144.965 97.079 145.119 97.0591C145.273 97.0392 145.419 96.9783 145.542 96.8828Z" fill="#22272E"/>
<path d="M375.142 434.483C375.142 434.483 376.542 448.183 377.742 455.283C378.042 457.383 385.942 459.783 393.142 458.283C402.042 456.483 402.542 451.383 402.542 451.383C402.542 451.383 400.842 427.383 400.642 425.683C400.442 423.983 376.442 428.483 375.142 434.483Z" fill="#F4C2C9"/>
<path d="M400.342 443.383C393.442 446.883 384.442 446.983 379.142 446.683C377.966 446.62 376.85 446.145 375.99 445.34C375.13 444.535 374.582 443.452 374.442 442.283C373.942 437.883 373.542 434.483 373.542 434.483C374.942 427.783 401.842 422.783 402.042 424.683C402.142 425.583 402.642 432.083 403.142 438.583C403.187 439.567 402.947 440.544 402.45 441.396C401.953 442.247 401.221 442.937 400.342 443.383Z" fill="#22272E"/>
<path d="M377.542 454.483C377.542 454.483 376.242 456.183 376.842 460.083C377.442 463.983 376.742 481.483 378.942 483.583C381.142 485.683 405.942 484.183 417.042 481.683C428.942 478.983 436.442 474.283 437.242 471.783C438.442 468.183 437.442 467.683 425.142 464.083C412.842 460.483 406.642 455.383 404.042 452.483C403.526 451.879 402.892 451.385 402.18 451.032C401.468 450.678 400.692 450.472 399.899 450.425C399.105 450.379 398.31 450.492 397.562 450.76C396.813 451.028 396.126 451.444 395.542 451.983C394.042 453.283 392.242 457.983 388.942 457.983C381.042 457.883 378.342 454.083 377.542 454.483Z" fill="#22272E"/>
<path d="M420.642 461.383C420.642 461.383 411.442 462.183 404.742 471.783" stroke="white" stroke-width="1.8" stroke-linecap="round" stroke-linejoin="round"/>
<path d="M413.042 457.883C410.152 458.375 407.395 459.466 404.95 461.084C402.505 462.703 400.425 464.814 398.842 467.283" stroke="white" stroke-width="1.8" stroke-linecap="round" stroke-linejoin="round"/>
<path d="M291.542 434.783C291.542 434.783 290.142 454.083 289.942 454.983C289.742 455.883 291.342 460.583 300.842 461.883C310.342 463.183 313.542 457.383 313.542 457.383C313.542 457.383 316.942 439.683 317.542 436.483C318.142 433.283 294.642 431.483 291.542 434.783Z" fill="#F4C2C9"/>
<path d="M319.342 436.083C319.042 437.383 318.342 440.983 317.642 444.983C317.453 446.051 316.921 447.029 316.128 447.768C315.334 448.508 314.321 448.969 313.242 449.083C306.332 449.859 299.337 448.968 292.842 446.483C291.802 446.091 290.918 445.372 290.323 444.434C289.728 443.496 289.454 442.39 289.542 441.283C289.842 437.283 290.042 433.983 290.042 433.983C293.442 430.283 320.042 432.483 319.342 436.083Z" fill="#22272E"/>
<path d="M289.942 454.283C289.942 454.283 287.542 454.883 287.342 458.983C287.142 463.083 282.442 481.783 282.642 483.783C282.842 485.783 283.942 488.283 299.042 488.083C314.142 487.883 322.542 488.683 325.342 486.283C328.142 483.883 324.342 478.383 321.542 473.383C318.742 468.383 314.542 460.883 313.842 456.783C312.823 457.495 311.713 458.067 310.542 458.483C309.642 458.583 308.742 454.283 303.142 454.283C296.642 454.283 294.342 457.883 293.742 457.783C292.084 457.13 290.729 455.882 289.942 454.283Z" fill="#22272E"/>
<path d="M294.042 466.383C294.042 466.383 305.242 462.183 315.142 466.383" stroke="white" stroke-width="1.8" stroke-linecap="round" stroke-linejoin="round"/>
<path d="M293.242 472.083C293.242 472.083 306.542 467.883 317.542 472.083" stroke="white" stroke-width="1.8" stroke-linecap="round" stroke-linejoin="round"/>
<path d="M316.942 255.583C316.942 255.583 338.142 261.383 363.542 270.383C387.542 278.883 396.942 283.883 399.542 300.583C402.142 317.283 398.942 376.783 402.142 392.483C405.342 408.183 409.042 419.283 405.942 427.383C405.417 428.953 404.58 430.401 403.48 431.638C402.38 432.876 401.04 433.877 399.542 434.583C399.542 434.583 386.642 440.083 375.142 437.483C372.954 436.802 370.925 435.69 369.173 434.213C367.422 432.736 365.983 430.924 364.942 428.883C361.142 421.783 364.842 398.883 361.942 381.783C359.042 364.683 355.842 336.483 352.342 317.583C348.842 298.683 291.842 291.083 284.542 276.183C277.242 261.283 281.042 248.183 281.042 248.183C281.042 248.183 310.542 247.583 316.942 255.583Z" fill="#22272E"/>
<path d="M302.142 274.583C302.11 272.068 301.876 269.56 301.442 267.083" stroke="#63737A" stroke-width="1.8" stroke-linecap="round" stroke-linejoin="round"/>
<path d="M400.442 311.583C399.201 311.903 397.924 312.07 396.642 312.083C387.842 312.083 380.342 304.683 379.942 295.683C379.8 292.785 380.451 289.903 381.825 287.348C383.2 284.792 385.246 282.661 387.742 281.183C394.642 285.783 398.142 291.483 399.542 300.683C399.942 303.283 400.242 307.083 400.442 311.583Z" stroke="#63737A" stroke-width="1.8" stroke-linecap="round" stroke-linejoin="round"/>
<path d="M218.242 256.883C218.242 256.883 217.442 264.283 218.142 281.183C218.842 297.683 231.442 319.283 258.442 319.583C285.442 319.883 301.342 319.583 301.342 319.583C301.342 319.583 299.242 329.183 298.242 353.683C297.242 378.183 289.842 394.983 285.042 410.283C280.842 423.683 280.842 433.083 290.542 437.583C299.399 440.675 308.776 442 318.142 441.483C318.142 441.483 325.542 440.883 327.742 423.183C329.942 405.483 339.342 371.283 347.042 349.283C354.742 327.283 360.842 299.083 348.942 289.483C337.042 279.883 296.542 274.083 294.442 273.083C292.342 272.083 292.642 258.583 290.142 250.283C287.742 241.783 226.342 240.183 218.242 256.883Z" fill="#22272E"/>
<path d="M347.142 349.183C354.842 327.283 360.942 298.983 349.042 289.383C337.142 279.783 296.642 273.983 294.542 272.983" stroke="#63737A" stroke-width="1.8" stroke-linecap="round" stroke-linejoin="round"/>
<path d="M294.642 272.983C294.642 272.983 284.242 270.983 280.042 271.683" stroke="#63737A" stroke-width="1.8" stroke-linecap="round" stroke-linejoin="round"/>
<path d="M220.042 292.083C223.542 290.583 228.742 286.883 231.942 277.783" stroke="#63737A" stroke-width="1.8" stroke-linecap="round" stroke-linejoin="round"/>
<path d="M301.342 319.583C302.503 316.466 304.27 313.611 306.542 311.183" stroke="#63737A" stroke-width="1.8" stroke-linecap="round" stroke-linejoin="round"/>
<path d="M355.642 312.383C354.393 314.955 352.447 317.125 350.025 318.646C347.602 320.166 344.802 320.976 341.942 320.983C333.142 320.983 325.642 313.583 325.242 304.583C325.107 302.478 325.405 300.368 326.118 298.383C326.831 296.399 327.943 294.581 329.387 293.044C330.83 291.507 332.574 290.282 334.51 289.446C336.446 288.61 338.533 288.18 340.642 288.183C342.828 288.191 344.989 288.637 346.999 289.496C349.009 290.355 350.826 291.609 352.342 293.183C355.242 297.883 356.142 304.683 355.642 312.383Z" stroke="#63737A" stroke-width="1.8" stroke-linecap="round" stroke-linejoin="round"/>
<path d="M294.642 447.183C294.424 446.127 294.424 445.038 294.642 443.983" stroke="#63737A" stroke-width="1.8" stroke-linecap="round" stroke-linejoin="round"/>
<path d="M303.342 449.083C303.857 447.976 304.195 446.795 304.342 445.583" stroke="#63737A" stroke-width="1.8" stroke-linecap="round" stroke-linejoin="round"/>
<path d="M312.542 449.083C313.159 448.124 313.631 447.079 313.942 445.983" stroke="#63737A" stroke-width="1.8" stroke-linecap="round" stroke-linejoin="round"/>
<path d="M380.542 446.683C379.976 445.37 379.573 443.993 379.342 442.583" stroke="#63737A" stroke-width="1.8" stroke-linecap="round" stroke-linejoin="round"/>
<path d="M391.642 446.083C391.811 444.577 391.71 443.053 391.342 441.583" stroke="#63737A" stroke-width="1.8" stroke-linecap="round" stroke-linejoin="round"/>
<path d="M401.442 442.583C401.739 441.161 401.705 439.689 401.342 438.283" stroke="#63737A" stroke-width="1.8" stroke-linecap="round" stroke-linejoin="round"/>
<path d="M296.442 141.083C296.442 141.083 306.342 142.783 322.142 146.483C331.916 148.682 341.796 150.384 351.742 151.583C351.742 151.583 368.042 144.283 387.342 135.983C398.419 131.117 409.733 126.812 421.242 123.083C421.242 123.083 426.242 123.483 429.142 130.783C430.258 133.574 430.704 136.588 430.442 139.583C430.378 140.351 430.136 141.093 429.737 141.752C429.338 142.411 428.792 142.969 428.142 143.383C423.742 146.283 411.642 154.383 392.642 167.483C368.442 184.183 358.342 185.383 346.342 184.883C333.042 184.283 300.042 178.883 300.042 178.883C300.042 178.883 291.142 177.183 288.042 161.283C285.142 145.383 293.342 140.483 296.442 141.083Z" fill="white"/>
<path d="M351.542 184.883C351.542 184.883 347.642 183.783 350.242 179.383C352.842 174.983 363.042 171.483 369.342 174.083C374.642 176.283 371.442 179.983 371.442 179.983" stroke="#6DAFA7" stroke-width="1.8" stroke-linecap="round" stroke-linejoin="round"/>
<path d="M415.042 125.183C414.534 128.979 415.161 132.841 416.842 136.283C420.142 142.783 424.142 144.883 425.342 145.283" stroke="#6DAFA7" stroke-width="1.8" stroke-linecap="round" stroke-linejoin="round"/>
<path d="M421.242 123.083C421.242 123.083 420.442 129.183 422.942 134.283C423.869 136.354 425.194 138.223 426.842 139.783C427.332 140.232 427.939 140.536 428.592 140.66C429.246 140.784 429.921 140.722 430.542 140.483C431.714 139.934 432.961 139.563 434.242 139.383C436.442 139.183 442.442 140.483 445.942 137.983C449.442 135.483 450.242 135.183 450.742 135.083C451.242 134.983 456.542 134.983 457.442 134.583C459.242 133.783 459.642 130.783 458.742 129.583C457.942 128.583 452.742 128.483 451.742 126.983C450.742 125.483 451.642 123.883 457.242 122.483C462.842 121.083 472.742 117.983 472.442 115.583C472.142 113.183 466.842 114.983 460.042 115.683C453.242 116.383 450.042 116.583 447.242 115.483C444.442 114.383 440.642 114.483 436.342 116.583C433.542 117.983 430.542 119.183 425.242 121.483C423.96 122.135 422.621 122.67 421.242 123.083Z" fill="#F4C2C9"/>
<path d="M458.142 122.283C458.709 123.894 459.046 125.577 459.142 127.283C459.242 129.483 456.042 135.483 453.742 136.583C451.442 137.683 449.942 136.483 448.942 134.883C447.942 133.283 445.342 123.783 450.342 122.683C455.342 121.583 457.142 121.383 458.142 122.283Z" fill="#B28D93"/>
<path d="M458.642 129.583C457.842 128.583 452.642 128.483 451.642 126.983C450.642 125.483 451.542 123.883 457.142 122.483C462.742 121.083 472.642 117.983 472.342 115.583" stroke="#896068" stroke-width="1.8" stroke-linecap="round" stroke-linejoin="round"/>
<path d="M449.542 116.183C447.661 116.083 445.776 116.251 443.942 116.683" stroke="#896068" stroke-width="1.8" stroke-linecap="round" stroke-linejoin="round"/>
<path d="M445.842 137.983C449.342 135.383 450.142 135.183 450.642 135.083C451.142 134.983 456.442 134.983 457.342 134.583" stroke="#896068" stroke-width="1.8" stroke-linecap="round" stroke-linejoin="round"/>
<path d="M259.642 130.483C259.642 130.483 260.742 126.383 268.242 126.783C275.742 127.183 286.642 131.083 287.342 136.683C288.042 142.283 263.142 145.383 259.642 130.483Z" fill="#22272E"/>
<path d="M313.142 175.783C312.142 144.183 296.542 141.083 296.542 141.083C283.732 139.194 270.789 138.357 257.842 138.583C236.642 138.983 220.042 142.583 211.442 154.783C203.842 165.583 187.242 213.483 191.542 226.783C195.142 237.983 205.742 240.683 224.742 237.383C223.542 244.383 222.142 249.883 222.142 249.883C230.142 255.683 247.842 261.383 274.342 261.383C297.942 261.383 309.842 253.683 309.842 253.683C308.942 246.583 314.042 207.383 313.142 175.783Z" fill="white"/>
<path d="M287.542 148.483C288.642 155.183 289.142 169.783 290.942 183.583C292.742 197.383 293.042 217.683 293.142 237.083C293.191 248.702 294.364 260.289 296.642 271.683C310.142 267.183 319.742 256.583 319.742 256.583C319.742 256.583 321.042 254.983 317.542 242.083C314.042 229.183 313.142 183.583 313.142 183.583C313.675 175.996 313.272 168.372 311.942 160.883C309.742 149.983 302.342 142.283 296.642 140.483C293.543 139.484 290.298 139.011 287.042 139.083C287.042 139.083 287.242 144.183 287.542 148.483Z" fill="#6DAFA7"/>
<path d="M261.242 119.083C261.242 119.083 260.642 130.483 260.642 136.083C260.642 145.883 274.042 155.983 279.042 155.983C287.142 155.983 288.542 146.483 288.142 142.283C287.742 138.083 287.642 125.883 287.742 125.583C287.842 125.283 266.242 113.683 261.242 119.083Z" fill="#F4C2C9"/>
<path d="M266.042 125.083C267.542 137.483 277.442 143.983 288.142 143.583C288.163 143.18 288.129 142.776 288.042 142.383C287.842 140.683 287.742 137.683 287.742 134.783C280.042 138.783 270.542 132.283 266.042 125.083Z" fill="#896068"/>
<path d="M273.142 153.783C272.442 165.683 276.842 195.283 276.842 228.883C276.842 262.483 271.942 276.283 271.942 276.283C230.642 281.183 209.642 263.783 209.642 263.783C209.642 263.783 211.242 260.283 214.742 250.583C218.242 240.883 218.242 228.983 218.242 228.983C218.242 228.983 223.042 185.083 221.342 175.283C219.642 165.483 213.342 152.483 213.342 152.483C213.342 152.483 218.342 145.183 231.742 141.483C242.142 138.583 253.442 138.283 257.942 138.283L257.842 138.783C262.442 149.083 273.142 153.783 273.142 153.783Z" fill="#6DAFA7"/>
<path d="M237.442 243.583C244.17 245.49 251.154 246.333 258.142 246.083C259.442 245.983 260.442 246.783 260.342 247.783V247.883C260.222 248.327 259.963 248.722 259.604 249.009C259.244 249.297 258.802 249.463 258.342 249.483C253.842 249.783 242.242 249.083 236.242 246.683C235.807 246.551 235.436 246.265 235.196 245.878C234.957 245.492 234.867 245.031 234.942 244.583C235.142 243.683 236.342 243.283 237.442 243.583Z" fill="#EAF9F3"/>
<path d="M302.942 243.283C304.942 242.783 309.442 241.783 314.342 240.083C315.042 239.883 315.842 240.483 316.042 241.483V241.583C316.158 241.891 316.162 242.231 316.052 242.542C315.943 242.853 315.726 243.115 315.442 243.283C313.142 244.183 307.342 246.283 303.642 246.483C303.291 246.441 302.96 246.295 302.693 246.063C302.426 245.831 302.234 245.525 302.142 245.183C301.942 244.283 302.242 243.483 302.942 243.283Z" fill="#EAF9F3"/>
<path d="M303.942 193.783H303.442C295.842 197.883 291.442 197.683 290.942 193.883C291.742 193.383 292.442 192.883 293.142 192.383C294.81 191.308 296.683 190.593 298.642 190.283C300.099 190.038 301.568 189.871 303.042 189.783C303.042 189.783 305.242 189.283 305.642 190.083C306.042 190.683 305.942 192.183 303.942 193.783Z" fill="#B28D93"/>
<path d="M354.342 228.883L297.542 228.783C297.122 228.785 296.705 228.699 296.32 228.529C295.935 228.36 295.59 228.112 295.307 227.801C295.025 227.49 294.81 227.123 294.678 226.723C294.547 226.324 294.5 225.901 294.542 225.483L298.842 181.483C298.934 180.533 299.393 179.656 300.121 179.04C300.85 178.423 301.79 178.116 302.742 178.183L359.742 181.983C360.376 182.044 360.96 182.35 361.371 182.836C361.782 183.321 361.987 183.948 361.942 184.583L357.342 226.183C357.268 226.925 356.919 227.614 356.364 228.113C355.809 228.612 355.089 228.887 354.342 228.883Z" fill="#22272E"/>
<path d="M334.942 186.883C334.972 186.736 334.969 186.584 334.932 186.438C334.896 186.293 334.827 186.158 334.731 186.042C334.635 185.927 334.514 185.835 334.377 185.773C334.241 185.711 334.092 185.68 333.942 185.683C333.609 185.698 333.29 185.825 333.036 186.042C332.782 186.26 332.609 186.555 332.542 186.883C332.512 187.03 332.516 187.182 332.552 187.327C332.589 187.473 332.658 187.608 332.754 187.723C332.85 187.838 332.971 187.931 333.107 187.993C333.243 188.055 333.392 188.086 333.542 188.083C333.871 188.052 334.182 187.92 334.432 187.705C334.683 187.49 334.861 187.203 334.942 186.883Z" fill="#63737A"/>
<path d="M283.642 217.983C283.538 218.415 283.328 218.815 283.032 219.147C282.735 219.479 282.361 219.731 281.942 219.883C267.22 226.168 252.001 231.219 236.442 234.983C232.242 235.983 228.242 236.883 224.642 237.483C205.542 240.683 195.042 238.083 191.442 226.883C187.142 213.583 203.742 165.783 211.342 154.883C211.953 154.006 212.621 153.171 213.342 152.383C223.842 144.183 234.742 152.183 237.142 165.583C238.342 172.683 235.342 180.483 232.842 189.383C231.042 195.783 226.442 206.083 226.442 206.083L278.842 200.683C279.31 200.61 279.789 200.664 280.229 200.84C280.669 201.016 281.054 201.307 281.342 201.683C286.142 206.983 284.542 214.883 283.642 217.983Z" fill="white"/>
<path d="M226.442 205.983C226.442 205.983 216.242 207.183 212.342 209.783" stroke="#6DAFA7" stroke-width="1.8" stroke-linecap="round" stroke-linejoin="round"/>
<path d="M271.742 201.283C271.742 201.283 268.942 204.483 270.042 211.183C271.242 218.483 274.442 220.483 276.642 221.983" stroke="#6DAFA7" stroke-width="1.8" stroke-linecap="round" stroke-linejoin="round"/>
<path d="M191.442 227.783C191.442 227.783 190.342 221.783 199.042 221.683C207.742 221.583 217.542 233.583 211.442 238.783" stroke="#6DAFA7" stroke-width="1.8" stroke-linecap="round" stroke-linejoin="round"/>
<path d="M323.542 208.783C322.942 210.683 318.342 208.883 314.842 207.883C310.342 206.583 307.342 205.583 307.042 205.483C309.953 207.051 312.729 208.857 315.342 210.883C318.942 213.583 321.642 216.483 320.442 217.883C319.242 219.283 312.042 215.083 312.042 215.083C312.042 215.083 314.642 216.883 315.242 218.983C315.842 221.083 312.342 220.383 305.742 216.383C305.742 216.383 303.242 216.483 298.542 218.583C293.842 220.683 286.842 219.683 284.642 218.983C283.765 218.724 282.856 218.589 281.942 218.583C281.439 218.578 280.943 218.458 280.492 218.233C280.042 218.007 279.649 217.683 279.342 217.283C277.479 215.028 276.299 212.286 275.942 209.383C275.542 205.683 276.442 203.583 277.142 202.583C277.464 202.062 277.96 201.673 278.542 201.483C279.746 201.074 280.916 200.573 282.042 199.983C282.942 199.483 286.242 197.083 289.542 194.883C290.025 194.573 290.493 194.24 290.942 193.883C295.107 194.097 299.281 194.063 303.442 193.783H303.942C308.242 193.483 319.742 194.483 320.942 195.783C322.142 197.083 320.442 198.783 315.042 198.683C312.132 198.676 309.224 198.876 306.342 199.283C309.323 200.03 312.234 201.034 315.042 202.283C319.242 204.183 324.242 206.883 323.542 208.783Z" fill="#F4C2C9"/>
<path d="M307.142 205.483C307.142 205.483 305.542 204.883 304.342 204.583C303.622 204.402 302.884 204.302 302.142 204.283" stroke="#896068" stroke-width="1.8" stroke-linecap="round" stroke-linejoin="round"/>
<path d="M312.042 215.083C312.042 215.083 308.742 211.683 304.942 210.883C303.242 210.583 302.142 210.483 302.142 210.483" stroke="#896068" stroke-width="1.8" stroke-linecap="round" stroke-linejoin="round"/>
<path d="M306.442 199.283C304.998 199.226 303.552 199.361 302.142 199.683" stroke="#896068" stroke-width="1.8" stroke-linecap="round" stroke-linejoin="round"/>
<path d="M297.742 193.983C296.938 193.994 296.134 193.927 295.342 193.783" stroke="#896068" stroke-width="1.8" stroke-linecap="round" stroke-linejoin="round"/>
<path d="M287.242 143.483C287.142 142.151 287.142 140.814 287.242 139.483C287.371 138.555 287.404 137.617 287.342 136.683V134.383C287.342 134.383 287.942 135.683 289.142 137.783C290.342 139.883 288.542 149.083 287.642 150.183L287.242 143.483Z" fill="#22272E"/>
<path d="M298.142 98.9829C297.757 105.077 297.757 111.189 298.142 117.283C298.405 121.857 297.144 126.39 294.557 130.172C291.969 133.953 288.201 136.771 283.842 138.183C277.142 140.283 264.542 135.083 261.542 120.183C258.542 105.283 252.042 88.4829 269.442 82.3829C286.842 76.2829 298.342 84.7829 298.142 98.9829Z" fill="#F4C2C9"/>
<path d="M260.542 109.483C260.542 109.483 262.642 108.183 263.342 103.783C263.383 103.292 263.54 102.818 263.801 102.401C264.062 101.983 264.419 101.634 264.842 101.383C265.843 100.947 266.722 100.272 267.402 99.418C268.082 98.5638 268.542 97.5559 268.742 96.4827C268.942 94.5827 269.742 93.1827 271.742 94.2827C287.442 103.383 297.842 95.0827 297.842 95.0827L297.942 100.783C304.042 99.0827 307.742 91.0827 306.542 85.1827C305.042 77.7827 302.242 79.1827 298.742 73.5827C295.242 67.9827 288.842 64.0827 280.642 66.9827C272.442 69.8827 269.442 71.1827 263.042 71.0827C256.642 70.9827 250.542 73.6827 250.042 79.6827C249.542 85.6827 244.042 87.4827 243.042 93.0827C242.042 98.6827 244.242 101.483 246.342 103.683C248.442 105.883 244.442 112.083 249.742 117.283C255.042 122.483 258.542 124.083 260.742 127.483C261.042 127.483 261.842 118.283 260.542 109.483Z" fill="#22272E"/>
<path d="M262.342 111.183C262.342 111.183 258.542 104.783 253.442 107.683C248.342 110.583 253.742 120.583 261.642 120.083" fill="#F4C2C9"/>
<path d="M289.642 106.283C289.999 107.286 290.505 108.23 291.142 109.083C291.417 109.438 291.718 109.772 292.042 110.083C292.572 110.45 293.015 110.928 293.342 111.483C293.653 112.065 293.823 112.711 293.841 113.371C293.858 114.03 293.722 114.685 293.442 115.283C293.227 115.852 292.885 116.365 292.442 116.783C292.047 117.23 291.523 117.544 290.942 117.683C291.563 116.87 291.943 115.9 292.042 114.883C292.16 114.037 292.057 113.176 291.742 112.383C291.542 111.983 291.342 111.883 290.842 111.383C290.417 110.913 290.079 110.371 289.842 109.783C289.429 108.662 289.359 107.443 289.642 106.283Z" fill="#22272E"/>
<path d="M278.542 110.483C278.357 110.487 278.173 110.453 278.002 110.385C277.83 110.316 277.674 110.213 277.543 110.082C277.412 109.951 277.309 109.795 277.24 109.623C277.171 109.452 277.138 109.268 277.142 109.083V107.683C277.138 107.498 277.171 107.314 277.24 107.142C277.309 106.971 277.412 106.815 277.543 106.684C277.674 106.553 277.83 106.45 278.002 106.381C278.173 106.312 278.357 106.279 278.542 106.283C278.727 106.279 278.911 106.312 279.083 106.381C279.254 106.45 279.41 106.553 279.541 106.684C279.672 106.815 279.775 106.971 279.844 107.142C279.913 107.314 279.946 107.498 279.942 107.683V109.083C279.935 109.452 279.785 109.803 279.524 110.064C279.263 110.325 278.911 110.475 278.542 110.483Z" fill="#22272E"/>
<path d="M294.042 110.483C293.857 110.487 293.673 110.453 293.502 110.385C293.33 110.316 293.174 110.213 293.043 110.082C292.912 109.951 292.809 109.795 292.74 109.623C292.671 109.452 292.638 109.268 292.642 109.083V107.683C292.638 107.498 292.671 107.314 292.74 107.142C292.809 106.971 292.912 106.815 293.043 106.684C293.174 106.553 293.33 106.45 293.502 106.381C293.673 106.312 293.857 106.279 294.042 106.283C294.227 106.279 294.411 106.312 294.583 106.381C294.754 106.45 294.91 106.553 295.041 106.684C295.172 106.815 295.275 106.971 295.344 107.142C295.413 107.314 295.446 107.498 295.442 107.683V109.083C295.435 109.452 295.285 109.803 295.024 110.064C294.763 110.325 294.411 110.475 294.042 110.483Z" fill="#22272E"/>
<path d="M280.542 103.183C279.542 103.583 278.842 102.383 277.342 102.783C275.042 103.483 273.942 104.283 273.542 103.283C273.242 102.583 274.642 100.783 276.842 100.183C280.042 99.4827 282.342 102.483 280.542 103.183Z" fill="#22272E"/>
<path d="M292.142 103.183C292.942 103.483 293.542 102.383 294.642 102.683C296.142 103.183 296.942 103.783 297.142 102.983C297.342 102.383 296.542 100.783 295.042 100.283C292.642 99.4829 290.542 102.583 292.142 103.183Z" fill="#22272E"/>
<path d="M254.242 111.883C254.299 111.67 254.399 111.471 254.537 111.299C254.675 111.126 254.847 110.985 255.042 110.883C255.25 110.715 255.491 110.592 255.75 110.523C256.008 110.455 256.278 110.441 256.542 110.483C257.105 110.597 257.604 110.918 257.942 111.383C258.212 111.76 258.447 112.162 258.642 112.583C258.91 113.296 259.111 114.032 259.242 114.783C259.342 115.083 259.342 115.283 259.542 115.483C259.83 115.728 260.173 115.899 260.542 115.983C260.158 116.233 259.697 116.34 259.242 116.283C258.719 116.14 258.26 115.822 257.942 115.383C257.526 114.725 257.19 114.02 256.942 113.283C256.828 112.975 256.694 112.674 256.542 112.383C256.467 112.177 256.327 112.001 256.142 111.883C255.842 111.483 255.042 111.583 254.242 111.883Z" fill="#22272E"/>
<path d="M263.242 173.583C263.642 177.383 261.142 181.483 257.542 181.783C255.79 181.848 254.079 181.244 252.756 180.094C251.434 178.944 250.598 177.333 250.42 175.589C250.242 173.845 250.734 172.098 251.797 170.704C252.86 169.31 254.413 168.373 256.142 168.083C259.842 167.683 262.942 169.783 263.242 173.583Z" fill="white"/>
<path d="M273.142 153.783C273.142 153.783 262.442 149.083 257.742 138.683L259.642 130.483C261.844 134.69 265.258 138.139 269.442 140.383C270.574 140.964 271.531 141.835 272.216 142.906C272.901 143.978 273.29 145.212 273.342 146.483C273.42 148.918 273.353 151.356 273.142 153.783Z" fill="#22272E"/>
<path d="M142.042 212.283C142.045 213.006 141.904 213.722 141.629 214.391C141.354 215.059 140.948 215.666 140.437 216.178C139.926 216.689 139.319 217.094 138.65 217.369C137.982 217.645 137.265 217.785 136.542 217.783C135.088 217.77 133.696 217.186 132.668 216.157C131.639 215.129 131.055 213.737 131.042 212.283C131.042 210.824 131.622 209.425 132.653 208.394C133.685 207.362 135.084 206.783 136.542 206.783C138.001 206.783 139.4 207.362 140.431 208.394C141.463 209.425 142.042 210.824 142.042 212.283Z" fill="#22272E"/>
<path d="M142.042 231.583H131.042C130.451 231.585 129.864 231.471 129.317 231.246C128.77 231.02 128.273 230.689 127.854 230.271C127.436 229.852 127.105 229.355 126.879 228.808C126.654 228.261 126.54 227.674 126.542 227.083C126.542 224.431 127.596 221.887 129.471 220.012C131.347 218.136 133.89 217.083 136.542 217.083C139.194 217.083 141.738 218.136 143.613 220.012C145.489 221.887 146.542 224.431 146.542 227.083C146.545 227.674 146.43 228.261 146.205 228.808C145.98 229.355 145.649 229.852 145.23 230.271C144.812 230.689 144.315 231.02 143.767 231.246C143.22 231.471 142.634 231.585 142.042 231.583Z" fill="#22272E"/>
<path d="M108.542 219.183C108.535 225.077 110.388 230.822 113.837 235.602C117.286 240.381 122.155 243.95 127.751 245.801C133.347 247.651 139.384 247.689 145.003 245.908C150.621 244.127 155.534 240.619 159.042 235.883" stroke="#6DAFA7" stroke-width="1.8" stroke-linecap="round" stroke-linejoin="round"/>
<path d="M162.042 239.183L162.242 230.183L154.342 234.483L162.042 239.183Z" fill="#6DAFA7"/>
<path d="M164.442 219.183C164.437 213.206 162.519 207.387 158.97 202.578C155.42 197.769 150.424 194.222 144.714 192.456C139.003 190.69 132.877 190.798 127.232 192.765C121.588 194.731 116.72 198.452 113.342 203.383" stroke="#6DAFA7" stroke-width="1.8" stroke-linecap="round" stroke-linejoin="round"/>
<path d="M110.242 200.183L110.442 209.083L118.142 204.483L110.242 200.183Z" fill="#6DAFA7"/>
<path d="M298.001 119.534C298.001 119.534 297.951 120.784 296.291 121.068C294.63 121.351 294.435 118.895 291.603 118.517C289.845 118.328 283.692 118.801 281.153 121.068C278.614 123.334 275.098 125.979 270.02 124.468C264.941 122.957 263.414 115.106 262.437 105.094C261.558 95.9314 258.042 104.81 258.042 106.983C258.042 108.494 258.007 107.277 259.765 113.417C260.546 116.156 259.765 123.901 262.793 129.569C265.136 133.914 271.68 138.353 279.981 138.92C288.282 139.487 295.119 136.181 297.17 130.891C299.221 125.79 298.501 119.534 298.001 119.534Z" fill="#22272E"/>
<path d="M281.542 125.983C283.248 126.691 285.112 126.933 286.942 126.683" stroke="#F4C2C9" stroke-width="1.8" stroke-linecap="round" stroke-linejoin="round"/>
</svg>
