<svg width="245" height="68" viewBox="0 0 245 68" fill="none" xmlns="http://www.w3.org/2000/svg">
<g id="Group 9">
<path id="Vector 5" d="M4.76721 41.6587C7.5199 40.4777 11.1264 39.4098 15.5344 37.6164L33.3464 37.1274C42.0811 41.7998 53.0934 43.8969 54 49.1343V63.2805C54 65.4896 52.2091 67.2805 50 67.2805H4C1.79086 67.2805 0 65.4896 0 63.2805V50.7399C0 46.9598 1.2933 43.1492 4.76721 41.6587Z" fill="white"/>
<path id="Vector 10" d="M23.3284 49.7318C24.047 47.6999 22.2891 46.7872 22.2891 46.7872L25.1416 43.2883L31.0679 46.1678C29.1717 47.7208 27.3254 49.5383 27.1349 51.9819C27.0449 53.1369 27.1233 54.5424 27.5188 56.1754C28.6355 60.4239 28.2154 62.8253 28.2154 62.8253C27.6404 65.1832 27.5188 67.2804 27.5188 67.2804H23.3284C22.9082 66.8675 23.8923 62.8253 23.8923 62.8253C24.1797 62.0538 23.3284 56.1754 23.3284 56.1754C23.0409 54.4803 23.2242 50.0265 23.3284 49.7318Z" fill="#ECECEC"/>
<path id="Vector 4" d="M14.6612 39.2136C14.5064 37.3446 15.4351 34.9324 15.4351 34.9324L26.9782 45.0703C26.7227 46.1187 26.2939 46.9814 24.7337 48.6235C24.7337 48.6235 25.0322 47.4065 24.6453 47.3087C24.2804 47.124 23.6612 47.287 23.2964 47.1892C23.2678 47.0737 23.2964 46.8849 23.2964 46.8849C21.9293 46.9848 21.2177 46.5915 19.4155 46.0483C19.0719 46.2207 18.8864 46.403 18.6307 46.7477C18.5653 46.8359 18.5422 47.0034 18.5807 47.1063C18.6623 47.3242 18.6327 47.5349 18.4571 47.6877C17.6974 48.3487 16.8117 48.3875 14.9819 48.0476C14.595 47.1655 14.4069 44.8965 14.1526 42.3538C14.0289 41.118 14.5869 40.3489 14.6612 39.2136Z" fill="#ECECEC"/>
<path id="Vector 3" d="M16.4096 38.0948C16.1471 37.6265 16.1154 36.9363 16.1775 36.1824L22.557 37.0191L32.8838 38.2904C29.9976 43.3501 29.0894 45.2038 28.7818 46.7006C27.6098 47.1027 26.5042 47.0483 24.8789 48.4283C26.0951 46.6246 22.6753 45.8919 21.2634 44.2666C19.2622 41.8109 18.0423 40.3739 16.4096 38.0948Z" fill="#C99281"/>
<path id="Vector 6" d="M33.5905 37.2144C33.5905 37.2144 34.6191 39.0327 34.4864 39.4565C34.4864 39.4565 34.287 40.4089 34.4864 41.2168C34.4864 41.2168 35.0167 47.1241 34.9615 48.4824C34.9615 48.4824 32.2747 48.4824 31.5671 48.026C31.116 47.6261 30.9516 47.3668 30.9258 47.2871C30.9258 47.2871 31.0275 46.7411 30.8374 46.5048C30.6706 46.2973 30.2735 46.2983 30.2735 46.2983C30.2735 46.2983 29.3779 46.7112 27.8853 46.9394H27.7637C27.7637 46.9394 28.6617 46.5116 29.0794 45.4616C29.9244 43.3374 30.4422 42.1878 32.4627 38.866L32.7059 38.3661L33.5905 37.2144Z" fill="#ECECEC"/>
<path id="Vector 1" fill-rule="evenodd" clip-rule="evenodd" d="M12.9377 20.7958C12.9377 20.7958 12.9378 17.4274 12.7718 12.8962C12.694 10.7725 11.9205 3.94268 16.7522 3.45372C16.7522 3.45372 15.9119 2.47578 17.0065 1.42178C17.0065 1.42178 19.6933 -1.55548 31.1478 1.10666C31.1478 1.10666 37.7818 3.45372 35.8137 7.05036C35.8137 7.05036 40.3579 11.9074 38.2461 15.2868V21.4478C38.2461 21.4478 36.7425 20.7958 37.3727 23.0668C37.3727 23.0668 37.3727 26.9894 37.1073 28.1629C37.1073 28.1629 37.1073 32.618 34.7412 35.8886C34.7412 35.8886 32.939 39.3549 28.5606 41.7128C28.5606 41.7128 26.9597 43.1559 21.4955 41.8844C21.0379 41.7779 20.6137 41.5527 20.2668 41.2359C17.7283 38.9178 15.4569 36.1693 13.6786 31.4444C13.6786 31.4444 12.9377 26.9785 13.4022 22.9364V21.6542C13.4022 21.1 12.9377 20.7958 12.9377 20.7958Z" fill="#1F0D0B"/>
<path id="Vector 9" d="M26.7243 34.8783L23.0977 34.6501C23.6538 36.6276 20.5498 37.6618 19.5124 35.8888C19.4841 35.8404 19.4712 35.8128 19.4712 35.8128C19.0707 34.4492 19.1281 33.793 19.6149 32.7703C21.7267 31.1055 22.9514 30.656 25.2066 31.0344C27.074 30.906 28.2859 31.3505 30.1447 33.1059C30.3281 33.2791 30.4376 33.5197 30.438 33.772C30.4416 36.0424 29.5 37 29.5 37C28.8378 37.3538 27.9096 37.4378 27.1402 37.1967C26.4281 36.9737 26.109 36.2212 26.4026 35.5351C26.5562 35.1763 26.7243 34.8783 26.7243 34.8783Z" fill="#E6AB99"/>
<path id="Vector 7" d="M16.2974 13.8092C16.2974 13.8092 15.2692 12.2011 15.9547 11.4622C15.9547 11.4622 20.0456 6.29 24.8883 8.8435C30.4195 6.76396 32.0529 8.8435 35.392 12.8965C35.2541 15.2581 35 17 35.5529 20.7961C36.7139 26.2182 34 36.5 31.9866 34.1829C32 33.5 32.3183 33.1398 31.9866 32.1075C31.4368 31.3497 30.4397 30.7822 29.2455 30.2616C27.8747 29.6639 26.3801 29.3659 24.8883 29.2606C23.1825 29.1403 21.4943 29.3574 19.8654 29.8781C19.302 30.0582 18.8424 30.21 18.3429 30.4994C17.5169 31.7535 16.5106 32.1249 15.6232 30.9135C15.4355 30.6574 15.2333 30.3923 15.0149 30.1299C14.0087 29.4236 13.9424 24.1428 13.9424 24.1428C14.0799 20.3272 14.3899 18.1174 16.2974 13.8092Z" fill="#E7AB99"/>
<path id="Vector 2" d="M11.9629 23.469C12.2172 25.6639 13.3671 27.1743 13.3671 27.1743L13.7319 22.2085C13.7077 21.4223 13.5405 21.038 12.9911 20.4482C12.315 21.0197 12.0965 21.6951 11.9629 23.469Z" fill="#C99181"/>
<path id="Vector 8" d="M39 23.4665C38.8696 24.9931 37 27 37 27V22.1535L37.4457 21.0113C37.4457 21.0113 39 20.691 39 23.4665Z" fill="#E6AB99"/>
<g id="Desarrollo a tu medida">
<path d="M72.71 54.5H76.985C78.095 54.5 79.075 54.725 79.925 55.175C80.775 55.615 81.435 56.235 81.905 57.035C82.375 57.825 82.61 58.73 82.61 59.75C82.61 60.77 82.375 61.68 81.905 62.48C81.435 63.27 80.775 63.89 79.925 64.34C79.075 64.78 78.095 65 76.985 65H72.71V54.5ZM76.925 64.04C77.845 64.04 78.65 63.86 79.34 63.5C80.03 63.13 80.565 62.625 80.945 61.985C81.325 61.335 81.515 60.59 81.515 59.75C81.515 58.91 81.325 58.17 80.945 57.53C80.565 56.88 80.03 56.375 79.34 56.015C78.65 55.645 77.845 55.46 76.925 55.46H73.82V64.04H76.925Z" fill="white"/>
<path d="M91.7476 61.385H85.1476C85.2076 62.205 85.5226 62.87 86.0926 63.38C86.6626 63.88 87.3826 64.13 88.2526 64.13C88.7426 64.13 89.1926 64.045 89.6026 63.875C90.0126 63.695 90.3676 63.435 90.6676 63.095L91.2676 63.785C90.9176 64.205 90.4776 64.525 89.9476 64.745C89.4276 64.965 88.8526 65.075 88.2226 65.075C87.4126 65.075 86.6926 64.905 86.0626 64.565C85.4426 64.215 84.9576 63.735 84.6076 63.125C84.2576 62.515 84.0826 61.825 84.0826 61.055C84.0826 60.285 84.2476 59.595 84.5776 58.985C84.9176 58.375 85.3776 57.9 85.9576 57.56C86.5476 57.22 87.2076 57.05 87.9376 57.05C88.6676 57.05 89.3226 57.22 89.9026 57.56C90.4826 57.9 90.9376 58.375 91.2676 58.985C91.5976 59.585 91.7626 60.275 91.7626 61.055L91.7476 61.385ZM87.9376 57.965C87.1776 57.965 86.5376 58.21 86.0176 58.7C85.5076 59.18 85.2176 59.81 85.1476 60.59H90.7426C90.6726 59.81 90.3776 59.18 89.8576 58.7C89.3476 58.21 88.7076 57.965 87.9376 57.965Z" fill="white"/>
<path d="M96.0453 65.075C95.4053 65.075 94.7903 64.985 94.2003 64.805C93.6203 64.615 93.1653 64.38 92.8353 64.1L93.3153 63.26C93.6453 63.52 94.0603 63.735 94.5603 63.905C95.0603 64.065 95.5803 64.145 96.1203 64.145C96.8403 64.145 97.3703 64.035 97.7103 63.815C98.0603 63.585 98.2353 63.265 98.2353 62.855C98.2353 62.565 98.1403 62.34 97.9503 62.18C97.7603 62.01 97.5203 61.885 97.2303 61.805C96.9403 61.715 96.5553 61.63 96.0753 61.55C95.4353 61.43 94.9203 61.31 94.5303 61.19C94.1403 61.06 93.8053 60.845 93.5253 60.545C93.2553 60.245 93.1203 59.83 93.1203 59.3C93.1203 58.64 93.3953 58.1 93.9453 57.68C94.4953 57.26 95.2603 57.05 96.2403 57.05C96.7503 57.05 97.2603 57.12 97.7703 57.26C98.2803 57.39 98.7003 57.565 99.0303 57.785L98.5653 58.64C97.9153 58.19 97.1403 57.965 96.2403 57.965C95.5603 57.965 95.0453 58.085 94.6953 58.325C94.3553 58.565 94.1853 58.88 94.1853 59.27C94.1853 59.57 94.2803 59.81 94.4703 59.99C94.6703 60.17 94.9153 60.305 95.2053 60.395C95.4953 60.475 95.8953 60.56 96.4053 60.65C97.0353 60.77 97.5403 60.89 97.9203 61.01C98.3003 61.13 98.6253 61.335 98.8953 61.625C99.1653 61.915 99.3003 62.315 99.3003 62.825C99.3003 63.515 99.0103 64.065 98.4303 64.475C97.8603 64.875 97.0653 65.075 96.0453 65.075Z" fill="white"/>
<path d="M104.029 57.05C105.059 57.05 105.849 57.31 106.399 57.83C106.949 58.34 107.224 59.1 107.224 60.11V65H106.204V63.77C105.964 64.18 105.609 64.5 105.139 64.73C104.679 64.96 104.129 65.075 103.489 65.075C102.609 65.075 101.909 64.865 101.389 64.445C100.869 64.025 100.609 63.47 100.609 62.78C100.609 62.11 100.849 61.57 101.329 61.16C101.819 60.75 102.594 60.545 103.654 60.545H106.159V60.065C106.159 59.385 105.969 58.87 105.589 58.52C105.209 58.16 104.654 57.98 103.924 57.98C103.424 57.98 102.944 58.065 102.484 58.235C102.024 58.395 101.629 58.62 101.299 58.91L100.819 58.115C101.219 57.775 101.699 57.515 102.259 57.335C102.819 57.145 103.409 57.05 104.029 57.05ZM103.654 64.235C104.254 64.235 104.769 64.1 105.199 63.83C105.629 63.55 105.949 63.15 106.159 62.63V61.34H103.684C102.334 61.34 101.659 61.81 101.659 62.75C101.659 63.21 101.834 63.575 102.184 63.845C102.534 64.105 103.024 64.235 103.654 64.235Z" fill="white"/>
<path d="M111.137 58.655C111.387 58.125 111.757 57.725 112.247 57.455C112.747 57.185 113.362 57.05 114.092 57.05V58.085L113.837 58.07C113.007 58.07 112.357 58.325 111.887 58.835C111.417 59.345 111.182 60.06 111.182 60.98V65H110.117V57.11H111.137V58.655Z" fill="white"/>
<path d="M117.04 58.655C117.29 58.125 117.66 57.725 118.15 57.455C118.65 57.185 119.265 57.05 119.995 57.05V58.085L119.74 58.07C118.91 58.07 118.26 58.325 117.79 58.835C117.32 59.345 117.085 60.06 117.085 60.98V65H116.02V57.11H117.04V58.655Z" fill="white"/>
<path d="M125.075 65.075C124.315 65.075 123.63 64.905 123.02 64.565C122.41 64.215 121.93 63.735 121.58 63.125C121.23 62.515 121.055 61.825 121.055 61.055C121.055 60.285 121.23 59.595 121.58 58.985C121.93 58.375 122.41 57.9 123.02 57.56C123.63 57.22 124.315 57.05 125.075 57.05C125.835 57.05 126.52 57.22 127.13 57.56C127.74 57.9 128.215 58.375 128.555 58.985C128.905 59.595 129.08 60.285 129.08 61.055C129.08 61.825 128.905 62.515 128.555 63.125C128.215 63.735 127.74 64.215 127.13 64.565C126.52 64.905 125.835 65.075 125.075 65.075ZM125.075 64.13C125.635 64.13 126.135 64.005 126.575 63.755C127.025 63.495 127.375 63.13 127.625 62.66C127.875 62.19 128 61.655 128 61.055C128 60.455 127.875 59.92 127.625 59.45C127.375 58.98 127.025 58.62 126.575 58.37C126.135 58.11 125.635 57.98 125.075 57.98C124.515 57.98 124.01 58.11 123.56 58.37C123.12 58.62 122.77 58.98 122.51 59.45C122.26 59.92 122.135 60.455 122.135 61.055C122.135 61.655 122.26 62.19 122.51 62.66C122.77 63.13 123.12 63.495 123.56 63.755C124.01 64.005 124.515 64.13 125.075 64.13Z" fill="white"/>
<path d="M131.255 53.87H132.32V65H131.255V53.87Z" fill="white"/>
<path d="M135.283 53.87H136.348V65H135.283V53.87Z" fill="white"/>
<path d="M142.536 65.075C141.776 65.075 141.091 64.905 140.481 64.565C139.871 64.215 139.391 63.735 139.041 63.125C138.691 62.515 138.516 61.825 138.516 61.055C138.516 60.285 138.691 59.595 139.041 58.985C139.391 58.375 139.871 57.9 140.481 57.56C141.091 57.22 141.776 57.05 142.536 57.05C143.296 57.05 143.981 57.22 144.591 57.56C145.201 57.9 145.676 58.375 146.016 58.985C146.366 59.595 146.541 60.285 146.541 61.055C146.541 61.825 146.366 62.515 146.016 63.125C145.676 63.735 145.201 64.215 144.591 64.565C143.981 64.905 143.296 65.075 142.536 65.075ZM142.536 64.13C143.096 64.13 143.596 64.005 144.036 63.755C144.486 63.495 144.836 63.13 145.086 62.66C145.336 62.19 145.461 61.655 145.461 61.055C145.461 60.455 145.336 59.92 145.086 59.45C144.836 58.98 144.486 58.62 144.036 58.37C143.596 58.11 143.096 57.98 142.536 57.98C141.976 57.98 141.471 58.11 141.021 58.37C140.581 58.62 140.231 58.98 139.971 59.45C139.721 59.92 139.596 60.455 139.596 61.055C139.596 61.655 139.721 62.19 139.971 62.66C140.231 63.13 140.581 63.495 141.021 63.755C141.471 64.005 141.976 64.13 142.536 64.13Z" fill="white"/>
<path d="M155.401 57.05C156.431 57.05 157.221 57.31 157.771 57.83C158.321 58.34 158.596 59.1 158.596 60.11V65H157.576V63.77C157.336 64.18 156.981 64.5 156.511 64.73C156.051 64.96 155.501 65.075 154.861 65.075C153.981 65.075 153.281 64.865 152.761 64.445C152.241 64.025 151.981 63.47 151.981 62.78C151.981 62.11 152.221 61.57 152.701 61.16C153.191 60.75 153.966 60.545 155.026 60.545H157.531V60.065C157.531 59.385 157.341 58.87 156.961 58.52C156.581 58.16 156.026 57.98 155.296 57.98C154.796 57.98 154.316 58.065 153.856 58.235C153.396 58.395 153.001 58.62 152.671 58.91L152.191 58.115C152.591 57.775 153.071 57.515 153.631 57.335C154.191 57.145 154.781 57.05 155.401 57.05ZM155.026 64.235C155.626 64.235 156.141 64.1 156.571 63.83C157.001 63.55 157.321 63.15 157.531 62.63V61.34H155.056C153.706 61.34 153.031 61.81 153.031 62.75C153.031 63.21 153.206 63.575 153.556 63.845C153.906 64.105 154.396 64.235 155.026 64.235Z" fill="white"/>
<path d="M169.57 64.52C169.37 64.7 169.12 64.84 168.82 64.94C168.53 65.03 168.225 65.075 167.905 65.075C167.165 65.075 166.595 64.875 166.195 64.475C165.795 64.075 165.595 63.51 165.595 62.78V58.01H164.185V57.11H165.595V55.385H166.66V57.11H169.06V58.01H166.66V62.72C166.66 63.19 166.775 63.55 167.005 63.8C167.245 64.04 167.585 64.16 168.025 64.16C168.245 64.16 168.455 64.125 168.655 64.055C168.865 63.985 169.045 63.885 169.195 63.755L169.57 64.52Z" fill="white"/>
<path d="M178.618 57.11V65H177.598V63.56C177.318 64.04 176.933 64.415 176.443 64.685C175.953 64.945 175.393 65.075 174.763 65.075C173.733 65.075 172.918 64.79 172.318 64.22C171.728 63.64 171.433 62.795 171.433 61.685V57.11H172.498V61.58C172.498 62.41 172.703 63.04 173.113 63.47C173.523 63.9 174.108 64.115 174.868 64.115C175.698 64.115 176.353 63.865 176.833 63.365C177.313 62.855 177.553 62.15 177.553 61.25V57.11H178.618Z" fill="white"/>
<path d="M195.367 57.05C196.357 57.05 197.132 57.335 197.692 57.905C198.262 58.475 198.547 59.315 198.547 60.425V65H197.482V60.53C197.482 59.71 197.282 59.085 196.882 58.655C196.492 58.225 195.937 58.01 195.217 58.01C194.397 58.01 193.752 58.265 193.282 58.775C192.812 59.275 192.577 59.97 192.577 60.86V65H191.512V60.53C191.512 59.71 191.312 59.085 190.912 58.655C190.522 58.225 189.962 58.01 189.232 58.01C188.422 58.01 187.777 58.265 187.297 58.775C186.827 59.275 186.592 59.97 186.592 60.86V65H185.527V57.11H186.547V58.55C186.827 58.07 187.217 57.7 187.717 57.44C188.217 57.18 188.792 57.05 189.442 57.05C190.102 57.05 190.672 57.19 191.152 57.47C191.642 57.75 192.007 58.165 192.247 58.715C192.537 58.195 192.952 57.79 193.492 57.5C194.042 57.2 194.667 57.05 195.367 57.05Z" fill="white"/>
<path d="M208.335 61.385H201.735C201.795 62.205 202.109 62.87 202.68 63.38C203.25 63.88 203.97 64.13 204.84 64.13C205.33 64.13 205.78 64.045 206.19 63.875C206.6 63.695 206.954 63.435 207.255 63.095L207.855 63.785C207.505 64.205 207.064 64.525 206.535 64.745C206.014 64.965 205.44 65.075 204.81 65.075C204 65.075 203.28 64.905 202.65 64.565C202.03 64.215 201.545 63.735 201.195 63.125C200.844 62.515 200.67 61.825 200.67 61.055C200.67 60.285 200.835 59.595 201.165 58.985C201.505 58.375 201.965 57.9 202.545 57.56C203.135 57.22 203.795 57.05 204.525 57.05C205.255 57.05 205.91 57.22 206.49 57.56C207.07 57.9 207.525 58.375 207.855 58.985C208.185 59.585 208.35 60.275 208.35 61.055L208.335 61.385ZM204.525 57.965C203.765 57.965 203.125 58.21 202.605 58.7C202.095 59.18 201.805 59.81 201.735 60.59H207.33C207.26 59.81 206.965 59.18 206.445 58.7C205.935 58.21 205.295 57.965 204.525 57.965Z" fill="white"/>
<path d="M217.717 53.87V65H216.697V63.44C216.377 63.97 215.952 64.375 215.422 64.655C214.902 64.935 214.312 65.075 213.652 65.075C212.912 65.075 212.242 64.905 211.642 64.565C211.042 64.225 210.572 63.75 210.232 63.14C209.892 62.53 209.722 61.835 209.722 61.055C209.722 60.275 209.892 59.58 210.232 58.97C210.572 58.36 211.042 57.89 211.642 57.56C212.242 57.22 212.912 57.05 213.652 57.05C214.292 57.05 214.867 57.185 215.377 57.455C215.897 57.715 216.322 58.1 216.652 58.61V53.87H217.717ZM213.742 64.13C214.292 64.13 214.787 64.005 215.227 63.755C215.677 63.495 216.027 63.13 216.277 62.66C216.537 62.19 216.667 61.655 216.667 61.055C216.667 60.455 216.537 59.92 216.277 59.45C216.027 58.98 215.677 58.62 215.227 58.37C214.787 58.11 214.292 57.98 213.742 57.98C213.182 57.98 212.677 58.11 212.227 58.37C211.787 58.62 211.437 58.98 211.177 59.45C210.927 59.92 210.802 60.455 210.802 61.055C210.802 61.655 210.927 62.19 211.177 62.66C211.437 63.13 211.787 63.495 212.227 63.755C212.677 64.005 213.182 64.13 213.742 64.13Z" fill="white"/>
<path d="M220.683 57.11H221.748V65H220.683V57.11ZM221.223 55.385C221.003 55.385 220.818 55.31 220.668 55.16C220.518 55.01 220.443 54.83 220.443 54.62C220.443 54.42 220.518 54.245 220.668 54.095C220.818 53.945 221.003 53.87 221.223 53.87C221.443 53.87 221.628 53.945 221.778 54.095C221.928 54.235 222.003 54.405 222.003 54.605C222.003 54.825 221.928 55.01 221.778 55.16C221.628 55.31 221.443 55.385 221.223 55.385Z" fill="white"/>
<path d="M231.912 53.87V65H230.892V63.44C230.572 63.97 230.147 64.375 229.617 64.655C229.097 64.935 228.507 65.075 227.847 65.075C227.107 65.075 226.437 64.905 225.837 64.565C225.237 64.225 224.767 63.75 224.427 63.14C224.087 62.53 223.917 61.835 223.917 61.055C223.917 60.275 224.087 59.58 224.427 58.97C224.767 58.36 225.237 57.89 225.837 57.56C226.437 57.22 227.107 57.05 227.847 57.05C228.487 57.05 229.062 57.185 229.572 57.455C230.092 57.715 230.517 58.1 230.847 58.61V53.87H231.912ZM227.937 64.13C228.487 64.13 228.982 64.005 229.422 63.755C229.872 63.495 230.222 63.13 230.472 62.66C230.732 62.19 230.862 61.655 230.862 61.055C230.862 60.455 230.732 59.92 230.472 59.45C230.222 58.98 229.872 58.62 229.422 58.37C228.982 58.11 228.487 57.98 227.937 57.98C227.377 57.98 226.872 58.11 226.422 58.37C225.982 58.62 225.632 58.98 225.372 59.45C225.122 59.92 224.997 60.455 224.997 61.055C224.997 61.655 225.122 62.19 225.372 62.66C225.632 63.13 225.982 63.495 226.422 63.755C226.872 64.005 227.377 64.13 227.937 64.13Z" fill="white"/>
<path d="M237.638 57.05C238.668 57.05 239.458 57.31 240.008 57.83C240.558 58.34 240.833 59.1 240.833 60.11V65H239.813V63.77C239.573 64.18 239.218 64.5 238.748 64.73C238.288 64.96 237.738 65.075 237.098 65.075C236.218 65.075 235.518 64.865 234.998 64.445C234.478 64.025 234.218 63.47 234.218 62.78C234.218 62.11 234.458 61.57 234.938 61.16C235.428 60.75 236.203 60.545 237.263 60.545H239.768V60.065C239.768 59.385 239.578 58.87 239.198 58.52C238.818 58.16 238.263 57.98 237.533 57.98C237.033 57.98 236.553 58.065 236.093 58.235C235.633 58.395 235.238 58.62 234.908 58.91L234.428 58.115C234.828 57.775 235.308 57.515 235.868 57.335C236.428 57.145 237.018 57.05 237.638 57.05ZM237.263 64.235C237.863 64.235 238.378 64.1 238.808 63.83C239.238 63.55 239.558 63.15 239.768 62.63V61.34H237.293C235.943 61.34 235.268 61.81 235.268 62.75C235.268 63.21 235.443 63.575 235.793 63.845C236.143 64.105 236.633 64.235 237.263 64.235Z" fill="white"/>
</g>
<g id="Alexis Ol&#195;&#161;n">
<path d="M87.32 35.5H77.57L75.71 40H70.73L80.09 19H84.89L94.28 40H89.18L87.32 35.5ZM85.79 31.81L82.46 23.77L79.13 31.81H85.79Z" fill="white"/>
<path d="M96.1287 17.74H100.809V40H96.1287V17.74Z" fill="white"/>
<path d="M120.962 31.99C120.962 32.05 120.932 32.47 120.872 33.25H108.662C108.882 34.25 109.402 35.04 110.222 35.62C111.042 36.2 112.062 36.49 113.282 36.49C114.122 36.49 114.862 36.37 115.502 36.13C116.162 35.87 116.772 35.47 117.332 34.93L119.822 37.63C118.302 39.37 116.082 40.24 113.162 40.24C111.342 40.24 109.732 39.89 108.332 39.19C106.932 38.47 105.852 37.48 105.092 36.22C104.332 34.96 103.952 33.53 103.952 31.93C103.952 30.35 104.322 28.93 105.062 27.67C105.822 26.39 106.852 25.4 108.152 24.7C109.472 23.98 110.942 23.62 112.562 23.62C114.142 23.62 115.572 23.96 116.852 24.64C118.132 25.32 119.132 26.3 119.852 27.58C120.592 28.84 120.962 30.31 120.962 31.99ZM112.592 27.16C111.532 27.16 110.642 27.46 109.922 28.06C109.202 28.66 108.762 29.48 108.602 30.52H116.552C116.392 29.5 115.952 28.69 115.232 28.09C114.512 27.47 113.632 27.16 112.592 27.16Z" fill="white"/>
<path d="M133.898 40L130.358 35.05L126.698 40H121.598L127.808 31.87L121.808 23.86H127.058L130.478 28.57L133.988 23.86H138.968L132.968 31.75L139.208 40H133.898Z" fill="white"/>
<path d="M141.48 23.86H146.16V40H141.48V23.86ZM143.82 21.61C142.96 21.61 142.26 21.36 141.72 20.86C141.18 20.36 140.91 19.74 140.91 19C140.91 18.26 141.18 17.64 141.72 17.14C142.26 16.64 142.96 16.39 143.82 16.39C144.68 16.39 145.38 16.63 145.92 17.11C146.46 17.59 146.73 18.19 146.73 18.91C146.73 19.69 146.46 20.34 145.92 20.86C145.38 21.36 144.68 21.61 143.82 21.61Z" fill="white"/>
<path d="M155.934 40.24C154.594 40.24 153.284 40.08 152.004 39.76C150.724 39.42 149.704 39 148.944 38.5L150.504 35.14C151.224 35.6 152.094 35.98 153.114 36.28C154.134 36.56 155.134 36.7 156.114 36.7C158.094 36.7 159.084 36.21 159.084 35.23C159.084 34.77 158.814 34.44 158.274 34.24C157.734 34.04 156.904 33.87 155.784 33.73C154.464 33.53 153.374 33.3 152.514 33.04C151.654 32.78 150.904 32.32 150.264 31.66C149.644 31 149.334 30.06 149.334 28.84C149.334 27.82 149.624 26.92 150.204 26.14C150.804 25.34 151.664 24.72 152.784 24.28C153.924 23.84 155.264 23.62 156.804 23.62C157.944 23.62 159.074 23.75 160.194 24.01C161.334 24.25 162.274 24.59 163.014 25.03L161.454 28.36C160.034 27.56 158.484 27.16 156.804 27.16C155.804 27.16 155.054 27.3 154.554 27.58C154.054 27.86 153.804 28.22 153.804 28.66C153.804 29.16 154.074 29.51 154.614 29.71C155.154 29.91 156.014 30.1 157.194 30.28C158.514 30.5 159.594 30.74 160.434 31C161.274 31.24 162.004 31.69 162.624 32.35C163.244 33.01 163.554 33.93 163.554 35.11C163.554 36.11 163.254 37 162.654 37.78C162.054 38.56 161.174 39.17 160.014 39.61C158.874 40.03 157.514 40.24 155.934 40.24Z" fill="white"/>
<path d="M185.437 40.36C183.257 40.36 181.287 39.89 179.527 38.95C177.787 38.01 176.417 36.72 175.417 35.08C174.437 33.42 173.947 31.56 173.947 29.5C173.947 27.44 174.437 25.59 175.417 23.95C176.417 22.29 177.787 20.99 179.527 20.05C181.287 19.11 183.257 18.64 185.437 18.64C187.617 18.64 189.577 19.11 191.317 20.05C193.057 20.99 194.427 22.29 195.427 23.95C196.427 25.59 196.927 27.44 196.927 29.5C196.927 31.56 196.427 33.42 195.427 35.08C194.427 36.72 193.057 38.01 191.317 38.95C189.577 39.89 187.617 40.36 185.437 40.36ZM185.437 36.22C186.677 36.22 187.797 35.94 188.797 35.38C189.797 34.8 190.577 34 191.137 32.98C191.717 31.96 192.007 30.8 192.007 29.5C192.007 28.2 191.717 27.04 191.137 26.02C190.577 25 189.797 24.21 188.797 23.65C187.797 23.07 186.677 22.78 185.437 22.78C184.197 22.78 183.077 23.07 182.077 23.65C181.077 24.21 180.287 25 179.707 26.02C179.147 27.04 178.867 28.2 178.867 29.5C178.867 30.8 179.147 31.96 179.707 32.98C180.287 34 181.077 34.8 182.077 35.38C183.077 35.94 184.197 36.22 185.437 36.22Z" fill="white"/>
<path d="M200.25 17.74H204.93V40H200.25V17.74Z" fill="white"/>
<path d="M215.783 23.62C218.283 23.62 220.203 24.22 221.543 25.42C222.883 26.6 223.553 28.39 223.553 30.79V40H219.173V37.99C218.293 39.49 216.653 40.24 214.253 40.24C213.013 40.24 211.933 40.03 211.013 39.61C210.113 39.19 209.423 38.61 208.943 37.87C208.463 37.13 208.223 36.29 208.223 35.35C208.223 33.85 208.783 32.67 209.903 31.81C211.043 30.95 212.793 30.52 215.153 30.52H218.873C218.873 29.5 218.563 28.72 217.943 28.18C217.323 27.62 216.393 27.34 215.153 27.34C214.293 27.34 213.443 27.48 212.603 27.76C211.783 28.02 211.083 28.38 210.503 28.84L208.823 25.57C209.703 24.95 210.753 24.47 211.973 24.13C213.213 23.79 214.483 23.62 215.783 23.62ZM215.423 37.09C216.223 37.09 216.933 36.91 217.553 36.55C218.173 36.17 218.613 35.62 218.873 34.9V33.25H215.663C213.743 33.25 212.783 33.88 212.783 35.14C212.783 35.74 213.013 36.22 213.473 36.58C213.953 36.92 214.603 37.09 215.423 37.09ZM217.583 17.47H222.623L217.193 21.79H213.533L217.583 17.47Z" fill="white"/>
<path d="M237.599 23.62C239.599 23.62 241.209 24.22 242.429 25.42C243.669 26.62 244.289 28.4 244.289 30.76V40H239.609V31.48C239.609 30.2 239.329 29.25 238.769 28.63C238.209 27.99 237.399 27.67 236.339 27.67C235.159 27.67 234.219 28.04 233.519 28.78C232.819 29.5 232.469 30.58 232.469 32.02V40H227.789V23.86H232.259V25.75C232.879 25.07 233.649 24.55 234.569 24.19C235.489 23.81 236.499 23.62 237.599 23.62Z" fill="white"/>
</g>
</g>
</svg>
