<svg width="175" height="50" viewBox="0 0 175 50" fill="none" xmlns="http://www.w3.org/2000/svg">
<path d="M2.71002 38.5H6.98502C8.09502 38.5 9.07502 38.725 9.92502 39.175C10.775 39.615 11.435 40.235 11.905 41.035C12.375 41.825 12.61 42.73 12.61 43.75C12.61 44.77 12.375 45.68 11.905 46.48C11.435 47.27 10.775 47.89 9.92502 48.34C9.07502 48.78 8.09502 49 6.98502 49H2.71002V38.5ZM6.92502 48.04C7.84502 48.04 8.65002 47.86 9.34002 47.5C10.03 47.13 10.565 46.625 10.945 45.985C11.325 45.335 11.515 44.59 11.515 43.75C11.515 42.91 11.325 42.17 10.945 41.53C10.565 40.88 10.03 40.375 9.34002 40.015C8.65002 39.645 7.84502 39.46 6.92502 39.46H3.82002V48.04H6.92502Z" fill="white"/>
<path d="M21.7476 45.385H15.1476C15.2076 46.205 15.5226 46.87 16.0926 47.38C16.6626 47.88 17.3826 48.13 18.2526 48.13C18.7426 48.13 19.1926 48.045 19.6026 47.875C20.0126 47.695 20.3676 47.435 20.6676 47.095L21.2676 47.785C20.9176 48.205 20.4776 48.525 19.9476 48.745C19.4276 48.965 18.8526 49.075 18.2226 49.075C17.4126 49.075 16.6926 48.905 16.0626 48.565C15.4426 48.215 14.9576 47.735 14.6076 47.125C14.2576 46.515 14.0826 45.825 14.0826 45.055C14.0826 44.285 14.2476 43.595 14.5776 42.985C14.9176 42.375 15.3776 41.9 15.9576 41.56C16.5476 41.22 17.2076 41.05 17.9376 41.05C18.6676 41.05 19.3226 41.22 19.9026 41.56C20.4826 41.9 20.9376 42.375 21.2676 42.985C21.5976 43.585 21.7626 44.275 21.7626 45.055L21.7476 45.385ZM17.9376 41.965C17.1776 41.965 16.5376 42.21 16.0176 42.7C15.5076 43.18 15.2176 43.81 15.1476 44.59H20.7426C20.6726 43.81 20.3776 43.18 19.8576 42.7C19.3476 42.21 18.7076 41.965 17.9376 41.965Z" fill="white"/>
<path d="M26.0453 49.075C25.4053 49.075 24.7903 48.985 24.2003 48.805C23.6203 48.615 23.1653 48.38 22.8353 48.1L23.3153 47.26C23.6453 47.52 24.0603 47.735 24.5603 47.905C25.0603 48.065 25.5803 48.145 26.1203 48.145C26.8403 48.145 27.3703 48.035 27.7103 47.815C28.0603 47.585 28.2353 47.265 28.2353 46.855C28.2353 46.565 28.1403 46.34 27.9503 46.18C27.7603 46.01 27.5203 45.885 27.2303 45.805C26.9403 45.715 26.5553 45.63 26.0753 45.55C25.4353 45.43 24.9203 45.31 24.5303 45.19C24.1403 45.06 23.8053 44.845 23.5253 44.545C23.2553 44.245 23.1203 43.83 23.1203 43.3C23.1203 42.64 23.3953 42.1 23.9453 41.68C24.4953 41.26 25.2603 41.05 26.2403 41.05C26.7503 41.05 27.2603 41.12 27.7703 41.26C28.2803 41.39 28.7003 41.565 29.0303 41.785L28.5653 42.64C27.9153 42.19 27.1403 41.965 26.2403 41.965C25.5603 41.965 25.0453 42.085 24.6953 42.325C24.3553 42.565 24.1853 42.88 24.1853 43.27C24.1853 43.57 24.2803 43.81 24.4703 43.99C24.6703 44.17 24.9153 44.305 25.2053 44.395C25.4953 44.475 25.8953 44.56 26.4053 44.65C27.0353 44.77 27.5403 44.89 27.9203 45.01C28.3003 45.13 28.6253 45.335 28.8953 45.625C29.1653 45.915 29.3003 46.315 29.3003 46.825C29.3003 47.515 29.0103 48.065 28.4303 48.475C27.8603 48.875 27.0653 49.075 26.0453 49.075Z" fill="white"/>
<path d="M34.0292 41.05C35.0592 41.05 35.8492 41.31 36.3992 41.83C36.9492 42.34 37.2242 43.1 37.2242 44.11V49H36.2042V47.77C35.9642 48.18 35.6092 48.5 35.1392 48.73C34.6792 48.96 34.1292 49.075 33.4892 49.075C32.6092 49.075 31.9092 48.865 31.3892 48.445C30.8692 48.025 30.6092 47.47 30.6092 46.78C30.6092 46.11 30.8492 45.57 31.3292 45.16C31.8192 44.75 32.5942 44.545 33.6542 44.545H36.1592V44.065C36.1592 43.385 35.9692 42.87 35.5892 42.52C35.2092 42.16 34.6542 41.98 33.9242 41.98C33.4242 41.98 32.9442 42.065 32.4842 42.235C32.0242 42.395 31.6292 42.62 31.2992 42.91L30.8192 42.115C31.2192 41.775 31.6992 41.515 32.2592 41.335C32.8192 41.145 33.4092 41.05 34.0292 41.05ZM33.6542 48.235C34.2542 48.235 34.7692 48.1 35.1992 47.83C35.6292 47.55 35.9492 47.15 36.1592 46.63V45.34H33.6842C32.3342 45.34 31.6592 45.81 31.6592 46.75C31.6592 47.21 31.8342 47.575 32.1842 47.845C32.5342 48.105 33.0242 48.235 33.6542 48.235Z" fill="white"/>
<path d="M41.1369 42.655C41.3869 42.125 41.7569 41.725 42.2469 41.455C42.7469 41.185 43.3619 41.05 44.0919 41.05V42.085L43.8369 42.07C43.0069 42.07 42.3569 42.325 41.8869 42.835C41.4169 43.345 41.1819 44.06 41.1819 44.98V49H40.1169V41.11H41.1369V42.655Z" fill="white"/>
<path d="M47.0402 42.655C47.2902 42.125 47.6602 41.725 48.1502 41.455C48.6502 41.185 49.2652 41.05 49.9952 41.05V42.085L49.7402 42.07C48.9102 42.07 48.2602 42.325 47.7902 42.835C47.3202 43.345 47.0852 44.06 47.0852 44.98V49H46.0202V41.11H47.0402V42.655Z" fill="white"/>
<path d="M55.0753 49.075C54.3153 49.075 53.6303 48.905 53.0203 48.565C52.4103 48.215 51.9303 47.735 51.5803 47.125C51.2303 46.515 51.0553 45.825 51.0553 45.055C51.0553 44.285 51.2303 43.595 51.5803 42.985C51.9303 42.375 52.4103 41.9 53.0203 41.56C53.6303 41.22 54.3153 41.05 55.0753 41.05C55.8353 41.05 56.5203 41.22 57.1303 41.56C57.7403 41.9 58.2153 42.375 58.5553 42.985C58.9053 43.595 59.0803 44.285 59.0803 45.055C59.0803 45.825 58.9053 46.515 58.5553 47.125C58.2153 47.735 57.7403 48.215 57.1303 48.565C56.5203 48.905 55.8353 49.075 55.0753 49.075ZM55.0753 48.13C55.6353 48.13 56.1353 48.005 56.5753 47.755C57.0253 47.495 57.3753 47.13 57.6253 46.66C57.8753 46.19 58.0003 45.655 58.0003 45.055C58.0003 44.455 57.8753 43.92 57.6253 43.45C57.3753 42.98 57.0253 42.62 56.5753 42.37C56.1353 42.11 55.6353 41.98 55.0753 41.98C54.5153 41.98 54.0103 42.11 53.5603 42.37C53.1203 42.62 52.7703 42.98 52.5103 43.45C52.2603 43.92 52.1353 44.455 52.1353 45.055C52.1353 45.655 52.2603 46.19 52.5103 46.66C52.7703 47.13 53.1203 47.495 53.5603 47.755C54.0103 48.005 54.5153 48.13 55.0753 48.13Z" fill="white"/>
<path d="M61.2546 37.87H62.3196V49H61.2546V37.87Z" fill="white"/>
<path d="M65.2829 37.87H66.3479V49H65.2829V37.87Z" fill="white"/>
<path d="M72.5362 49.075C71.7762 49.075 71.0912 48.905 70.4812 48.565C69.8712 48.215 69.3912 47.735 69.0412 47.125C68.6912 46.515 68.5162 45.825 68.5162 45.055C68.5162 44.285 68.6912 43.595 69.0412 42.985C69.3912 42.375 69.8712 41.9 70.4812 41.56C71.0912 41.22 71.7762 41.05 72.5362 41.05C73.2962 41.05 73.9812 41.22 74.5912 41.56C75.2012 41.9 75.6762 42.375 76.0162 42.985C76.3662 43.595 76.5412 44.285 76.5412 45.055C76.5412 45.825 76.3662 46.515 76.0162 47.125C75.6762 47.735 75.2012 48.215 74.5912 48.565C73.9812 48.905 73.2962 49.075 72.5362 49.075ZM72.5362 48.13C73.0962 48.13 73.5962 48.005 74.0362 47.755C74.4862 47.495 74.8362 47.13 75.0862 46.66C75.3362 46.19 75.4612 45.655 75.4612 45.055C75.4612 44.455 75.3362 43.92 75.0862 43.45C74.8362 42.98 74.4862 42.62 74.0362 42.37C73.5962 42.11 73.0962 41.98 72.5362 41.98C71.9762 41.98 71.4712 42.11 71.0212 42.37C70.5812 42.62 70.2312 42.98 69.9712 43.45C69.7212 43.92 69.5962 44.455 69.5962 45.055C69.5962 45.655 69.7212 46.19 69.9712 46.66C70.2312 47.13 70.5812 47.495 71.0212 47.755C71.4712 48.005 71.9762 48.13 72.5362 48.13Z" fill="white"/>
<path d="M85.4013 41.05C86.4313 41.05 87.2213 41.31 87.7713 41.83C88.3213 42.34 88.5963 43.1 88.5963 44.11V49H87.5763V47.77C87.3363 48.18 86.9813 48.5 86.5113 48.73C86.0513 48.96 85.5013 49.075 84.8613 49.075C83.9813 49.075 83.2813 48.865 82.7613 48.445C82.2413 48.025 81.9813 47.47 81.9813 46.78C81.9813 46.11 82.2213 45.57 82.7013 45.16C83.1913 44.75 83.9663 44.545 85.0263 44.545H87.5313V44.065C87.5313 43.385 87.3413 42.87 86.9613 42.52C86.5813 42.16 86.0263 41.98 85.2963 41.98C84.7963 41.98 84.3163 42.065 83.8563 42.235C83.3963 42.395 83.0013 42.62 82.6713 42.91L82.1913 42.115C82.5913 41.775 83.0713 41.515 83.6313 41.335C84.1913 41.145 84.7813 41.05 85.4013 41.05ZM85.0263 48.235C85.6263 48.235 86.1413 48.1 86.5713 47.83C87.0013 47.55 87.3213 47.15 87.5313 46.63V45.34H85.0563C83.7063 45.34 83.0313 45.81 83.0313 46.75C83.0313 47.21 83.2063 47.575 83.5563 47.845C83.9063 48.105 84.3963 48.235 85.0263 48.235Z" fill="white"/>
<path d="M99.5697 48.52C99.3697 48.7 99.1197 48.84 98.8197 48.94C98.5297 49.03 98.2247 49.075 97.9047 49.075C97.1647 49.075 96.5947 48.875 96.1947 48.475C95.7947 48.075 95.5947 47.51 95.5947 46.78V42.01H94.1847V41.11H95.5947V39.385H96.6597V41.11H99.0597V42.01H96.6597V46.72C96.6597 47.19 96.7747 47.55 97.0047 47.8C97.2447 48.04 97.5847 48.16 98.0247 48.16C98.2447 48.16 98.4547 48.125 98.6547 48.055C98.8647 47.985 99.0447 47.885 99.1947 47.755L99.5697 48.52Z" fill="white"/>
<path d="M108.618 41.11V49H107.598V47.56C107.318 48.04 106.933 48.415 106.443 48.685C105.953 48.945 105.393 49.075 104.763 49.075C103.733 49.075 102.918 48.79 102.318 48.22C101.728 47.64 101.433 46.795 101.433 45.685V41.11H102.498V45.58C102.498 46.41 102.703 47.04 103.113 47.47C103.523 47.9 104.108 48.115 104.868 48.115C105.698 48.115 106.353 47.865 106.833 47.365C107.313 46.855 107.553 46.15 107.553 45.25V41.11H108.618Z" fill="white"/>
<path d="M125.367 41.05C126.357 41.05 127.132 41.335 127.692 41.905C128.262 42.475 128.547 43.315 128.547 44.425V49H127.482V44.53C127.482 43.71 127.282 43.085 126.882 42.655C126.492 42.225 125.937 42.01 125.217 42.01C124.397 42.01 123.752 42.265 123.282 42.775C122.812 43.275 122.577 43.97 122.577 44.86V49H121.512V44.53C121.512 43.71 121.312 43.085 120.912 42.655C120.522 42.225 119.962 42.01 119.232 42.01C118.422 42.01 117.777 42.265 117.297 42.775C116.827 43.275 116.592 43.97 116.592 44.86V49H115.527V41.11H116.547V42.55C116.827 42.07 117.217 41.7 117.717 41.44C118.217 41.18 118.792 41.05 119.442 41.05C120.102 41.05 120.672 41.19 121.152 41.47C121.642 41.75 122.007 42.165 122.247 42.715C122.537 42.195 122.952 41.79 123.492 41.5C124.042 41.2 124.667 41.05 125.367 41.05Z" fill="white"/>
<path d="M138.335 45.385H131.735C131.795 46.205 132.109 46.87 132.68 47.38C133.25 47.88 133.97 48.13 134.84 48.13C135.33 48.13 135.78 48.045 136.19 47.875C136.6 47.695 136.954 47.435 137.255 47.095L137.855 47.785C137.505 48.205 137.064 48.525 136.535 48.745C136.014 48.965 135.44 49.075 134.81 49.075C134 49.075 133.28 48.905 132.65 48.565C132.03 48.215 131.545 47.735 131.195 47.125C130.844 46.515 130.67 45.825 130.67 45.055C130.67 44.285 130.835 43.595 131.165 42.985C131.505 42.375 131.965 41.9 132.545 41.56C133.135 41.22 133.795 41.05 134.525 41.05C135.255 41.05 135.91 41.22 136.49 41.56C137.07 41.9 137.525 42.375 137.855 42.985C138.185 43.585 138.35 44.275 138.35 45.055L138.335 45.385ZM134.525 41.965C133.765 41.965 133.125 42.21 132.605 42.7C132.095 43.18 131.805 43.81 131.735 44.59H137.33C137.26 43.81 136.965 43.18 136.445 42.7C135.935 42.21 135.295 41.965 134.525 41.965Z" fill="white"/>
<path d="M147.717 37.87V49H146.697V47.44C146.377 47.97 145.952 48.375 145.422 48.655C144.902 48.935 144.312 49.075 143.652 49.075C142.912 49.075 142.242 48.905 141.642 48.565C141.042 48.225 140.572 47.75 140.232 47.14C139.892 46.53 139.722 45.835 139.722 45.055C139.722 44.275 139.892 43.58 140.232 42.97C140.572 42.36 141.042 41.89 141.642 41.56C142.242 41.22 142.912 41.05 143.652 41.05C144.292 41.05 144.867 41.185 145.377 41.455C145.897 41.715 146.322 42.1 146.652 42.61V37.87H147.717ZM143.742 48.13C144.292 48.13 144.787 48.005 145.227 47.755C145.677 47.495 146.027 47.13 146.277 46.66C146.537 46.19 146.667 45.655 146.667 45.055C146.667 44.455 146.537 43.92 146.277 43.45C146.027 42.98 145.677 42.62 145.227 42.37C144.787 42.11 144.292 41.98 143.742 41.98C143.182 41.98 142.677 42.11 142.227 42.37C141.787 42.62 141.437 42.98 141.177 43.45C140.927 43.92 140.802 44.455 140.802 45.055C140.802 45.655 140.927 46.19 141.177 46.66C141.437 47.13 141.787 47.495 142.227 47.755C142.677 48.005 143.182 48.13 143.742 48.13Z" fill="white"/>
<path d="M150.683 41.11H151.748V49H150.683V41.11ZM151.223 39.385C151.003 39.385 150.818 39.31 150.668 39.16C150.518 39.01 150.443 38.83 150.443 38.62C150.443 38.42 150.518 38.245 150.668 38.095C150.818 37.945 151.003 37.87 151.223 37.87C151.443 37.87 151.628 37.945 151.778 38.095C151.928 38.235 152.003 38.405 152.003 38.605C152.003 38.825 151.928 39.01 151.778 39.16C151.628 39.31 151.443 39.385 151.223 39.385Z" fill="white"/>
<path d="M161.912 37.87V49H160.892V47.44C160.572 47.97 160.147 48.375 159.617 48.655C159.097 48.935 158.507 49.075 157.847 49.075C157.107 49.075 156.437 48.905 155.837 48.565C155.237 48.225 154.767 47.75 154.427 47.14C154.087 46.53 153.917 45.835 153.917 45.055C153.917 44.275 154.087 43.58 154.427 42.97C154.767 42.36 155.237 41.89 155.837 41.56C156.437 41.22 157.107 41.05 157.847 41.05C158.487 41.05 159.062 41.185 159.572 41.455C160.092 41.715 160.517 42.1 160.847 42.61V37.87H161.912ZM157.937 48.13C158.487 48.13 158.982 48.005 159.422 47.755C159.872 47.495 160.222 47.13 160.472 46.66C160.732 46.19 160.862 45.655 160.862 45.055C160.862 44.455 160.732 43.92 160.472 43.45C160.222 42.98 159.872 42.62 159.422 42.37C158.982 42.11 158.487 41.98 157.937 41.98C157.377 41.98 156.872 42.11 156.422 42.37C155.982 42.62 155.632 42.98 155.372 43.45C155.122 43.92 154.997 44.455 154.997 45.055C154.997 45.655 155.122 46.19 155.372 46.66C155.632 47.13 155.982 47.495 156.422 47.755C156.872 48.005 157.377 48.13 157.937 48.13Z" fill="white"/>
<path d="M167.638 41.05C168.668 41.05 169.458 41.31 170.008 41.83C170.558 42.34 170.833 43.1 170.833 44.11V49H169.813V47.77C169.573 48.18 169.218 48.5 168.748 48.73C168.288 48.96 167.738 49.075 167.098 49.075C166.218 49.075 165.518 48.865 164.998 48.445C164.478 48.025 164.218 47.47 164.218 46.78C164.218 46.11 164.458 45.57 164.938 45.16C165.428 44.75 166.203 44.545 167.263 44.545H169.768V44.065C169.768 43.385 169.578 42.87 169.198 42.52C168.818 42.16 168.263 41.98 167.533 41.98C167.033 41.98 166.553 42.065 166.093 42.235C165.633 42.395 165.238 42.62 164.908 42.91L164.428 42.115C164.828 41.775 165.308 41.515 165.868 41.335C166.428 41.145 167.018 41.05 167.638 41.05ZM167.263 48.235C167.863 48.235 168.378 48.1 168.808 47.83C169.238 47.55 169.558 47.15 169.768 46.63V45.34H167.293C165.943 45.34 165.268 45.81 165.268 46.75C165.268 47.21 165.443 47.575 165.793 47.845C166.143 48.105 166.633 48.235 167.263 48.235Z" fill="white"/>
<path d="M17.32 19.5H7.56998L5.70998 24H0.72998L10.09 3.00001H14.89L24.28 24H19.18L17.32 19.5ZM15.79 15.81L12.46 7.77002L9.12998 15.81H15.79Z" fill="white"/>
<path d="M26.1287 1.74002H30.8087V24H26.1287V1.74002Z" fill="white"/>
<path d="M50.9622 15.99C50.9622 16.05 50.9322 16.47 50.8722 17.25H38.6622C38.8822 18.25 39.4022 19.04 40.2222 19.62C41.0422 20.2 42.0622 20.49 43.2822 20.49C44.1222 20.49 44.8622 20.37 45.5022 20.13C46.1622 19.87 46.7722 19.47 47.3322 18.93L49.8222 21.63C48.3022 23.37 46.0822 24.24 43.1622 24.24C41.3422 24.24 39.7322 23.89 38.3322 23.19C36.9322 22.47 35.8522 21.48 35.0922 20.22C34.3322 18.96 33.9522 17.53 33.9522 15.93C33.9522 14.35 34.3222 12.93 35.0622 11.67C35.8222 10.39 36.8522 9.40002 38.1522 8.70002C39.4722 7.98002 40.9422 7.62002 42.5622 7.62002C44.1422 7.62002 45.5722 7.96002 46.8522 8.64002C48.1322 9.32002 49.1322 10.3 49.8522 11.58C50.5922 12.84 50.9622 14.31 50.9622 15.99ZM42.5922 11.16C41.5322 11.16 40.6422 11.46 39.9222 12.06C39.2022 12.66 38.7622 13.48 38.6022 14.52H46.5522C46.3922 13.5 45.9522 12.69 45.2322 12.09C44.5122 11.47 43.6322 11.16 42.5922 11.16Z" fill="white"/>
<path d="M63.8985 24L60.3585 19.05L56.6985 24H51.5985L57.8085 15.87L51.8085 7.86001H57.0585L60.4785 12.57L63.9885 7.86001H68.9685L62.9685 15.75L69.2085 24H63.8985Z" fill="white"/>
<path d="M71.4803 7.86001H76.1603V24H71.4803V7.86001ZM73.8203 5.61001C72.9603 5.61001 72.2603 5.36002 71.7203 4.86002C71.1803 4.36002 70.9103 3.74001 70.9103 3.00001C70.9103 2.26001 71.1803 1.64002 71.7203 1.14002C72.2603 0.640015 72.9603 0.390015 73.8203 0.390015C74.6803 0.390015 75.3803 0.630015 75.9203 1.11002C76.4603 1.59002 76.7303 2.19002 76.7303 2.91002C76.7303 3.69002 76.4603 4.34002 75.9203 4.86002C75.3803 5.36002 74.6803 5.61001 73.8203 5.61001Z" fill="white"/>
<path d="M85.9337 24.24C84.5937 24.24 83.2837 24.08 82.0037 23.76C80.7237 23.42 79.7037 23 78.9437 22.5L80.5037 19.14C81.2237 19.6 82.0937 19.98 83.1137 20.28C84.1337 20.56 85.1337 20.7 86.1137 20.7C88.0937 20.7 89.0837 20.21 89.0837 19.23C89.0837 18.77 88.8137 18.44 88.2737 18.24C87.7337 18.04 86.9037 17.87 85.7837 17.73C84.4637 17.53 83.3737 17.3 82.5137 17.04C81.6537 16.78 80.9037 16.32 80.2637 15.66C79.6437 15 79.3337 14.06 79.3337 12.84C79.3337 11.82 79.6237 10.92 80.2037 10.14C80.8037 9.34002 81.6637 8.72002 82.7837 8.28001C83.9237 7.84002 85.2637 7.62002 86.8037 7.62002C87.9437 7.62002 89.0737 7.75002 90.1937 8.01001C91.3337 8.25002 92.2737 8.59002 93.0137 9.03002L91.4537 12.36C90.0337 11.56 88.4837 11.16 86.8037 11.16C85.8037 11.16 85.0537 11.3 84.5537 11.58C84.0537 11.86 83.8037 12.22 83.8037 12.66C83.8037 13.16 84.0737 13.51 84.6137 13.71C85.1537 13.91 86.0137 14.1 87.1937 14.28C88.5137 14.5 89.5937 14.74 90.4337 15C91.2737 15.24 92.0037 15.69 92.6237 16.35C93.2437 17.01 93.5537 17.93 93.5537 19.11C93.5537 20.11 93.2537 21 92.6537 21.78C92.0537 22.56 91.1737 23.17 90.0137 23.61C88.8737 24.03 87.5137 24.24 85.9337 24.24Z" fill="white"/>
<path d="M115.437 24.36C113.257 24.36 111.287 23.89 109.527 22.95C107.787 22.01 106.417 20.72 105.417 19.08C104.437 17.42 103.947 15.56 103.947 13.5C103.947 11.44 104.437 9.59002 105.417 7.95002C106.417 6.29002 107.787 4.99002 109.527 4.05002C111.287 3.11002 113.257 2.64002 115.437 2.64002C117.617 2.64002 119.577 3.11002 121.317 4.05002C123.057 4.99002 124.427 6.29002 125.427 7.95002C126.427 9.59002 126.927 11.44 126.927 13.5C126.927 15.56 126.427 17.42 125.427 19.08C124.427 20.72 123.057 22.01 121.317 22.95C119.577 23.89 117.617 24.36 115.437 24.36ZM115.437 20.22C116.677 20.22 117.797 19.94 118.797 19.38C119.797 18.8 120.577 18 121.137 16.98C121.717 15.96 122.007 14.8 122.007 13.5C122.007 12.2 121.717 11.04 121.137 10.02C120.577 9.00002 119.797 8.21002 118.797 7.65002C117.797 7.07002 116.677 6.78002 115.437 6.78002C114.197 6.78002 113.077 7.07002 112.077 7.65002C111.077 8.21002 110.287 9.00002 109.707 10.02C109.147 11.04 108.867 12.2 108.867 13.5C108.867 14.8 109.147 15.96 109.707 16.98C110.287 18 111.077 18.8 112.077 19.38C113.077 19.94 114.197 20.22 115.437 20.22Z" fill="white"/>
<path d="M130.25 1.74002H134.93V24H130.25V1.74002Z" fill="white"/>
<path d="M145.783 7.62002C148.283 7.62002 150.203 8.22002 151.543 9.42002C152.883 10.6 153.553 12.39 153.553 14.79V24H149.173V21.99C148.293 23.49 146.653 24.24 144.253 24.24C143.013 24.24 141.933 24.03 141.013 23.61C140.113 23.19 139.423 22.61 138.943 21.87C138.463 21.13 138.223 20.29 138.223 19.35C138.223 17.85 138.783 16.67 139.903 15.81C141.043 14.95 142.793 14.52 145.153 14.52H148.873C148.873 13.5 148.563 12.72 147.943 12.18C147.323 11.62 146.393 11.34 145.153 11.34C144.293 11.34 143.443 11.48 142.603 11.76C141.783 12.02 141.083 12.38 140.503 12.84L138.823 9.57001C139.703 8.95002 140.753 8.47002 141.973 8.13002C143.213 7.79002 144.483 7.62002 145.783 7.62002ZM145.423 21.09C146.223 21.09 146.933 20.91 147.553 20.55C148.173 20.17 148.613 19.62 148.873 18.9V17.25H145.663C143.743 17.25 142.783 17.88 142.783 19.14C142.783 19.74 143.013 20.22 143.473 20.58C143.953 20.92 144.603 21.09 145.423 21.09ZM147.583 1.47001H152.623L147.193 5.79001H143.533L147.583 1.47001Z" fill="white"/>
<path d="M167.599 7.62002C169.599 7.62002 171.209 8.22002 172.429 9.42002C173.669 10.62 174.289 12.4 174.289 14.76V24H169.609V15.48C169.609 14.2 169.329 13.25 168.769 12.63C168.209 11.99 167.399 11.67 166.339 11.67C165.159 11.67 164.219 12.04 163.519 12.78C162.819 13.5 162.469 14.58 162.469 16.02V24H157.789V7.86001H162.259V9.75002C162.879 9.07002 163.649 8.55002 164.569 8.19002C165.489 7.81002 166.499 7.62002 167.599 7.62002Z" fill="white"/>
</svg>
